{"glyphs":{"0":{"ha":463,"x_min":0,"x_max":0,"o":"m 435 294 b 390 317 431 310 413 326 l 390 754 b 401 825 392 788 394 808 b 406 896 411 847 413 871 b 328 911 400 953 329 951 b 346 892 328 901 336 893 b 365 911 357 892 365 900 b 349 931 365 921 358 929 b 392 885 346 932 393 943 b 196 972 390 810 186 850 b 13 804 167 863 96 804 b 42 546 42 763 42 601 l 42 317 b 0 294 21 326 3 310 b 42 246 22 308 40 290 b 24 175 40 207 40 186 b 213 0 121 149 197 79 b 411 175 231 75 314 100 b 392 214 399 185 393 197 b 435 294 386 282 406 310 z m 303 317 b 258 294 281 326 263 310 b 296 214 286 310 314 276 b 213 71 281 163 235 99 b 133 214 188 110 147 149 b 174 294 125 282 146 310 b 129 317 171 310 151 326 l 129 478 b 224 417 147 442 179 417 b 213 564 308 417 314 574 b 203 522 179 561 178 526 b 219 553 226 518 231 546 b 226 431 292 567 299 431 b 265 724 72 431 129 729 b 303 682 299 722 303 710 z m 179 715 b 129 642 157 693 140 668 l 129 817 b 317 797 165 781 250 775 b 179 715 261 772 210 746 z "},"1":{"ha":215,"x_min":0,"x_max":0,"o":"m 196 250 b 163 185 196 213 185 185 b 135 218 146 186 138 200 b 176 294 124 283 149 310 b 132 317 172 310 153 326 l 132 818 b 119 990 132 847 168 990 b 100 971 108 990 100 982 b 118 951 99 961 107 953 b 131 957 122 951 128 953 b -26 657 140 868 -10 772 b 17 543 -31 628 -25 544 b 36 561 28 543 36 551 b 18 581 36 572 28 581 b 1 571 11 581 4 576 b 43 746 -21 628 1 706 l 43 317 b 0 294 22 326 3 310 b 43 243 24 308 42 290 b 25 175 43 206 42 185 b 163 0 122 149 147 79 b 196 250 176 78 213 176 z "},"2":{"ha":467,"x_min":0,"x_max":0,"o":"m 418 663 b 467 804 440 708 433 782 b 336 972 383 804 365 863 b 140 885 346 850 143 810 b 183 931 139 943 186 932 b 167 911 174 929 167 921 b 186 892 167 900 176 892 b 204 911 197 893 206 901 b 126 885 204 954 124 953 b 349 817 129 786 286 754 l 349 751 b 44 317 349 632 61 499 b 0 294 22 326 4 310 b 88 175 44 321 60 192 b 217 0 171 175 188 108 b 413 88 232 146 411 149 b 369 42 414 29 368 40 b 386 61 379 43 388 51 b 367 79 386 72 378 81 b 349 60 357 79 349 69 b 428 88 351 18 429 19 b 401 192 426 125 413 151 b 189 157 388 244 218 188 b 151 239 169 186 158 214 b 189 294 143 281 165 308 b 144 317 185 310 167 326 b 418 663 164 457 354 532 z "},"3":{"ha":474,"x_min":0,"x_max":0,"o":"m 371 429 b 367 594 365 486 367 540 b 372 649 368 618 369 635 b 149 599 335 611 193 636 b 371 694 214 657 303 643 b 388 804 353 735 358 771 b 257 972 292 804 278 899 b 61 885 267 850 64 810 b 104 931 60 943 107 932 b 88 911 94 929 88 921 b 107 892 88 900 96 892 b 125 911 118 893 125 901 b 47 885 124 954 44 953 b 269 817 50 786 207 754 l 269 726 b 103 581 269 689 143 644 b 133 456 75 538 79 483 b 113 503 114 474 110 489 b 342 572 125 554 329 519 b 275 471 342 525 274 546 b 313 317 271 408 285 367 b 269 294 292 326 272 310 b 300 215 297 310 335 256 b 229 129 276 188 247 154 b 154 217 210 156 179 185 b 147 294 121 257 119 310 b 103 317 144 310 125 326 b 157 432 100 354 122 414 b 196 425 172 440 189 439 b 154 442 194 442 172 449 b 1 286 94 419 76 310 b 192 0 0 194 147 100 b 460 321 222 54 411 306 b 371 429 413 326 382 369 z "},"4":{"ha":547,"x_min":0,"x_max":0,"o":"m 344 507 l 344 715 b 357 972 344 758 346 872 b 226 804 328 863 311 804 b 257 714 250 789 256 756 l 257 474 b 200 428 236 460 217 444 b 42 465 169 464 93 482 b 226 982 138 606 292 938 b 214 986 222 985 218 986 l 210 986 b 194 968 201 985 194 978 b 213 949 194 958 203 949 b 224 951 217 949 221 950 b 18 479 239 906 167 694 b -26 375 3 457 -25 414 b 24 315 -29 346 -12 314 b 51 344 39 317 50 329 b 32 364 51 356 43 364 b 13 346 22 364 14 356 b 31 326 13 336 21 328 b 18 325 28 325 25 324 b 11 406 -19 328 -19 394 b 128 303 61 422 154 376 b 192 160 108 233 125 171 b 244 174 213 157 231 163 b 375 0 338 147 360 78 b 411 247 389 76 425 174 b 429 246 417 247 422 246 b 344 507 600 247 594 549 z m 426 286 b 375 407 347 286 328 371 b 344 389 364 404 353 397 l 344 475 b 426 286 546 503 514 286 z m 257 317 b 213 294 236 326 215 310 b 256 258 233 307 250 294 b 213 282 246 272 232 282 b 207 250 189 282 186 253 b 222 267 218 249 224 257 b 256 222 246 264 256 243 l 256 215 b 194 169 251 189 231 163 b 257 444 89 188 131 368 z m 375 185 b 344 258 347 186 344 226 l 344 276 b 410 247 358 261 381 250 b 375 185 410 211 397 185 z "},"5":{"ha":472,"x_min":0,"x_max":0,"o":"m 339 694 b 108 643 322 678 203 617 b 119 817 118 693 126 756 b 342 885 182 754 339 786 b 263 911 343 953 264 954 b 282 892 263 901 271 893 b 301 911 292 892 300 900 b 283 931 301 921 293 929 b 328 885 282 932 329 943 b 131 972 325 810 121 850 b 1 804 101 863 85 804 b 10 546 32 764 39 593 b 308 622 129 546 264 558 b 235 481 296 550 222 565 b 308 317 242 432 274 369 b 265 294 286 326 268 310 b 307 222 292 310 339 265 b 229 129 282 193 249 157 b 143 229 207 158 171 193 b 146 294 115 269 121 308 b 103 317 143 310 124 326 b 156 432 100 354 121 414 b 196 425 172 440 188 439 b 154 442 194 442 172 449 b 1 286 94 419 76 310 b 190 0 0 194 146 100 b 458 321 226 63 403 296 b 339 694 349 356 317 593 z "},"6":{"ha":464,"x_min":0,"x_max":0,"o":"m 436 294 b 393 315 433 310 414 326 l 393 483 b 410 568 394 526 399 550 b 429 628 419 585 429 607 b 351 656 432 694 354 696 b 369 635 350 644 358 635 b 389 653 381 635 389 643 b 372 672 389 664 382 672 b 415 628 369 674 417 686 b 331 593 414 594 368 571 b 275 715 296 621 271 678 b 132 536 246 656 147 597 l 132 817 b 354 885 194 754 351 786 b 276 911 357 953 278 954 b 294 892 276 901 283 893 b 314 911 304 892 314 900 b 297 931 314 921 307 929 b 340 885 294 932 342 943 b 144 972 338 810 135 850 b 14 804 115 863 99 804 b 44 551 43 764 44 610 l 44 315 b 0 294 22 326 4 310 b 44 243 24 307 43 290 b 26 175 43 206 42 185 b 215 0 124 149 200 79 b 414 175 233 75 317 100 b 394 214 401 185 396 197 b 436 294 388 282 408 310 z m 274 471 b 304 411 293 493 304 453 l 304 317 b 258 294 283 326 261 310 b 299 214 286 310 315 278 b 215 71 282 163 238 99 b 135 243 175 131 133 168 b 178 294 136 290 154 308 b 132 317 174 310 154 326 l 132 367 b 211 594 132 443 142 560 b 364 546 226 547 329 517 b 274 471 350 513 274 513 z "},"7":{"ha":425,"x_min":0,"x_max":0,"o":"m 481 922 l 189 924 b 124 660 -6 922 -15 660 b 140 663 129 660 135 661 b 85 615 125 646 106 629 l 213 615 l 97 317 b 53 294 75 326 57 310 b 57 214 82 310 83 281 b 28 175 51 197 43 186 b 164 0 124 149 149 79 b 199 250 178 78 214 176 b 164 185 199 213 186 185 b 154 217 153 186 150 197 b 235 294 175 272 207 310 b 192 317 232 310 213 326 l 307 615 l 354 615 b 442 708 367 664 410 669 b 339 694 408 694 382 694 b 481 922 374 782 424 886 z m 244 694 l 168 694 b 153 728 171 707 165 721 b 126 718 143 732 132 728 b 136 693 122 710 126 697 b 161 701 144 689 156 693 b 124 674 163 703 154 674 b 233 836 19 674 82 911 b 300 892 272 854 281 863 b 244 694 310 867 275 769 z "},"8":{"ha":529,"x_min":0,"x_max":0,"o":"m 422 500 b 422 547 422 517 422 532 b 428 600 422 569 425 586 b 247 549 390 563 286 582 b 426 639 313 610 358 588 b 424 763 413 668 414 724 l 443 804 b 313 972 358 804 342 863 b 117 885 322 850 118 810 b 160 931 115 943 163 932 b 143 911 150 929 143 921 b 163 892 143 900 151 892 b 181 911 172 893 181 901 b 101 885 179 954 100 953 b 111 850 103 872 106 860 b 24 804 92 819 67 804 b 39 639 47 754 64 692 b 176 550 72 614 126 579 b 14 401 117 536 90 425 b 42 317 14 379 25 350 b 0 294 21 326 3 310 b 94 231 25 308 61 278 b 247 0 151 146 222 56 b 515 321 278 54 467 306 b 422 500 456 328 425 394 z m 142 671 l 142 813 b 233 785 168 794 201 785 b 325 817 265 785 301 793 l 325 671 b 222 558 325 639 265 607 b 142 671 181 601 142 651 z m 331 422 b 368 315 335 386 342 363 b 324 294 356 328 328 314 b 356 214 351 310 393 264 l 285 129 b 224 215 271 147 249 179 b 206 294 192 267 179 315 b 163 317 203 310 183 326 b 115 436 136 364 115 410 b 188 543 114 474 146 536 b 204 533 193 540 199 538 b 233 407 174 486 182 435 b 213 454 215 426 210 442 b 396 525 226 507 385 472 b 331 422 396 478 329 499 z "},"9":{"ha":514,"x_min":0,"x_max":0,"o":"m 363 649 b 426 804 372 715 388 774 b 297 972 343 804 326 863 b 101 885 307 850 103 810 b 144 931 100 943 146 932 b 128 911 135 929 126 921 b 147 892 128 900 136 892 b 165 911 157 893 165 901 b 86 885 164 954 85 953 b 94 850 88 872 90 860 b 8 804 76 819 51 804 b 38 514 47 729 38 601 b 21 431 36 471 32 447 b 1 371 13 414 1 390 b 79 342 0 303 78 301 b 61 363 81 353 72 363 b 42 344 51 363 42 354 b 60 325 42 333 49 325 b 15 371 61 324 14 313 b 136 404 17 404 99 428 b 192 283 171 378 194 319 b 274 376 207 314 244 343 b 310 469 293 397 304 435 b 356 317 321 407 339 356 b 313 294 335 326 315 310 b 340 215 340 310 378 261 l 269 129 b 133 249 235 174 157 208 b 176 285 122 269 121 310 b 25 224 107 351 88 233 b 232 0 24 132 186 100 b 500 321 263 54 451 306 b 363 649 429 329 353 499 z m 296 593 b 256 403 296 517 286 418 b 67 451 240 451 101 481 b 157 526 82 485 157 485 b 126 586 139 504 126 544 l 126 813 b 218 785 153 794 186 785 b 310 817 250 785 286 793 b 296 593 297 743 292 668 z "},"\u0000":{"ha":0,"x_min":0,"x_max":0,"o":""},"\r":{"ha":278,"x_min":0,"x_max":0,"o":""}," ":{"ha":278,"x_min":0,"x_max":0,"o":""},"e":{"ha":369,"x_min":0,"x_max":0,"o":"m 275 654 b 293 635 275 644 283 635 b 313 653 304 635 313 643 b 296 672 314 664 306 672 b 339 628 294 674 340 686 b 143 715 338 553 133 593 b 14 546 114 606 97 547 b 43 457 36 532 42 499 l 43 317 b 0 294 22 326 3 310 b 42 214 28 310 46 282 b 25 175 40 194 36 182 b 196 0 122 149 181 79 b 338 175 215 75 240 100 b 317 249 318 192 317 213 b 347 417 317 286 368 363 b 185 200 358 289 199 275 b 226 190 201 221 226 213 b 196 71 224 144 215 94 b 156 139 182 92 168 114 b 210 164 175 132 210 140 b 192 183 210 175 203 183 b 172 165 181 183 172 175 b 179 150 172 158 175 153 b 150 201 165 144 150 172 b 321 435 150 282 238 383 b 338 446 326 439 332 442 b 354 628 283 536 351 558 b 275 654 356 696 276 696 z m 197 471 b 219 465 207 482 215 478 b 231 429 225 454 229 442 b 132 250 226 369 157 318 l 132 558 b 289 546 168 522 257 519 b 197 471 274 513 197 513 z "},"f":{"ha":240,"x_min":0,"x_max":0,"o":"m 268 678 b 257 683 265 681 261 682 b 238 664 246 683 238 675 b 256 644 236 654 244 644 b 263 646 258 644 261 646 b 257 608 263 633 261 621 l 131 608 b 296 769 151 657 226 715 l 211 871 b 251 972 186 901 208 943 b 131 896 218 964 161 919 b 42 871 83 863 69 864 l 42 315 b 0 294 21 326 3 310 b 42 228 26 310 40 286 l 42 56 b -58 -207 39 -42 25 -185 b 178 25 46 -207 83 -39 b 142 71 157 33 147 50 b 131 214 132 110 131 174 b 172 294 131 283 144 310 b 131 315 169 310 151 326 l 131 519 l 200 519 b 164 357 158 472 121 422 b 243 546 136 440 200 494 b 268 678 272 583 294 658 z m 131 831 l 214 732 b 131 647 183 706 153 676 l 131 831 z "},"g":{"ha":401,"x_min":0,"x_max":0,"o":"m 322 233 b 367 294 319 288 342 308 b 317 317 364 310 339 326 l 317 483 b 354 628 317 582 351 563 b 275 654 356 696 276 696 b 293 635 275 644 283 635 b 313 653 304 635 313 643 b 296 672 314 664 306 672 b 339 628 294 674 340 686 b 143 715 338 553 133 593 b 14 546 114 606 97 547 b 43 457 36 532 42 499 l 43 317 b 0 294 22 326 3 310 b 42 214 28 310 46 282 b 25 175 40 194 36 182 b 106 139 56 167 82 154 b 6 35 76 99 56 51 b 196 -250 4 -56 151 -150 b 415 71 226 -196 367 54 b 322 233 354 78 332 158 z m 132 558 b 289 546 168 522 257 519 b 197 471 274 513 197 513 b 229 411 224 501 229 424 l 229 317 b 186 294 208 326 189 310 b 229 231 211 310 229 286 b 196 71 228 178 221 101 b 144 168 178 100 157 128 b 200 175 158 182 188 199 b 140 179 194 203 158 194 b 135 214 138 190 136 201 b 175 294 128 282 147 310 b 132 317 172 310 153 326 l 132 558 z m 235 -121 b 107 71 193 -67 108 3 b 119 128 107 88 111 108 b 196 0 161 94 186 49 b 254 106 208 46 222 74 b 308 0 267 72 283 40 b 235 -121 300 -19 268 -74 z "},"h":{"ha":401,"x_min":0,"x_max":0,"o":"m 383 250 b 349 185 383 213 371 185 b 321 226 326 186 322 208 b 364 294 314 285 338 310 b 318 317 361 310 339 326 l 318 483 b 335 568 319 526 324 550 b 354 628 343 585 354 608 b 275 654 356 696 276 696 b 294 635 275 644 283 635 b 314 653 304 635 314 643 b 296 672 314 664 306 672 b 340 628 294 674 342 686 b 256 593 339 594 292 571 b 199 715 221 621 196 678 b 132 536 171 656 147 597 l 132 715 b 144 972 132 758 133 872 b 14 804 114 863 97 804 b 43 714 36 789 43 756 l 43 315 b 0 294 22 326 3 310 b 43 214 28 310 43 283 b 26 175 40 194 38 182 b 163 0 122 149 147 79 b 197 250 176 78 213 176 b 163 185 197 213 185 185 b 136 214 147 186 139 199 b 178 294 125 282 150 310 b 132 317 175 310 153 326 l 132 367 b 174 571 132 443 154 522 b 289 546 189 522 254 517 b 199 471 274 513 199 513 b 229 411 217 493 229 453 l 229 314 b 186 294 217 328 190 314 b 229 214 214 310 229 283 b 213 175 228 194 224 182 b 349 0 310 149 333 79 b 383 250 363 78 399 176 z "},"i":{"ha":238,"x_min":0,"x_max":0,"o":"m 179 650 b 233 750 149 688 207 739 b 200 831 199 765 146 800 b 100 753 147 824 140 764 b 179 650 201 736 142 678 z m 204 689 b 185 671 194 689 186 681 b 204 651 185 660 193 651 b 217 656 208 651 214 653 b 189 585 225 629 226 585 b 143 715 144 585 140 667 b 14 546 114 606 97 547 b 43 457 36 532 42 499 l 43 315 b 0 294 22 326 3 310 b 42 214 28 310 42 283 b 25 175 40 194 36 182 b 163 0 122 149 146 79 b 196 250 176 78 213 176 b 163 185 196 213 185 185 b 135 214 147 186 139 199 b 178 294 125 282 150 310 b 132 317 175 310 153 326 l 132 536 b 208 561 151 521 185 535 b 194 319 181 488 119 388 b 224 553 146 393 196 492 b 204 689 233 576 257 690 z "},"j":{"ha":376,"x_min":0,"x_max":0,"o":"m 297 229 b 333 294 293 285 307 310 b 292 315 331 310 313 326 l 292 483 b 328 628 292 582 326 563 b 249 654 329 696 250 696 b 268 635 249 644 257 635 b 288 653 278 635 288 643 b 269 672 288 664 279 672 b 314 628 268 674 315 686 b 118 715 311 553 108 593 b -12 546 88 606 71 547 b 18 457 10 532 17 499 l 18 381 b -3 325 18 349 8 333 b 164 517 103 325 115 506 b 106 469 135 518 114 485 l 106 558 b 263 546 143 522 231 519 b 172 471 247 513 172 513 b 203 411 197 501 203 424 l 204 315 b 161 294 182 326 165 310 b 206 235 186 308 201 289 b 283 0 211 142 231 83 b 208 -121 274 -19 242 -74 b 82 71 167 -67 83 3 b 136 181 81 107 101 164 b 175 175 151 189 167 189 b 133 190 174 192 151 197 b -19 35 74 168 56 58 b 171 -250 -21 -56 125 -150 b 390 71 201 -196 342 54 b 297 229 329 78 306 157 z m 201 650 b 256 750 169 688 229 739 b 222 831 219 765 167 800 b 122 753 168 824 161 764 b 201 650 222 736 164 678 z "},"k":{"ha":401,"x_min":0,"x_max":0,"o":"m 382 250 b 347 185 382 213 371 185 b 321 214 332 186 325 199 b 364 294 311 282 335 310 b 317 317 360 310 339 326 l 317 432 b 322 485 318 454 319 471 b 183 425 285 447 225 467 b 354 628 218 493 351 522 b 275 654 356 696 276 696 b 294 635 275 644 283 635 b 314 653 304 635 313 643 b 296 672 314 664 306 672 b 339 628 294 674 342 686 b 253 613 339 589 281 588 b 199 732 219 640 196 696 b 132 536 178 668 149 607 l 132 715 b 143 972 132 758 132 872 b 14 804 114 863 97 804 b 43 714 36 789 42 756 l 43 315 b 0 294 22 326 3 310 b 42 214 28 310 42 283 b 25 175 40 194 36 182 b 163 0 122 149 147 79 b 197 250 176 78 213 176 b 163 185 197 213 185 185 b 132 258 135 186 132 226 l 132 367 b 176 581 132 449 157 533 b 164 425 224 492 210 521 b 196 292 140 378 140 321 b 175 339 176 311 171 326 b 292 408 188 392 279 357 b 229 332 292 363 229 361 l 229 258 b 211 175 228 211 229 186 b 347 0 308 149 332 79 b 382 250 363 78 399 176 z "},"l":{"ha":215,"x_min":0,"x_max":0,"o":"m 197 250 b 163 185 197 213 185 185 b 133 226 140 186 136 208 b 178 294 128 285 151 310 b 132 317 174 314 143 328 l 132 715 b 143 972 132 758 133 872 b 14 804 114 863 97 804 b 43 714 36 789 42 756 l 43 315 b 0 294 22 326 3 310 b 42 214 28 310 42 283 b 25 175 40 194 38 182 b 163 0 122 149 147 79 b 197 250 176 78 213 176 z "},"m":{"ha":538,"x_min":0,"x_max":0,"o":"m 483 185 b 419 303 458 186 433 239 b 439 297 428 301 433 299 b 468 389 536 274 553 389 b 443 336 536 361 492 324 b 413 347 433 339 424 343 b 422 472 407 394 408 442 b 490 628 447 531 489 579 b 411 656 492 694 414 696 b 429 635 410 644 419 635 b 449 653 440 635 449 643 b 432 672 450 664 442 672 b 475 628 431 674 476 686 b 326 651 474 554 360 574 b 251 654 311 692 251 693 b 269 635 250 644 258 635 b 289 653 279 635 289 643 b 271 672 289 664 282 672 b 315 628 269 674 317 686 b 132 715 313 558 132 582 b 14 546 113 644 107 547 b 44 457 38 532 43 499 l 44 392 l 44 315 b 0 294 22 326 3 310 b 43 214 28 310 43 283 b 26 175 42 194 38 182 b 163 0 124 149 147 79 b 204 169 172 53 194 113 b 324 0 286 140 308 75 b 365 169 333 51 356 113 b 483 0 447 140 469 75 b 518 250 497 78 533 176 b 483 185 518 213 506 185 z m 174 471 b 204 411 192 493 204 453 l 204 401 b 161 300 164 388 146 347 b 204 350 163 324 179 344 l 204 253 b 163 185 204 228 196 185 b 132 258 135 186 132 226 l 132 556 b 264 546 169 526 236 522 b 174 471 247 508 174 507 z m 324 185 b 294 235 299 186 296 217 b 339 294 292 288 314 308 b 293 317 336 310 314 326 l 293 340 b 342 326 310 336 326 331 b 364 233 351 293 361 260 b 324 185 360 204 343 185 z m 356 500 b 329 382 319 476 319 431 b 293 394 317 386 304 390 l 293 483 b 307 556 293 514 300 538 b 425 546 326 524 389 517 b 356 500 414 521 376 510 z "},"n":{"ha":413,"x_min":0,"x_max":0,"o":"m 393 250 b 360 185 393 213 382 185 b 314 240 343 186 326 208 b 339 294 299 282 315 308 b 293 317 335 310 314 326 b 297 472 282 372 281 435 b 365 628 322 531 364 579 b 286 656 367 694 289 696 b 306 635 286 644 294 635 b 325 653 315 635 324 643 b 307 672 325 664 317 672 b 351 628 306 674 353 686 b 132 715 349 553 164 633 b 14 546 103 606 99 547 b 44 457 38 532 43 499 l 44 315 b 0 294 22 326 4 310 b 43 214 29 310 43 283 b 26 175 42 194 38 182 b 163 0 124 149 147 79 b 206 249 176 78 221 175 b 163 185 206 211 186 185 b 136 214 147 186 140 199 b 178 294 125 282 150 310 b 132 317 175 310 154 326 l 132 558 b 300 546 174 529 268 519 b 231 500 289 521 251 510 b 219 318 181 467 200 390 b 189 294 204 319 192 307 b 235 260 210 307 226 294 b 240 215 239 244 240 231 b 222 175 240 197 235 183 b 360 0 319 149 343 79 b 393 250 374 78 410 176 z "},"o":{"ha":389,"x_min":0,"x_max":0,"o":"m 361 294 b 318 317 358 310 339 326 l 318 483 b 354 628 318 582 353 563 b 276 654 356 696 276 696 b 294 635 275 644 283 635 b 314 653 304 635 314 643 b 296 672 314 664 307 672 b 340 628 294 674 342 686 b 144 715 338 553 135 593 b 14 546 114 606 97 547 b 44 457 38 532 43 499 l 44 317 b 0 294 22 326 3 310 b 43 214 28 310 46 282 b 26 175 40 194 38 182 b 197 0 124 149 182 79 b 338 175 215 75 240 100 b 319 214 326 185 321 197 b 361 294 314 283 333 310 z m 199 471 b 229 422 221 497 229 435 l 229 317 b 186 294 208 326 189 310 b 229 231 213 310 229 286 b 197 71 228 178 222 101 b 135 214 171 110 143 149 b 175 294 128 282 147 310 b 132 317 172 310 153 326 l 132 558 b 289 546 169 522 257 519 b 199 471 274 513 199 513 z "},"p":{"ha":388,"x_min":0,"x_max":0,"o":"m 360 294 b 317 317 357 310 338 326 l 317 483 b 353 628 317 582 351 563 b 275 654 356 696 276 696 b 293 635 275 644 282 635 b 313 653 303 635 313 643 b 296 672 313 664 306 672 b 339 628 293 674 340 686 b 143 715 336 553 133 593 b 13 546 114 606 96 547 b 43 457 36 532 42 499 l 43 317 b 0 294 22 326 3 310 b 43 214 28 310 43 282 l 43 0 b 25 -83 42 -47 43 -72 b 161 -258 122 -110 146 -179 b 196 -8 175 -181 211 -82 b 161 -74 196 -46 183 -74 b 131 0 133 -72 131 -32 l 131 118 b 196 0 165 85 188 44 b 336 175 214 75 240 100 b 318 214 325 185 319 197 b 360 294 313 283 332 310 z m 197 471 b 228 422 219 497 228 435 l 228 317 b 185 294 207 326 189 310 b 228 231 211 310 228 286 b 196 71 228 178 221 101 b 133 214 169 110 142 149 b 175 294 128 283 146 310 b 131 317 171 310 153 326 l 131 558 b 288 546 168 522 256 519 b 197 471 274 513 197 513 z "},"q":{"ha":383,"x_min":0,"x_max":0,"o":"m 383 -8 b 349 -74 383 -46 371 -74 b 318 0 321 -72 318 -32 l 318 219 b 360 294 318 283 333 310 b 318 317 357 310 339 326 l 318 483 b 354 628 318 582 353 563 b 276 654 357 696 278 696 b 294 635 276 644 285 635 b 314 653 306 635 314 643 b 297 672 314 664 307 672 b 340 628 294 674 342 686 b 144 715 339 553 135 593 b 14 546 115 606 99 547 b 44 457 38 532 43 499 l 44 317 b 0 294 24 326 4 310 b 26 175 51 324 56 193 b 197 0 124 149 182 79 b 231 76 206 32 214 56 l 231 0 b 213 -83 229 -47 231 -72 b 349 -258 310 -110 333 -179 b 383 -8 363 -181 399 -82 z m 199 471 b 231 422 221 497 229 435 l 231 317 b 189 294 210 326 192 310 b 229 224 231 318 231 249 b 197 71 228 171 221 100 b 135 214 172 110 144 149 b 176 294 129 282 149 310 b 132 317 172 310 154 326 l 132 558 b 290 546 169 522 257 519 b 199 471 275 513 199 513 z "},"r":{"ha":343,"x_min":0,"x_max":0,"o":"m 342 369 b 315 376 336 354 321 358 b 307 558 308 403 307 463 l 307 624 b 318 715 307 664 326 683 b 188 611 307 656 188 665 b 211 601 200 624 207 614 b 132 446 228 551 160 510 l 132 715 b 14 546 103 606 97 547 b 43 457 36 532 42 499 l 43 317 b 0 294 22 326 3 310 b 42 214 42 318 44 244 b 25 175 40 194 36 182 b 163 0 122 149 147 79 b 204 249 176 78 219 175 b 163 185 204 211 185 185 b 133 226 140 186 136 208 b 178 294 128 285 151 310 b 132 317 175 310 153 326 l 132 349 b 204 358 151 318 204 329 b 186 378 204 364 197 376 b 167 358 176 378 167 367 b 174 343 167 350 169 347 b 144 396 160 338 144 365 b 219 538 144 451 188 489 l 219 389 b 204 267 219 331 204 314 b 342 369 221 344 343 324 z "},"s":{"ha":389,"x_min":0,"x_max":0,"o":"m 361 294 b 318 317 358 310 339 326 l 318 449 l 264 449 b 199 468 246 449 221 454 b 315 628 246 514 319 557 b 238 654 318 696 238 696 b 256 635 236 644 244 635 b 275 653 265 635 275 643 b 257 672 275 664 268 672 b 301 628 256 674 303 686 b 144 715 299 558 143 582 b 25 546 125 643 118 547 b 56 457 49 532 54 499 l 56 421 b 140 422 69 425 106 426 b 136 393 138 413 136 403 b 179 331 136 360 150 332 b 221 358 196 329 221 339 b 203 378 221 364 213 376 b 183 358 192 378 183 367 b 190 343 183 350 186 347 b 160 396 176 338 160 365 b 164 417 160 403 161 410 b 229 358 200 408 229 390 l 229 317 b 188 294 208 326 190 310 b 229 233 214 308 229 288 b 197 71 228 181 222 101 b 132 258 165 117 132 165 l 132 285 b 154 294 132 301 143 317 b 99 349 156 322 126 336 b 15 449 60 367 14 386 b 39 318 -3 388 28 372 b 0 294 19 325 3 308 b 43 214 44 319 44 239 b 26 175 40 194 38 182 b 197 0 122 149 181 79 b 338 175 215 75 240 100 b 319 214 325 185 321 197 b 361 294 314 283 333 310 z m 175 483 b 144 546 158 500 144 521 b 222 526 164 531 193 524 b 175 483 206 514 190 500 z "},"t":{"ha":238,"x_min":0,"x_max":0,"o":"m 163 185 b 132 258 135 186 132 226 l 132 324 b 164 299 139 310 149 299 b 183 318 174 299 182 307 b 164 338 183 328 175 336 b 147 328 157 338 151 333 b 292 701 97 451 293 593 b 265 746 292 717 285 746 b 246 728 254 746 246 738 b 264 708 246 717 254 708 b 278 713 269 708 274 710 b 235 608 281 679 261 644 l 132 608 l 132 832 b 144 972 136 858 138 897 b 14 804 114 863 97 804 b 44 714 38 789 43 756 l 44 608 l -19 519 l 44 519 l 44 315 b 0 294 22 326 3 310 b 43 214 28 310 43 283 b 26 175 40 194 38 182 b 163 0 122 149 147 79 b 197 250 176 78 213 176 b 163 185 197 213 185 185 z m 132 519 l 168 519 b 132 456 154 499 140 478 l 132 519 z "},"u":{"ha":401,"x_min":0,"x_max":0,"o":"m 382 250 b 349 185 382 213 371 185 b 319 231 325 186 321 213 b 364 294 315 286 338 310 b 318 314 360 314 332 328 l 318 574 b 306 746 318 604 354 746 b 286 728 294 746 286 738 b 304 708 285 717 293 708 b 317 713 308 708 314 710 b 160 414 326 624 176 528 b 203 299 156 383 161 300 b 222 318 214 299 222 307 b 204 338 222 328 214 336 b 188 328 197 338 190 333 b 229 503 164 383 193 443 l 229 249 b 197 71 229 196 225 104 b 135 214 171 110 143 149 b 175 294 128 282 147 310 b 132 317 172 310 153 326 l 132 715 b 14 546 103 606 97 547 b 43 457 36 532 43 499 l 43 317 b 0 294 22 326 3 310 b 43 214 28 310 46 282 b 26 175 40 194 38 182 b 197 0 122 149 181 79 b 256 158 210 54 229 97 b 349 0 317 125 335 65 b 382 250 363 78 399 176 z "},"v":{"ha":400,"x_min":0,"x_max":0,"o":"m 339 318 b 318 510 338 374 322 436 b 235 694 315 574 326 694 b 254 521 285 685 308 581 l 196 467 b 256 317 236 435 254 378 b 206 294 235 326 210 310 b 247 218 233 310 260 283 b 197 71 238 160 218 107 b 135 214 171 110 143 149 b 175 294 128 282 147 310 b 132 317 172 310 153 326 l 132 349 b 204 358 153 318 204 329 b 186 378 206 364 197 376 b 167 358 176 378 167 367 b 174 343 167 350 169 347 b 144 396 160 338 144 365 b 250 628 144 481 247 526 b 171 656 251 699 174 697 b 189 635 171 644 179 635 b 208 653 200 635 208 643 b 192 672 210 664 201 672 b 235 628 190 674 238 686 b 189 585 235 604 213 585 b 143 715 144 585 140 667 b 14 546 114 606 97 547 b 43 457 36 532 43 499 l 43 317 b 0 294 22 326 3 310 b 42 214 28 310 46 282 b 25 175 40 194 38 182 b 197 0 122 149 181 79 b 292 175 214 71 264 144 b 319 217 303 189 313 203 b 372 293 346 265 346 308 b 339 318 371 306 356 319 z m 132 539 b 201 544 149 524 176 526 b 132 447 181 514 149 486 l 132 539 z "},"w":{"ha":592,"x_min":0,"x_max":0,"o":"m 564 294 b 521 317 561 310 542 326 l 521 644 b 535 701 529 664 535 683 b 519 742 535 714 531 733 b 508 746 517 744 513 746 b 489 728 497 746 489 738 b 507 708 489 717 497 708 b 519 713 513 708 517 710 b 363 414 529 624 379 528 b 406 299 358 383 365 300 b 425 318 417 299 425 307 b 407 338 426 328 418 336 b 390 328 400 338 394 333 b 433 503 368 383 396 443 l 433 249 b 400 71 433 196 428 104 b 318 510 367 121 324 415 b 235 694 315 574 326 694 b 254 521 285 685 308 581 l 196 467 b 256 317 238 435 254 378 b 207 294 235 326 210 310 b 249 221 233 310 258 283 b 197 71 239 163 218 107 b 135 214 171 110 143 149 b 176 294 129 282 147 310 b 132 317 172 310 154 326 l 132 349 b 206 358 153 318 204 329 b 188 378 206 364 197 376 b 168 358 176 378 168 367 b 175 343 167 350 169 347 b 144 396 161 338 144 365 b 250 628 144 481 247 526 b 172 656 251 699 174 697 b 190 635 171 644 179 635 b 210 653 200 635 210 643 b 192 672 210 664 201 672 b 236 628 190 674 238 686 b 189 585 235 604 213 585 b 144 715 144 585 140 667 b 14 546 115 606 97 547 b 44 457 38 532 43 499 l 44 317 b 0 294 22 326 4 310 b 43 214 28 310 46 282 b 26 175 42 194 38 182 b 197 0 124 149 182 79 b 292 175 214 71 264 144 b 400 0 314 175 385 79 b 542 175 418 75 444 100 b 522 214 529 185 524 197 b 564 294 517 283 536 310 z m 132 539 b 201 544 150 524 178 526 b 132 447 182 514 149 486 l 132 539 z "},"x":{"ha":376,"x_min":0,"x_max":0,"o":"m 332 469 l 332 589 b 338 658 332 613 336 636 b 336 694 340 672 336 696 b 313 715 332 707 325 714 b 293 696 303 715 293 707 b 311 676 293 686 304 678 b 324 682 319 676 321 679 b 196 475 329 639 267 568 l 196 715 b 78 546 167 606 161 547 b 107 457 100 532 106 499 l 107 417 b 54 546 39 442 -1 494 b 26 300 -37 514 39 353 b 85 315 44 318 61 315 b 6 114 49 253 19 186 b 49 0 -7 47 7 1 b 68 18 58 -1 68 8 b 50 38 68 29 58 38 b 33 29 40 38 36 35 b 107 294 14 107 51 201 l 107 258 b 89 175 107 211 107 186 b 226 0 186 149 210 79 b 268 249 240 78 283 175 b 226 185 268 211 249 185 b 199 214 211 186 203 199 b 239 294 189 282 211 310 b 196 317 236 310 217 326 l 196 428 b 242 492 211 450 226 471 b 243 381 246 457 243 415 b 224 325 243 349 235 333 b 390 517 329 325 342 506 b 332 469 361 518 340 485 z "},"y":{"ha":401,"x_min":0,"x_max":0,"o":"m 374 93 b 325 204 347 118 333 161 b 367 294 321 233 318 321 b 317 317 364 310 339 326 l 317 574 b 331 701 317 621 332 660 b 304 746 331 742 318 746 b 285 728 294 746 285 738 b 303 708 285 717 293 708 b 317 713 308 708 313 710 b 160 414 326 624 175 528 b 203 299 156 383 160 300 b 222 318 213 299 221 307 b 203 338 222 328 214 336 b 186 328 196 338 190 333 b 229 503 164 383 192 443 l 229 249 b 196 71 229 196 224 104 b 144 168 178 100 157 128 b 161 181 150 174 156 178 b 200 175 176 189 193 189 b 158 190 199 192 176 197 b 140 179 153 189 147 185 b 133 214 138 190 136 201 b 175 294 128 282 147 310 b 131 317 172 310 153 326 l 132 715 b 14 546 101 606 97 547 b 43 457 36 532 42 499 l 43 317 b 0 294 22 326 3 310 b 42 214 28 310 46 282 b 25 175 40 194 36 182 b 106 139 56 167 82 154 b 51 63 85 111 65 79 b 6 35 38 47 19 39 b 196 -250 4 -56 151 -150 b 415 71 226 -196 367 54 b 374 93 399 74 381 86 z m 233 -121 b 107 71 193 -67 108 3 b 119 128 107 88 111 108 b 196 0 161 94 186 49 b 254 106 207 46 222 74 b 308 0 265 72 283 40 b 233 -121 300 -19 268 -74 z "},"z":{"ha":376,"x_min":0,"x_max":0,"o":"m 306 246 b 349 294 307 290 325 308 b 303 317 344 310 325 326 l 304 390 b 324 444 304 422 313 438 b 157 254 218 444 206 265 b 215 300 186 251 207 285 b 189 186 215 233 215 193 b 118 156 164 183 136 174 b 129 276 106 199 94 225 l 324 574 b 340 628 335 590 340 608 b 261 654 342 696 263 696 b 281 635 261 644 269 635 b 300 653 290 635 299 643 b 282 672 300 664 292 672 b 326 628 281 674 328 686 b 129 715 324 553 121 593 b 0 546 100 606 83 547 b 29 457 22 532 28 499 l 29 381 b 8 325 29 349 21 333 b 176 517 115 325 128 506 b 118 469 147 518 126 485 l 118 560 b 264 533 149 529 213 518 l 83 264 b 0 175 68 240 29 185 b 129 0 83 175 100 108 b 132 31 131 11 132 21 b 326 88 156 128 324 156 b 282 42 326 46 301 35 b 300 61 292 43 300 51 b 281 79 299 72 290 81 b 261 60 269 79 261 69 b 340 88 264 18 342 19 b 306 246 339 140 313 171 z "},"A":{"ha":865,"x_min":0,"x_max":0,"o":"m 832 -65 b 800 8 803 -64 800 -24 l 800 214 b 843 294 800 282 815 310 b 800 317 840 310 822 326 l 800 608 b 901 893 800 821 886 799 b 554 546 826 754 554 811 l 554 -140 b 517 -165 540 -146 528 -154 l 517 546 b 643 779 517 657 543 725 b 465 911 554 774 490 828 b 378 1042 450 964 463 1042 b 357 919 292 1043 301 919 b 383 946 371 919 383 932 b 357 974 383 961 371 974 b 332 956 344 974 335 967 b 376 1029 319 982 335 1026 b 440 953 422 1033 446 994 b 189 769 425 826 292 792 b 188 514 14 732 33 525 b 324 546 225 513 299 522 b 193 533 294 535 239 525 b 197 706 82 554 92 681 b 385 676 249 718 315 711 b 464 786 408 694 446 721 b 339 561 471 654 350 656 b 429 521 369 596 429 581 l 429 401 b 200 275 335 528 128 435 b 429 199 232 394 422 404 l 429 -110 b 328 -6 406 -65 369 -31 b 397 179 374 51 397 119 b 225 225 397 358 225 326 b 296 144 225 188 257 144 b 322 171 311 144 322 157 b 296 197 322 186 311 197 b 271 163 278 197 265 179 b 235 225 250 175 235 199 b 382 178 235 308 382 343 b 138 -82 382 69 292 -68 b 8 31 63 -87 8 -51 b 196 71 8 167 196 171 b 174 0 196 51 190 28 b 208 71 196 25 208 49 b -56 33 208 222 -56 219 b 140 -111 -56 -79 42 -124 b 560 -383 426 -76 368 -357 b 643 -326 606 -389 638 -357 b 579 -246 649 -289 625 -240 b 556 -272 565 -247 556 -258 b 582 -299 556 -286 567 -299 b 608 -268 597 -299 610 -285 b 632 -324 625 -279 635 -303 b 561 -372 626 -358 592 -378 b 636 -153 410 -347 511 -118 b 578 -132 628 -137 606 -124 l 578 214 b 619 294 578 282 592 310 b 578 317 617 310 599 326 l 578 392 l 713 392 l 713 317 b 671 294 692 326 674 310 b 713 214 699 310 713 282 l 713 8 b 694 -75 713 -39 713 -64 b 832 -250 792 -101 815 -171 b 865 0 846 -172 882 -74 b 832 -65 865 -37 854 -65 z m 713 608 l 713 472 l 578 472 l 578 546 b 732 746 578 694 690 733 b 713 608 724 725 713 704 z "},"B":{"ha":886,"x_min":0,"x_max":0,"o":"m 868 -11 b 801 71 818 7 801 -1 l 801 214 b 844 294 801 282 815 310 b 801 317 840 310 822 326 b 901 597 803 522 888 503 b 717 479 861 519 778 514 b 603 389 675 454 632 424 b 882 674 672 500 853 561 b 854 754 888 699 892 754 b 828 728 839 754 828 743 b 854 701 828 714 839 701 b 868 706 860 701 864 703 b 808 599 867 663 836 617 b 744 788 758 639 750 750 b 556 546 708 778 556 724 l 556 -46 b 518 -83 543 -57 529 -69 l 518 546 b 644 779 518 657 543 725 b 467 911 556 774 490 828 b 379 1042 451 964 463 1042 b 357 919 293 1043 303 919 b 383 946 372 919 383 932 b 357 974 383 961 372 974 b 332 956 346 974 336 967 b 376 1029 321 982 335 1026 b 442 953 422 1033 447 994 b 190 769 426 826 293 792 b 189 514 14 732 35 525 b 325 546 226 513 299 522 b 194 533 296 535 240 525 b 199 706 82 554 92 681 b 386 676 249 718 317 711 b 465 786 408 694 447 721 b 340 561 472 654 351 656 b 429 521 371 596 429 581 l 429 401 b 200 275 335 528 129 435 b 429 199 233 394 424 404 l 429 -110 b 329 -6 407 -65 371 -31 b 399 179 374 51 399 119 b 226 225 399 358 226 326 b 297 144 226 188 257 144 b 324 171 313 144 324 157 b 297 197 324 186 311 197 b 272 163 279 197 267 179 b 236 225 250 175 236 199 b 383 178 236 308 383 343 b 139 -82 383 69 293 -68 b 10 31 63 -87 10 -51 b 197 71 10 167 197 171 b 174 0 197 51 190 28 b 210 71 197 25 210 49 b -56 33 210 222 -56 219 b 142 -111 -56 -79 43 -124 b 561 -383 426 -76 368 -357 b 643 -326 606 -389 639 -357 b 579 -246 650 -289 626 -240 b 556 -272 567 -247 556 -258 b 582 -299 556 -286 568 -299 b 608 -268 599 -299 611 -285 b 632 -324 625 -279 636 -303 b 563 -372 626 -358 592 -378 b 636 -153 410 -347 511 -118 b 544 -144 619 -118 572 -131 b 813 -31 599 -69 693 -10 b 824 -240 938 -50 917 -240 b 767 -106 735 -240 713 -146 b 826 -286 688 -124 674 -287 b 868 -11 971 -285 1022 -71 z m 579 546 b 664 726 579 668 649 715 b 735 546 669 676 682 572 b 579 390 674 496 607 451 l 579 546 z m 714 317 b 671 294 693 326 674 310 b 714 214 699 310 714 282 l 714 53 b 579 -26 671 36 624 10 l 579 214 b 621 294 579 282 593 310 b 585 319 618 308 603 322 b 733 449 611 379 689 426 b 714 317 725 429 714 408 z "},"C":{"ha":743,"x_min":0,"x_max":0,"o":"m 653 114 b 564 61 624 114 564 99 b 590 35 564 46 575 35 b 617 61 604 35 617 50 b 607 82 617 72 613 76 b 793 -61 703 118 793 31 b 674 -183 793 -122 747 -183 b 440 -26 596 -183 503 -143 l 440 214 b 483 294 440 282 456 310 b 440 317 481 310 461 326 l 440 546 b 471 668 440 597 453 636 b 554 700 483 689 522 724 b 722 617 617 656 654 632 b 529 228 661 539 471 343 b 697 175 568 242 649 142 b 750 607 499 208 689 524 b 813 781 788 656 814 711 b 779 831 811 803 806 831 b 751 803 764 831 751 819 b 778 776 751 789 763 776 b 792 781 781 776 789 778 b 779 717 792 758 786 736 b 607 788 710 721 676 733 b 418 546 571 778 418 724 l 418 24 b 372 315 390 96 372 192 l 372 544 b 499 779 372 694 436 728 b 163 1042 322 768 360 1042 b 0 878 57 1042 0 963 b 163 715 0 788 72 715 b 189 742 178 715 189 726 b 163 768 189 756 178 768 b 139 731 143 768 131 749 b 15 881 74 739 15 803 b 161 1029 15 960 75 1029 b 303 781 271 1029 322 904 b 194 561 283 671 196 615 b 283 521 225 596 283 581 l 283 411 b 63 275 186 522 -7 429 b 290 190 92 379 253 347 b 144 294 260 253 207 301 b 117 179 85 289 67 211 b 203 206 143 161 203 167 b 176 232 203 219 190 232 b 149 206 161 232 149 219 b 169 179 149 193 158 182 b 121 185 154 174 136 175 b 144 283 81 211 92 279 b 278 -8 264 293 338 103 b 150 -44 250 -60 204 -79 b 204 94 61 14 139 136 b 240 50 217 86 229 72 b 210 103 233 75 224 93 b 122 -85 111 167 0 -6 b 299 -19 194 -133 265 -89 b 318 65 311 6 317 35 b 653 -236 385 -150 538 -236 b 826 -61 768 -236 826 -143 b 653 114 826 56 728 114 z "},"D":{"ha":947,"x_min":0,"x_max":0,"o":"m 900 -29 b 822 4 874 -11 840 0 b 894 254 919 63 921 151 b 919 294 890 292 899 307 b 876 317 917 310 897 326 b 856 378 876 317 858 371 b 804 674 818 485 792 563 b 901 893 819 817 888 810 b 554 546 829 758 554 808 l 554 544 l 554 -46 b 517 -83 542 -57 529 -69 l 517 546 b 643 779 517 657 543 725 b 465 911 554 774 490 828 b 378 1042 450 964 463 1042 b 357 919 292 1043 301 919 b 383 946 371 919 383 932 b 357 974 383 961 371 974 b 332 956 344 974 335 967 b 376 1029 319 982 335 1026 b 440 953 422 1033 446 994 b 189 769 425 826 292 792 b 188 514 14 732 33 525 b 324 546 225 513 299 522 b 193 533 294 535 239 525 b 197 706 82 554 92 681 b 385 676 247 718 315 711 b 464 786 407 694 446 721 b 339 561 471 654 350 656 b 429 521 369 596 429 581 l 429 401 b 199 275 335 528 128 435 b 429 199 232 394 422 404 l 429 -110 b 328 -6 406 -65 369 -31 b 397 179 374 51 397 119 b 225 225 397 358 225 326 b 296 144 225 188 257 144 b 322 171 311 144 322 157 b 296 197 322 186 311 197 b 271 163 278 197 265 179 b 235 225 250 175 235 199 b 382 178 235 308 382 343 b 138 -82 382 69 292 -68 b 8 31 61 -87 8 -51 b 196 71 8 167 196 171 b 174 0 196 51 190 28 b 208 71 196 25 208 49 b -56 33 208 222 -56 219 b 140 -111 -56 -79 42 -124 b 560 -383 426 -76 368 -357 b 643 -326 606 -389 638 -357 b 579 -246 649 -289 625 -240 b 556 -272 565 -247 556 -258 b 582 -299 556 -286 567 -299 b 608 -268 597 -299 610 -285 b 632 -324 624 -279 635 -303 b 561 -372 626 -358 592 -378 b 486 -307 515 -365 493 -339 b 494 -240 488 -283 490 -261 b 636 -153 517 -185 574 -135 b 544 -144 618 -118 571 -131 b 813 -31 597 -69 692 -10 b 822 -240 936 -50 915 -240 b 765 -106 735 -240 713 -146 b 825 -286 686 -124 672 -287 b 900 -29 958 -285 1013 -104 z m 578 -26 l 578 214 b 619 294 578 282 592 310 b 578 317 617 310 599 326 l 578 546 b 732 746 578 694 690 733 b 783 317 678 618 740 443 b 742 294 763 326 744 310 b 810 228 768 310 794 283 b 578 -26 849 46 699 71 z "},"E":{"ha":715,"x_min":0,"x_max":0,"o":"m 653 114 b 564 61 624 114 564 99 b 590 35 564 46 575 35 b 617 61 604 35 617 50 b 607 82 617 72 613 76 b 793 -61 703 118 793 31 b 674 -183 793 -122 747 -183 b 440 -26 596 -183 503 -143 l 440 214 b 483 294 440 282 456 310 b 440 317 481 310 461 326 l 440 383 l 596 383 b 506 192 528 301 499 213 b 631 129 538 199 568 108 b 678 468 467 154 640 393 b 675 565 694 500 699 532 b 661 472 688 535 679 503 l 490 472 b 767 781 596 608 771 596 b 733 831 765 803 758 831 b 706 803 718 831 706 819 b 732 776 706 789 717 776 b 746 781 738 776 742 778 b 735 717 747 753 746 733 b 607 788 703 694 656 744 b 418 546 571 778 418 724 l 418 24 b 372 315 390 96 372 192 l 372 544 b 499 779 372 694 436 728 b 163 1042 322 768 361 1042 b 0 878 57 1042 0 963 b 163 715 0 788 72 715 b 189 742 178 715 189 726 b 163 768 189 756 178 768 b 139 731 143 768 131 749 b 15 881 74 739 15 803 b 161 1029 15 960 75 1029 b 303 781 271 1029 322 904 b 194 561 283 671 196 615 b 283 521 225 596 283 581 l 283 411 b 63 275 186 522 -7 429 b 290 190 92 379 253 347 b 144 294 260 253 207 301 b 117 179 85 289 67 211 b 203 206 143 161 203 167 b 176 232 203 219 190 232 b 149 206 161 232 149 219 b 169 179 149 193 158 182 b 121 185 154 174 136 175 b 144 283 81 211 92 279 b 278 -8 265 293 338 103 b 150 -44 250 -60 204 -79 b 204 94 61 14 139 136 b 240 50 217 86 229 72 b 210 103 233 75 224 93 b 122 -85 111 167 0 -6 b 299 -19 194 -133 265 -89 b 318 65 311 6 317 35 b 653 -236 385 -150 538 -236 b 826 -61 768 -236 826 -143 b 653 114 826 56 728 114 z m 440 546 b 563 696 440 599 490 749 b 654 631 621 654 621 642 b 440 442 557 572 504 543 l 440 546 z "},"F":{"ha":840,"x_min":0,"x_max":0,"o":"m 904 781 b 871 831 903 803 896 831 b 843 803 856 831 843 819 b 869 776 843 789 854 776 b 883 781 874 776 879 778 b 872 717 885 753 883 733 b 744 788 840 694 793 744 b 556 546 708 778 556 724 l 556 -140 b 518 -165 542 -146 528 -154 l 518 546 b 643 779 518 657 543 725 b 467 911 556 774 490 828 b 379 1042 451 964 463 1042 b 357 919 293 1043 303 919 b 383 946 372 919 383 932 b 357 974 383 961 372 974 b 332 956 346 974 336 967 b 376 1029 321 982 335 1026 b 442 953 422 1033 446 994 b 190 769 425 826 293 792 b 189 514 14 732 35 525 b 325 546 225 513 299 522 b 194 533 296 535 240 525 b 199 706 82 554 92 681 b 386 676 249 718 317 711 b 464 786 408 694 447 721 b 340 561 472 654 351 656 b 429 521 371 596 429 581 l 429 401 b 200 275 335 528 129 435 b 429 199 233 394 422 404 l 429 -110 b 328 -6 407 -65 371 -31 b 399 179 374 51 399 119 b 226 225 399 358 226 326 b 297 144 226 188 257 144 b 324 171 313 144 324 157 b 297 197 324 186 311 197 b 272 163 278 197 265 179 b 236 225 250 175 236 199 b 383 178 236 308 383 343 b 139 -82 383 69 292 -68 b 8 31 63 -87 8 -51 b 196 71 8 167 196 171 b 174 0 196 51 190 28 b 208 71 196 25 208 49 b -56 33 208 222 -56 219 b 142 -111 -56 -79 43 -124 b 560 -383 426 -76 368 -357 b 643 -326 606 -389 638 -357 b 579 -246 650 -289 625 -240 b 556 -272 567 -247 556 -258 b 582 -299 556 -286 568 -299 b 608 -268 599 -299 611 -285 b 632 -324 625 -279 636 -303 b 563 -372 626 -358 592 -378 b 636 -153 410 -347 511 -118 b 578 -132 629 -137 606 -124 l 578 214 b 621 294 578 282 593 310 b 578 317 618 310 599 326 l 578 383 l 733 383 b 643 192 665 301 636 213 b 768 129 675 199 706 108 b 815 468 604 154 778 393 b 813 565 832 500 835 532 b 799 472 825 535 817 503 l 628 472 b 904 781 733 608 908 596 z m 578 442 l 578 546 b 700 696 578 599 628 749 b 792 631 758 654 758 642 b 578 442 694 572 642 543 z "},"G":{"ha":831,"x_min":0,"x_max":0,"o":"m 743 88 l 743 214 b 786 294 743 282 758 310 b 744 317 783 310 765 326 b 844 597 746 522 829 503 b 614 444 796 506 686 514 b 813 781 699 560 817 635 b 782 831 813 801 806 829 b 751 803 767 831 751 821 b 778 776 751 789 764 776 b 793 781 781 776 789 778 b 781 717 792 758 788 736 b 608 788 710 721 678 733 b 418 546 571 778 418 724 l 418 24 b 372 315 390 96 372 192 l 372 544 b 499 779 372 694 436 728 b 164 1042 322 768 361 1042 b 0 878 57 1042 0 963 b 164 715 0 788 72 715 b 190 742 178 715 190 726 b 164 768 190 756 178 768 b 139 731 144 768 132 749 b 17 881 74 739 17 803 b 161 1029 17 960 76 1029 b 303 781 272 1029 324 904 b 194 561 285 671 196 615 b 285 521 226 596 285 581 l 285 411 b 63 275 188 522 -6 429 b 290 190 92 379 253 347 b 146 294 261 253 208 301 b 117 179 85 289 68 211 b 203 206 144 161 203 167 b 176 232 203 219 192 232 b 150 206 161 232 150 219 b 169 179 150 193 158 182 b 121 185 154 174 136 175 b 146 283 81 211 93 279 b 279 -8 265 293 339 103 b 151 -44 250 -60 204 -79 b 204 94 63 14 140 136 b 240 50 218 86 229 72 b 210 103 233 75 224 93 b 122 -85 111 167 0 -6 b 300 -19 194 -133 265 -89 b 318 65 313 6 318 35 b 653 -236 386 -150 539 -236 b 828 -61 768 -236 828 -143 b 743 88 828 10 790 60 z m 675 -183 b 442 -26 596 -183 503 -143 l 442 214 b 483 294 442 282 456 310 b 442 317 481 310 463 326 l 442 546 b 472 668 442 597 453 636 b 556 700 483 689 522 724 b 722 617 618 656 654 632 b 510 269 671 550 471 347 b 638 246 549 283 589 213 b 575 271 610 246 589 256 b 675 449 526 346 619 419 b 656 311 667 428 656 407 l 656 114 b 564 61 625 114 564 100 b 590 35 564 46 576 35 b 617 61 606 35 617 50 b 607 82 617 72 614 76 b 793 -61 703 118 793 31 b 675 -183 793 -122 747 -183 z "},"H":{"ha":865,"x_min":0,"x_max":0,"o":"m 832 -65 b 801 8 804 -64 801 -24 l 801 214 b 843 294 801 282 815 310 b 801 317 840 310 822 326 b 847 546 806 479 833 460 b 800 483 832 517 818 499 b 715 472 781 472 758 472 l 646 472 b 578 400 629 444 606 421 l 578 546 b 628 692 578 606 597 653 b 692 700 646 706 669 715 b 776 635 715 683 742 650 b 722 546 751 611 729 583 b 900 781 776 633 903 665 b 869 831 900 801 893 829 b 839 803 854 831 839 821 b 867 776 839 789 851 776 b 881 781 868 776 878 778 b 861 717 883 756 875 735 b 744 788 792 726 772 764 b 554 546 708 778 554 735 l 554 -140 b 517 -165 540 -146 528 -154 l 517 546 b 643 779 517 657 543 725 b 465 911 556 774 490 828 b 378 1042 450 964 463 1042 b 357 919 292 1043 301 919 b 383 946 371 919 383 932 b 357 974 383 961 371 974 b 332 956 346 974 336 967 b 376 1029 321 982 335 1026 b 440 953 422 1033 446 994 b 189 769 425 826 293 792 b 189 514 14 732 33 525 b 324 546 225 513 299 522 b 193 533 294 535 240 525 b 197 706 82 554 92 681 b 386 676 249 718 315 711 b 464 786 408 694 447 721 b 339 561 471 654 351 656 b 429 521 371 596 429 581 l 429 401 b 200 275 335 528 128 435 b 429 199 232 394 422 404 l 429 -110 b 328 -6 406 -65 369 -31 b 399 179 374 51 399 119 b 226 225 399 358 226 326 b 296 144 226 188 257 144 b 322 171 311 144 322 157 b 296 197 322 186 311 197 b 271 163 278 197 265 179 b 235 225 250 175 235 199 b 383 178 235 308 383 343 b 138 -82 383 69 292 -68 b 8 31 63 -87 8 -51 b 196 71 8 167 196 171 b 174 0 196 51 190 28 b 208 71 196 25 208 49 b -56 33 208 222 -56 219 b 140 -111 -56 -79 42 -124 b 560 -383 426 -76 368 -357 b 643 -326 606 -389 638 -357 b 579 -246 649 -289 625 -240 b 556 -272 565 -247 556 -258 b 582 -299 556 -286 567 -299 b 608 -268 599 -299 610 -285 b 632 -324 625 -279 635 -303 b 561 -372 626 -358 592 -378 b 636 -153 410 -347 511 -118 b 578 -132 629 -137 606 -124 l 578 214 b 619 294 578 282 592 310 b 578 317 617 310 599 326 l 578 392 l 713 392 l 713 317 b 671 294 692 326 674 310 b 713 214 699 310 713 282 l 713 8 b 694 -75 713 -39 713 -64 b 832 -250 792 -101 815 -171 b 865 0 846 -172 882 -74 b 832 -65 865 -37 854 -65 z "},"I":{"ha":661,"x_min":0,"x_max":0,"o":"m 711 713 b 556 546 681 756 556 731 l 556 -140 b 518 -165 542 -146 528 -154 l 518 546 b 643 779 518 657 543 725 b 467 911 556 774 490 828 b 379 1042 451 964 463 1042 b 357 919 293 1043 303 919 b 383 946 372 919 383 932 b 357 974 383 961 372 974 b 332 956 346 974 336 967 b 376 1029 321 982 335 1026 b 442 953 422 1033 446 994 b 190 769 426 826 293 792 b 189 514 14 732 35 525 b 325 546 225 513 299 522 b 194 533 296 535 240 525 b 199 706 82 554 92 681 b 386 676 249 718 317 711 b 464 786 408 694 447 721 b 340 561 472 654 351 656 b 429 521 371 596 429 581 l 429 401 b 200 275 335 528 129 435 b 429 199 233 394 422 404 l 429 -110 b 328 -6 407 -65 371 -31 b 399 179 374 51 399 119 b 226 225 399 358 226 326 b 297 144 226 188 257 144 b 324 171 313 144 324 157 b 297 197 324 186 311 197 b 272 163 279 197 265 179 b 236 225 250 175 236 199 b 383 178 236 308 383 343 b 139 -82 383 69 292 -68 b 8 31 63 -87 8 -51 b 196 71 8 167 196 171 b 174 0 196 51 190 28 b 210 71 196 25 210 49 b -56 33 210 222 -56 219 b 142 -111 -56 -79 43 -124 b 560 -383 426 -76 368 -357 b 643 -326 606 -389 638 -357 b 579 -246 650 -289 625 -240 b 556 -272 567 -247 556 -258 b 582 -299 556 -286 568 -299 b 608 -268 599 -299 611 -285 b 632 -324 625 -279 636 -303 b 563 -372 626 -358 592 -378 b 636 -153 410 -347 511 -118 b 578 -132 629 -137 606 -124 l 578 214 b 621 294 578 282 593 310 b 578 317 618 310 599 326 l 578 546 b 675 717 578 653 631 717 b 664 694 668 711 664 704 b 690 668 664 679 676 668 b 717 694 706 668 717 679 b 711 713 717 701 715 707 z "},"J":{"ha":707,"x_min":0,"x_max":0,"o":"m 710 694 b 736 668 710 679 722 668 b 763 694 751 668 763 679 b 757 713 763 701 761 707 b 601 546 725 756 601 731 l 601 -132 b 564 -165 588 -140 575 -151 b 564 0 563 -151 563 -26 l 564 546 b 689 779 564 657 589 725 b 513 911 601 774 536 828 b 425 1042 497 964 508 1042 b 403 919 339 1043 349 919 b 429 946 418 919 429 932 b 403 974 429 961 418 974 b 378 956 392 974 382 967 b 422 1029 367 982 381 1026 b 488 953 468 1033 492 994 b 236 769 471 826 339 792 b 235 514 60 732 81 525 b 371 546 271 513 344 522 b 240 533 342 535 286 525 b 244 706 128 554 138 681 b 432 676 294 718 363 711 b 510 786 454 694 493 721 b 386 561 518 654 397 656 b 475 521 417 596 475 581 l 475 317 b 433 294 454 326 436 310 b 475 214 461 310 475 282 l 475 -257 b 367 -137 451 -218 413 -176 b 406 175 400 -33 417 71 b 299 -86 392 69 365 -24 b 244 -51 281 -74 263 -62 b 231 367 397 82 379 367 b 154 257 178 367 133 314 b 249 206 167 222 211 192 b 264 240 263 211 269 226 b 231 256 258 253 246 261 b 218 214 214 250 207 228 b 164 260 194 218 172 235 b 231 354 146 307 185 354 b 178 -61 367 354 390 38 b 18 -1 108 -93 46 -78 b 179 101 -29 128 144 194 b 183 29 186 83 189 60 b 192 106 194 60 199 86 b -44 -21 139 247 -108 154 b 65 -114 -22 -78 18 -107 b 475 -496 236 -137 447 -322 b 649 -135 494 -404 553 -168 b 740 -189 689 -121 740 -142 b 733 -211 740 -197 738 -206 b 708 -178 738 -194 725 -178 b 681 -204 693 -178 681 -189 b 708 -231 681 -219 693 -231 b 749 -189 729 -231 749 -215 b 624 -122 749 -133 685 -101 l 624 214 b 667 294 624 282 639 310 b 624 317 664 310 644 326 l 624 546 b 721 717 624 653 676 717 b 710 694 714 711 710 704 z "},"K":{"ha":867,"x_min":0,"x_max":0,"o":"m 832 -65 b 801 8 804 -64 801 -24 l 801 214 b 843 294 801 282 815 310 b 728 328 835 335 756 336 b 847 546 781 403 847 489 b 800 483 832 517 818 499 b 715 472 781 472 760 472 l 646 472 b 578 400 629 444 606 421 l 578 546 b 628 692 578 606 599 653 b 692 700 646 706 671 715 b 776 635 715 683 742 650 b 722 546 751 611 731 583 b 901 781 776 633 904 665 b 869 831 900 803 893 829 b 840 803 853 831 840 821 b 867 776 840 789 851 776 b 881 781 871 776 878 778 b 861 717 883 756 875 735 b 744 788 792 726 772 764 b 556 546 708 778 556 735 l 556 -140 b 517 -165 540 -146 528 -154 l 517 546 b 643 779 517 657 543 725 b 467 911 556 774 490 828 b 378 1042 450 964 463 1042 b 357 919 292 1043 301 919 b 383 946 371 919 383 932 b 357 974 383 961 371 974 b 332 956 346 974 336 967 b 376 1029 321 982 335 1026 b 440 953 422 1033 446 994 b 189 769 425 826 293 792 b 189 514 14 732 35 525 b 325 546 225 513 299 522 b 193 533 294 535 240 525 b 199 706 82 554 92 681 b 386 676 249 718 317 711 b 464 786 408 694 447 721 b 339 561 472 654 351 656 b 429 521 371 596 429 581 l 429 401 b 200 275 335 528 129 435 b 429 199 232 394 422 404 l 429 -110 b 328 -6 407 -65 371 -31 b 399 179 374 51 399 119 b 226 225 399 358 226 326 b 296 144 226 188 257 144 b 324 171 311 144 324 157 b 296 197 324 186 311 197 b 271 163 278 197 265 179 b 236 225 250 175 236 199 b 383 178 236 308 383 343 b 138 -82 383 69 292 -68 b 8 31 63 -87 8 -51 b 196 71 8 167 196 171 b 174 0 196 51 190 28 b 208 71 196 25 208 49 b -56 33 208 222 -56 219 b 142 -111 -56 -79 42 -124 b 560 -383 426 -76 368 -357 b 643 -326 606 -389 638 -357 b 579 -246 649 -289 625 -240 b 556 -272 565 -247 556 -258 b 582 -299 556 -286 568 -299 b 608 -268 599 -299 611 -285 b 632 -324 625 -279 636 -303 b 561 -372 626 -358 592 -378 b 636 -153 410 -347 511 -118 b 578 -132 629 -137 606 -124 l 578 238 b 697 175 610 232 657 156 b 669 224 674 179 664 200 b 775 315 686 286 732 318 b 713 215 740 313 713 267 l 713 8 b 694 -75 713 -39 713 -64 b 832 -250 792 -101 817 -171 b 867 0 846 -172 882 -74 b 832 -65 867 -37 854 -65 z m 578 265 l 578 392 l 736 392 b 578 265 713 365 607 310 z "},"L":{"ha":828,"x_min":0,"x_max":0,"o":"m 694 -4 b 729 -75 694 -26 707 -50 b 707 -4 713 -47 707 -25 b 840 -14 707 94 840 90 b 646 -89 840 -104 721 -153 b 578 -121 621 -100 597 -111 l 578 214 b 621 294 578 282 592 310 b 578 317 617 310 599 326 l 578 546 b 628 692 578 601 594 649 b 692 700 646 706 669 715 b 783 631 715 683 749 647 b 628 472 699 557 611 524 b 754 410 660 478 686 389 b 900 746 592 436 832 625 b 879 831 929 797 914 831 b 851 803 864 831 851 818 b 879 776 851 789 864 776 b 897 785 886 776 893 779 b 861 717 888 760 875 738 b 744 788 792 726 772 764 b 556 546 708 778 556 735 l 556 -135 b 517 -165 543 -143 528 -154 l 517 546 b 643 779 517 657 543 725 b 467 911 556 774 490 828 b 378 1042 450 964 463 1042 b 357 919 292 1043 301 919 b 383 946 371 919 383 932 b 357 974 383 961 371 974 b 332 956 346 974 336 967 b 376 1029 321 982 335 1026 b 440 953 422 1033 446 994 b 189 769 425 826 293 792 b 189 514 14 732 35 525 b 325 546 225 513 299 522 b 193 533 294 535 240 525 b 199 706 82 554 92 681 b 386 676 249 718 315 711 b 464 786 408 694 447 721 b 339 561 472 654 351 656 b 429 521 371 596 429 581 l 429 401 b 200 275 335 528 129 435 b 429 199 232 394 422 404 l 429 -110 b 328 -6 407 -65 371 -31 b 399 179 374 51 399 119 b 226 225 399 358 226 326 b 296 144 226 188 257 144 b 324 171 311 144 324 157 b 296 197 324 186 311 197 b 271 163 278 197 265 179 b 236 225 250 175 236 199 b 383 178 236 308 383 343 b 138 -82 383 69 292 -68 b 8 31 63 -87 8 -51 b 196 71 8 167 196 171 b 174 0 196 51 190 28 b 208 71 196 25 208 49 b -56 33 208 222 -56 219 b 142 -111 -56 -79 42 -124 b 560 -383 426 -76 368 -357 b 643 -326 606 -389 638 -357 b 579 -246 649 -289 625 -240 b 556 -272 565 -247 556 -258 b 582 -299 556 -286 568 -299 b 608 -268 599 -299 611 -285 b 632 -324 625 -279 636 -303 b 561 -372 626 -358 592 -378 b 492 -250 490 -361 475 -304 b 767 -250 539 -136 743 -197 b 925 -43 767 -174 925 -161 b 694 -4 925 144 694 146 z "},"M":{"ha":1089,"x_min":0,"x_max":0,"o":"m 1056 -65 b 1025 8 1028 -64 1025 -24 l 1025 214 b 1067 294 1025 282 1039 310 b 1025 317 1064 310 1046 326 l 1025 608 b 1125 893 1025 821 1110 799 b 804 663 1067 783 872 796 b 901 893 817 817 889 808 b 556 546 828 754 556 811 l 556 -140 b 517 -165 540 -146 528 -154 l 517 546 b 643 779 517 657 543 725 b 467 911 556 774 490 828 b 379 1042 451 964 463 1042 b 357 919 292 1043 301 919 b 383 946 372 919 383 932 b 357 974 383 961 372 974 b 332 956 346 974 336 967 b 376 1029 321 982 335 1026 b 442 953 422 1033 446 994 b 190 769 425 826 293 792 b 189 514 14 732 35 525 b 325 546 225 513 299 522 b 194 533 294 535 240 525 b 199 706 82 554 92 681 b 386 676 249 718 317 711 b 464 786 408 694 447 721 b 339 561 472 654 351 656 b 429 521 371 596 429 581 l 429 401 b 200 275 335 528 129 435 b 429 199 233 394 422 404 l 429 -110 b 328 -6 407 -65 371 -31 b 399 179 374 51 399 119 b 226 225 399 358 226 326 b 297 144 226 188 257 144 b 324 171 313 144 324 157 b 297 197 324 186 311 197 b 272 163 278 197 265 179 b 236 225 250 175 236 199 b 383 178 236 308 383 343 b 139 -82 383 69 292 -68 b 8 31 63 -87 8 -51 b 196 71 8 167 196 171 b 174 0 196 51 190 28 b 208 71 196 25 208 49 b -56 33 208 222 -56 219 b 142 -111 -56 -79 43 -124 b 560 -383 426 -76 368 -357 b 643 -326 606 -389 638 -357 b 579 -246 650 -289 625 -240 b 556 -272 567 -247 556 -258 b 582 -299 556 -286 568 -299 b 608 -268 599 -299 611 -285 b 632 -324 625 -279 636 -303 b 563 -372 626 -358 592 -378 b 636 -153 410 -347 511 -118 b 578 -132 629 -137 606 -124 l 578 214 b 621 294 578 282 593 310 b 578 317 618 310 599 326 l 578 392 l 714 392 l 714 317 b 671 294 692 326 674 310 b 714 214 699 310 714 282 l 714 8 b 696 -75 713 -39 714 -64 b 832 -250 792 -101 817 -171 b 867 0 846 -172 882 -74 b 832 -65 867 -37 854 -65 b 801 8 804 -64 801 -24 l 801 214 b 843 294 801 282 815 310 b 801 317 840 310 822 326 l 801 392 l 881 392 b 936 457 889 425 913 439 l 936 317 b 894 294 915 326 897 310 b 936 214 922 310 936 282 l 936 8 b 918 -75 936 -39 936 -64 b 1056 -250 1015 -101 1039 -171 b 1089 0 1069 -172 1106 -74 b 1056 -65 1089 -37 1078 -65 z m 714 608 l 714 472 l 646 472 b 578 400 629 444 607 421 l 578 546 b 733 746 578 694 690 733 b 714 608 724 725 714 704 z m 936 608 l 936 476 b 858 472 914 472 890 472 l 801 472 l 801 546 b 956 746 801 694 914 733 b 936 608 947 725 936 704 z "},"N":{"ha":867,"x_min":0,"x_max":0,"o":"m 832 -65 b 801 8 804 -64 801 -24 l 801 214 b 844 294 801 282 815 310 b 801 317 840 310 822 326 l 801 608 b 901 893 801 821 888 799 b 556 546 829 758 556 808 l 556 -140 b 518 -165 542 -146 529 -154 l 518 546 b 644 779 518 657 543 725 b 467 911 556 774 490 828 b 379 1042 451 964 463 1042 b 357 919 293 1043 303 919 b 383 946 372 919 383 932 b 357 974 383 961 372 974 b 332 956 346 974 336 967 b 376 1029 321 982 335 1026 b 442 953 422 1033 446 994 b 190 769 426 826 293 792 b 189 514 14 732 35 525 b 325 546 225 513 299 522 b 194 533 296 535 240 525 b 199 706 82 554 92 681 b 386 676 249 718 317 711 b 465 786 408 694 447 721 b 340 561 472 654 351 656 b 429 521 371 596 429 581 l 429 401 b 200 275 335 528 129 435 b 429 199 233 394 422 404 l 429 -110 b 329 -6 407 -65 371 -31 b 399 179 374 51 399 119 b 226 225 399 358 226 326 b 297 144 226 188 257 144 b 324 171 313 144 324 157 b 297 197 324 186 311 197 b 272 163 279 197 265 179 b 236 225 250 175 236 199 b 383 178 236 308 383 343 b 139 -82 383 69 293 -68 b 8 31 63 -87 8 -51 b 196 71 8 167 196 171 b 174 0 196 51 190 28 b 210 71 197 25 210 49 b -56 33 210 222 -56 219 b 142 -111 -56 -79 43 -124 b 561 -383 426 -76 368 -357 b 643 -326 606 -389 638 -357 b 579 -246 650 -289 625 -240 b 556 -272 567 -247 556 -258 b 582 -299 556 -286 568 -299 b 608 -268 599 -299 611 -285 b 632 -324 625 -279 636 -303 b 563 -372 626 -358 592 -378 b 636 -153 410 -347 511 -118 b 578 -132 629 -137 606 -124 l 578 214 b 621 294 578 282 593 310 b 578 317 618 310 600 326 l 578 546 b 733 746 578 654 636 715 b 714 608 725 725 714 704 l 714 317 b 671 294 693 326 674 310 b 714 214 699 310 714 282 l 714 8 b 696 -75 713 -39 714 -64 b 832 -250 793 -101 817 -171 b 867 0 846 -172 882 -74 b 832 -65 867 -37 854 -65 z "},"O":{"ha":786,"x_min":0,"x_max":0,"o":"m 531 324 b 604 472 564 353 589 432 b 581 694 578 513 514 638 b 479 472 471 632 521 501 b 531 324 506 432 567 392 z m 604 175 b 531 296 589 215 558 261 b 479 175 551 228 506 215 b 554 32 521 146 489 58 b 604 175 504 81 578 135 z m 728 96 l 728 214 b 769 294 728 282 742 310 b 728 317 767 310 749 326 l 728 608 b 828 893 728 821 814 799 b 419 546 756 758 419 808 b 419 24 419 546 419 185 b 374 315 390 96 374 192 l 374 544 b 500 779 374 694 438 728 b 164 1042 322 768 361 1042 b 0 878 57 1042 0 963 b 164 715 0 788 72 715 b 190 742 179 715 190 726 b 164 768 190 756 179 768 b 139 731 144 768 132 749 b 17 881 75 739 17 803 b 163 1029 17 960 76 1029 b 303 781 272 1029 324 904 b 196 561 285 671 197 615 b 285 521 226 596 285 581 l 285 411 b 64 275 188 522 -6 429 b 292 190 93 379 254 347 b 146 294 261 253 208 301 b 118 179 85 289 68 211 b 204 206 144 161 204 167 b 176 232 204 219 192 232 b 150 206 163 232 150 219 b 171 179 150 193 158 182 b 121 185 154 174 136 175 b 146 283 81 211 93 279 b 279 -8 265 293 339 103 b 151 -44 251 -60 204 -79 b 206 94 63 14 140 136 b 242 50 218 86 231 72 b 210 103 235 75 224 93 b 122 -85 113 167 1 -6 b 300 -19 196 -133 265 -89 b 319 65 313 6 318 35 b 653 -236 386 -150 539 -236 b 828 -61 768 -236 828 -143 b 728 96 828 18 781 71 z m 675 -183 b 442 -26 597 -183 504 -143 l 442 214 b 485 294 442 282 456 310 b 442 317 481 310 463 326 b 442 546 442 440 442 546 b 660 763 442 722 617 750 b 639 608 650 742 639 704 l 639 317 b 597 294 618 326 600 310 b 639 214 625 310 639 282 l 639 113 b 564 61 608 110 564 94 b 592 35 564 46 576 35 b 618 61 606 35 618 50 b 608 82 618 72 614 76 b 793 -61 703 118 793 31 b 675 -183 793 -122 749 -183 z "},"P":{"ha":874,"x_min":0,"x_max":0,"o":"m 844 294 b 801 317 840 310 822 326 l 801 608 b 901 893 801 821 888 799 b 618 713 854 803 694 789 b 556 546 571 667 556 610 l 556 -140 b 518 -165 542 -146 529 -154 l 518 546 b 644 779 518 657 543 725 b 467 911 556 774 490 828 b 379 1042 451 964 463 1042 b 357 919 293 1043 303 919 b 383 946 372 919 383 932 b 357 974 383 961 372 974 b 332 956 346 974 336 965 b 376 1029 321 982 335 1026 b 442 953 422 1033 446 994 b 190 769 426 826 293 792 b 189 514 14 732 35 524 b 325 546 225 513 299 522 b 194 533 296 535 240 525 b 199 706 82 554 92 681 b 386 676 249 718 317 711 b 465 786 408 694 447 721 b 340 561 472 654 351 656 b 429 521 371 596 429 581 l 429 401 b 200 275 335 528 129 433 b 429 199 233 394 422 404 l 429 -110 b 329 -6 407 -65 371 -31 b 399 179 374 51 399 119 b 226 225 399 358 226 326 b 297 144 226 188 257 144 b 324 171 313 144 324 157 b 297 197 324 186 311 197 b 272 163 279 197 267 179 b 236 225 250 175 236 199 b 383 178 236 308 383 343 b 139 -82 383 69 293 -68 b 8 31 63 -87 8 -51 b 196 71 8 167 196 171 b 174 0 196 51 190 28 b 210 71 197 25 210 49 b -56 33 210 222 -56 219 b 142 -111 -56 -79 43 -124 b 561 -383 426 -76 368 -357 b 643 -326 606 -389 638 -357 b 579 -246 650 -289 626 -240 b 556 -272 567 -247 556 -258 b 582 -299 556 -286 568 -299 b 608 -268 599 -299 611 -285 b 632 -324 625 -279 636 -303 b 563 -372 626 -358 592 -378 b 636 -153 410 -347 511 -118 b 578 -132 629 -137 606 -124 l 578 0 b 843 175 589 93 719 175 b 801 235 815 181 804 199 b 844 294 804 288 819 308 z m 714 608 l 714 317 b 671 294 693 326 674 310 b 713 235 696 308 710 288 b 578 143 661 218 607 188 l 578 214 b 621 294 578 282 593 310 b 578 317 618 310 600 326 l 578 546 b 604 651 578 583 586 619 b 733 746 631 696 678 729 b 714 608 725 725 714 704 z "},"Q":{"ha":786,"x_min":0,"x_max":0,"o":"m 517 642 b 465 242 639 531 524 332 b 550 18 506 211 439 81 b 589 242 489 71 553 185 b 517 642 558 325 674 532 z m 726 96 l 726 214 b 769 294 726 282 742 310 b 726 317 767 310 747 326 l 726 608 b 828 893 726 821 813 799 b 418 546 756 758 418 808 b 418 24 418 546 418 185 b 372 315 390 96 372 192 l 372 544 b 499 779 372 694 436 728 b 164 1042 322 768 361 1042 b 0 878 57 1042 0 963 b 164 715 0 788 72 715 b 190 742 178 715 190 726 b 164 768 190 756 178 768 b 139 731 144 768 132 749 b 17 881 74 739 17 803 b 161 1029 17 960 76 1029 b 303 781 272 1029 324 904 b 194 561 285 671 196 615 b 285 521 226 596 285 581 l 285 411 b 63 275 188 522 -6 429 b 290 189 92 379 253 347 b 146 294 261 253 208 301 b 117 179 85 289 68 211 b 203 206 144 161 203 167 b 176 232 203 219 192 232 b 150 206 161 232 150 219 b 169 179 150 193 158 182 b 121 185 154 174 136 175 b 146 283 81 211 93 279 b 279 -8 265 293 339 103 b 151 -44 250 -60 204 -79 b 204 94 63 14 140 136 b 240 50 217 86 229 72 b 210 103 233 75 224 93 b 122 -86 111 167 0 -6 b 300 -19 194 -133 265 -89 b 318 65 313 6 318 35 b 653 -236 386 -150 538 -236 b 678 -235 661 -236 669 -235 b 525 -347 676 -319 625 -393 b 754 -347 639 -429 661 -347 b 742 -214 760 -331 758 -274 b 828 -61 799 -182 828 -118 b 726 96 828 18 781 71 z m 471 -74 b 672 -183 588 -26 654 -100 b 471 -74 607 -183 531 -153 z m 726 -172 b 457 -53 688 -72 606 18 b 442 -26 451 -44 446 -36 l 442 214 b 483 294 442 282 456 310 b 442 317 481 310 463 326 b 442 546 442 440 442 546 b 658 763 442 722 617 750 b 639 608 650 742 639 704 l 639 317 b 597 294 618 326 600 310 b 639 214 625 310 639 282 l 639 113 b 564 61 608 110 564 94 b 590 35 564 46 576 35 b 617 61 606 35 617 50 b 607 82 617 72 614 76 b 793 -61 703 118 793 31 b 726 -172 793 -106 768 -151 z "},"R":{"ha":865,"x_min":0,"x_max":0,"o":"m 832 -65 b 800 8 803 -64 800 -24 l 800 214 b 843 294 800 282 815 310 b 683 306 832 349 721 344 b 800 433 708 354 753 406 l 800 608 b 901 893 800 821 886 799 b 617 713 853 803 693 789 b 554 546 571 667 554 610 l 554 -140 b 517 -165 540 -146 528 -154 l 517 546 b 643 779 517 657 543 725 b 465 911 554 774 490 828 b 378 1042 450 964 463 1042 b 357 919 292 1043 301 919 b 383 946 371 919 383 932 b 357 974 383 961 371 974 b 332 956 344 974 335 965 b 376 1029 319 982 335 1026 b 440 953 422 1033 446 994 b 189 769 425 826 292 792 b 188 514 14 732 33 524 b 324 546 225 513 299 522 b 193 533 294 535 239 525 b 197 706 82 554 92 681 b 385 676 247 718 315 711 b 464 786 407 694 446 721 b 339 561 471 654 350 656 b 429 521 369 596 429 581 l 429 401 b 199 275 335 528 128 433 b 429 199 232 394 422 404 l 429 -110 b 328 -6 406 -65 369 -31 b 397 179 374 51 397 119 b 225 225 397 358 225 326 b 296 144 225 188 257 144 b 322 171 311 144 322 157 b 296 197 322 186 311 197 b 271 163 278 197 265 179 b 235 225 250 175 235 199 b 382 178 235 308 382 343 b 138 -82 382 69 292 -68 b 8 31 61 -87 8 -51 b 196 71 8 167 196 171 b 174 0 196 51 190 28 b 208 71 196 25 208 49 b -56 33 208 222 -56 219 b 140 -111 -56 -79 42 -124 b 560 -383 426 -76 368 -357 b 643 -326 606 -389 638 -357 b 579 -246 649 -289 625 -240 b 556 -272 565 -247 556 -258 b 582 -299 556 -286 567 -299 b 608 -268 597 -299 610 -285 b 632 -324 625 -279 635 -303 b 561 -372 626 -358 592 -378 b 636 -153 410 -347 511 -118 b 578 -132 628 -137 606 -124 l 578 238 b 697 175 610 232 657 156 b 775 315 628 186 692 319 b 713 215 740 313 713 267 l 713 8 b 694 -75 711 -39 713 -64 b 832 -250 792 -101 815 -171 b 865 0 846 -172 882 -74 b 832 -65 865 -37 854 -65 z m 578 264 l 578 546 b 732 746 578 647 636 717 b 713 608 724 725 713 704 l 713 404 b 578 264 672 367 600 311 z "},"S":{"ha":939,"x_min":0,"x_max":0,"o":"m 901 297 b 906 294 903 296 904 296 b 658 500 906 364 751 431 l 658 546 b 813 746 658 649 714 717 b 793 608 804 725 793 704 b 763 533 793 571 786 546 b 890 426 793 513 899 496 b 881 608 907 472 881 504 b 981 893 881 821 967 799 b 697 713 932 803 774 789 b 635 546 660 676 635 625 l 635 519 b 722 779 544 597 639 744 b 546 911 635 774 569 828 b 458 1042 531 964 542 1042 b 436 919 372 1043 382 919 b 463 946 451 919 463 932 b 436 974 463 961 451 974 b 411 956 425 974 415 965 b 456 1029 400 982 414 1026 b 521 953 501 1033 525 994 b 269 769 506 826 372 792 b 268 514 93 732 114 524 b 404 546 304 513 378 522 b 274 533 375 535 319 525 b 278 706 161 554 171 681 b 465 676 328 718 396 711 b 544 786 488 694 526 721 b 453 597 542 688 486 625 b 472 525 453 568 472 550 l 472 317 b 429 294 451 326 433 310 b 472 214 458 310 472 282 l 472 61 b 343 158 429 101 383 138 b 413 343 388 215 413 283 b 240 389 413 522 240 490 b 311 308 240 351 271 308 b 338 335 326 308 338 321 b 311 361 338 350 328 361 b 286 326 294 361 281 343 b 250 389 264 339 250 363 b 397 342 250 472 397 507 b 153 82 397 233 307 96 b 24 194 76 76 24 113 b 211 235 24 331 211 335 b 188 164 211 215 204 192 b 224 235 211 189 224 213 b -42 197 224 386 -42 383 b 156 53 -42 85 57 40 b 215 67 172 54 215 67 b 521 -250 292 79 536 -128 b 640 -396 508 -364 597 -396 b 722 -326 685 -396 717 -357 b 658 -246 729 -289 704 -240 b 635 -272 646 -247 635 -258 b 661 -299 635 -286 647 -299 b 688 -268 678 -299 690 -285 b 711 -324 704 -279 715 -303 b 642 -385 706 -358 671 -386 b 715 -153 493 -375 590 -118 b 597 -165 696 -114 640 -126 b 904 0 663 -69 797 0 b 863 75 872 6 863 29 l 863 214 b 901 297 863 279 875 307 z m 546 143 b 761 143 574 244 717 268 b 590 110 718 196 618 206 b 657 38 619 75 617 29 b 676 126 619 35 633 108 b 763 46 719 146 782 126 b 601 -87 708 19 650 -26 b 521 13 585 -61 556 -25 b 513 21 518 15 515 18 b 494 71 500 36 494 51 l 494 214 b 538 294 494 282 510 310 b 494 317 535 310 515 326 l 494 519 b 775 269 582 429 775 336 b 546 143 681 396 475 303 z "},"T":{"ha":915,"x_min":0,"x_max":0,"o":"m 685 192 b 633 71 704 124 660 111 b 707 -74 674 42 642 -46 b 757 71 657 -24 731 31 b 685 192 742 111 711 157 z m 969 781 b 939 831 969 803 963 829 b 908 803 922 831 908 821 b 936 776 908 789 921 776 b 950 781 938 776 947 778 b 928 703 949 756 940 729 b 744 788 847 707 818 729 b 554 546 707 778 554 735 l 554 -140 b 517 -165 540 -146 528 -154 l 517 546 b 643 779 517 657 543 725 b 465 911 556 774 490 828 b 378 1042 450 964 463 1042 b 357 919 292 1043 301 919 b 383 946 371 919 383 932 b 357 974 383 961 371 974 b 332 956 346 974 336 965 b 376 1029 319 982 335 1026 b 440 953 422 1033 446 994 b 189 769 425 826 293 792 b 188 514 14 732 33 524 b 324 546 225 513 299 522 b 193 533 294 535 240 525 b 197 706 82 554 92 681 b 386 676 249 718 315 711 b 464 786 408 694 447 721 b 339 561 471 654 351 656 b 429 521 371 596 429 581 l 429 401 b 200 275 335 528 128 433 b 429 199 232 394 422 404 l 429 -110 b 328 -6 406 -65 369 -31 b 399 179 374 51 399 119 b 226 225 399 358 226 326 b 296 144 226 188 257 144 b 322 171 311 144 322 157 b 296 197 322 186 311 197 b 271 163 278 197 265 179 b 235 225 250 175 235 199 b 383 178 235 308 383 343 b 138 -82 383 69 292 -68 b 8 31 63 -87 8 -51 b 196 71 8 167 196 171 b 174 0 196 51 190 28 b 208 71 196 25 208 49 b -56 33 208 222 -56 219 b 140 -111 -56 -79 42 -124 b 560 -383 426 -76 368 -357 b 643 -326 606 -389 638 -357 b 579 -246 649 -289 625 -240 b 556 -272 565 -247 556 -258 b 582 -299 556 -286 567 -299 b 608 -268 599 -299 610 -285 b 632 -324 625 -279 635 -303 b 561 -372 626 -358 592 -378 b 636 -153 410 -347 511 -118 b 578 -132 629 -137 606 -124 l 578 214 b 619 294 578 282 592 310 b 578 317 617 310 599 326 l 578 546 b 628 692 578 606 597 653 b 692 700 646 706 669 715 b 868 607 756 654 800 631 b 688 228 772 475 633 333 b 856 175 725 242 807 142 b 886 579 650 194 811 489 b 969 781 935 638 972 697 z "},"U":{"ha":942,"x_min":0,"x_max":0,"o":"m 839 -3 b 917 0 864 -1 890 0 b 875 75 885 6 875 29 l 875 214 b 917 294 875 282 889 310 b 875 317 914 310 896 326 l 875 608 b 910 893 875 821 910 799 b 722 746 892 794 761 825 b 786 608 774 782 786 715 l 786 317 b 744 294 765 326 747 310 b 786 214 772 310 786 282 l 786 68 b 578 -32 719 54 643 19 l 578 214 b 619 294 578 282 592 310 b 578 317 617 310 599 326 l 578 546 b 675 717 578 653 629 715 b 664 694 668 711 664 703 b 690 668 664 679 675 668 b 717 694 704 668 717 679 b 554 546 717 757 554 756 l 554 -50 b 517 -86 542 -61 529 -74 l 517 546 b 643 779 517 657 543 725 b 465 911 554 774 490 828 b 378 1042 450 964 463 1042 b 357 919 292 1043 301 919 b 383 946 371 919 383 932 b 357 974 383 961 371 974 b 332 956 344 974 335 965 b 376 1029 319 982 335 1026 b 440 953 422 1033 446 994 b 189 769 425 826 292 792 b 188 514 14 732 33 524 b 324 546 225 513 299 522 b 193 533 294 535 239 525 b 197 706 82 554 92 681 b 385 676 247 718 315 711 b 464 786 407 694 446 721 b 339 561 471 654 350 656 b 429 521 369 596 429 581 l 429 401 b 199 275 335 528 128 433 b 429 199 232 394 422 404 l 429 -110 b 328 -6 406 -65 369 -31 b 397 179 374 51 397 119 b 225 225 397 358 225 326 b 296 144 225 188 256 144 b 322 171 311 144 322 157 b 296 197 322 186 311 197 b 271 163 278 197 265 179 b 235 225 250 175 235 199 b 382 178 235 308 382 343 b 138 -82 382 69 292 -68 b 8 31 61 -87 8 -51 b 196 71 8 167 196 171 b 174 0 196 51 190 28 b 208 71 196 25 208 49 b -56 33 208 222 -56 219 b 140 -111 -56 -79 42 -124 b 560 -383 426 -76 368 -357 b 643 -326 606 -389 638 -357 b 579 -246 649 -289 625 -240 b 556 -272 565 -247 556 -258 b 582 -299 556 -286 567 -299 b 608 -268 597 -299 610 -285 b 632 -324 624 -279 635 -303 b 561 -372 626 -358 592 -378 b 486 -307 515 -365 493 -339 b 493 -243 488 -285 489 -262 b 636 -153 514 -186 572 -135 b 544 -144 618 -118 571 -131 b 813 -31 597 -69 692 -10 b 822 -240 936 -51 915 -240 b 765 -106 735 -240 713 -146 b 825 -286 686 -124 672 -287 b 839 -3 978 -285 1028 -47 z "},"V":{"ha":835,"x_min":0,"x_max":0,"o":"m 644 -246 b 621 -272 631 -247 621 -258 b 647 -299 621 -286 633 -299 b 674 -268 664 -299 676 -285 b 697 -324 690 -279 701 -303 b 626 -385 692 -358 656 -386 b 701 -153 478 -375 576 -118 b 583 -165 682 -114 625 -126 b 890 0 649 -69 783 0 b 839 58 868 6 850 35 b 768 254 808 122 782 188 b 800 292 764 290 779 304 b 758 317 797 307 779 326 b 821 622 749 410 764 510 b 885 626 843 661 883 671 b 822 797 906 683 793 715 b 675 318 717 660 665 488 b 638 294 656 324 640 308 b 689 210 676 317 685 207 b 747 49 701 154 721 100 b 586 -87 694 24 635 -24 b 561 -51 579 -76 571 -65 l 561 214 b 604 294 561 282 575 310 b 561 317 600 310 582 326 l 561 546 b 658 717 561 653 614 715 b 647 694 651 711 647 703 b 674 668 647 679 658 668 b 700 694 689 668 700 679 b 693 713 700 701 697 707 b 539 546 663 756 539 731 l 539 -24 b 500 18 526 -10 514 4 l 500 546 b 626 779 500 657 526 725 b 450 911 539 774 474 828 b 361 1042 433 964 446 1042 b 340 919 275 1043 285 919 b 367 946 354 919 367 932 b 340 974 367 961 354 974 b 315 956 329 974 319 965 b 360 1029 304 982 318 1026 b 424 953 406 1033 429 994 b 172 769 408 826 276 792 b 172 514 -3 732 18 524 b 308 546 208 513 282 522 b 176 533 278 535 224 525 b 182 706 65 554 75 681 b 369 676 232 718 299 711 b 447 786 392 694 431 721 b 322 561 454 654 335 656 b 413 521 354 596 413 581 l 413 101 b 328 158 383 125 354 144 b 399 343 374 215 399 283 b 226 389 399 522 226 490 b 297 308 226 351 257 308 b 324 335 311 308 324 321 b 297 361 324 350 314 361 b 271 326 281 361 265 343 b 236 389 250 339 236 363 b 383 342 236 472 383 507 b 139 82 383 233 292 96 b 8 194 63 76 8 113 b 196 235 8 331 196 335 b 174 164 196 215 190 192 b 208 235 196 189 208 213 b -56 197 208 386 -56 383 b 142 53 -56 85 43 40 b 507 -250 317 74 522 -118 b 625 -396 494 -364 582 -396 b 708 -326 671 -396 703 -357 b 644 -246 714 -289 690 -240 z "},"W":{"ha":1139,"x_min":0,"x_max":0,"o":"m 1074 278 b 1106 292 1076 296 1090 301 b 1069 318 1103 306 1088 324 b 1126 622 1064 422 1081 532 b 1189 626 1149 661 1189 671 b 1128 797 1211 683 1099 715 b 988 478 1063 711 1006 583 b 903 472 963 472 938 472 l 875 472 l 875 608 b 910 893 875 821 910 799 b 724 746 893 794 761 825 b 786 608 775 782 786 715 l 786 472 l 650 472 b 578 397 633 443 608 418 l 578 546 b 675 717 578 653 629 715 b 664 694 668 711 664 703 b 690 668 664 679 675 668 b 717 694 706 668 717 679 b 710 713 717 701 714 707 b 556 546 679 756 556 731 l 556 -50 b 517 -86 542 -61 529 -74 l 517 546 b 643 779 517 657 543 725 b 467 911 556 774 490 828 b 378 1042 450 964 463 1042 b 357 919 292 1043 301 919 b 383 946 371 919 383 932 b 357 974 383 961 371 974 b 332 956 346 974 336 965 b 376 1029 321 982 335 1026 b 440 953 422 1033 446 994 b 189 769 425 826 293 792 b 189 514 14 732 35 524 b 325 546 225 513 299 522 b 193 533 294 535 240 525 b 199 706 82 554 92 681 b 386 676 249 718 315 711 b 464 786 408 694 447 721 b 339 561 471 654 351 656 b 429 521 371 596 429 581 l 429 401 b 200 275 335 528 129 433 b 429 199 232 394 422 404 l 429 175 l 429 -110 b 328 -6 407 -65 371 -31 b 399 179 374 51 399 119 b 226 225 399 358 226 326 b 296 144 226 188 257 144 b 324 171 311 144 324 157 b 296 197 324 186 311 197 b 271 163 278 197 265 179 b 235 225 250 175 235 199 b 383 178 235 308 383 343 b 138 -82 383 69 292 -68 b 8 31 63 -87 8 -51 b 196 71 8 167 196 171 b 174 0 196 51 190 28 b 208 71 196 25 208 49 b -56 33 208 222 -56 219 b 140 -111 -56 -79 42 -124 b 560 -383 426 -76 368 -357 b 643 -326 599 -387 636 -365 b 579 -246 649 -289 625 -240 b 556 -272 565 -247 556 -258 b 582 -299 556 -286 567 -299 b 608 -268 599 -299 611 -285 b 632 -324 626 -279 635 -303 b 631 -332 632 -326 631 -329 b 629 -333 629 -332 629 -332 b 629 -335 629 -333 629 -333 b 628 -336 629 -335 629 -335 b 628 -337 628 -336 628 -336 b 628 -339 628 -337 628 -337 b 626 -340 626 -339 626 -339 b 626 -342 626 -340 626 -340 b 625 -343 625 -342 625 -342 b 625 -344 625 -343 625 -343 b 624 -346 624 -344 624 -344 b 622 -346 624 -346 624 -346 b 561 -372 610 -367 585 -376 b 507 -217 493 -357 488 -271 b 636 -153 533 -171 582 -137 b 578 -132 629 -137 606 -124 b 544 -144 565 -135 554 -139 b 813 -31 599 -69 693 -10 b 824 -240 936 -51 915 -240 b 765 -106 735 -240 713 -146 b 825 -286 688 -124 672 -287 b 1194 0 985 -285 957 0 b 1074 278 1129 60 1088 164 z m 786 317 b 744 294 765 326 747 310 b 786 214 772 310 786 282 l 786 68 b 578 -32 719 54 643 19 l 578 214 b 619 294 578 282 592 310 b 578 317 617 310 599 326 l 578 392 l 786 392 l 786 317 z m 924 -47 b 875 75 903 -24 875 29 l 875 214 b 917 294 875 282 889 310 b 875 317 914 310 896 326 l 875 392 l 925 392 b 983 460 933 428 958 440 b 978 319 976 411 975 364 b 943 294 960 322 944 308 b 988 235 965 307 978 276 b 1050 53 1000 172 1021 110 b 924 -47 1008 33 964 -1 z "},"X":{"ha":849,"x_min":0,"x_max":0,"o":"m 814 -65 b 783 8 786 -64 783 -24 l 783 214 b 822 297 783 279 797 307 b 826 294 824 296 825 296 b 739 396 826 329 789 363 b 826 486 753 442 794 449 b 717 472 790 472 763 472 l 621 472 b 579 500 606 482 592 490 b 633 694 579 568 579 644 b 693 700 650 707 672 715 b 776 635 717 683 742 650 b 724 546 751 611 731 583 b 901 781 778 633 904 665 b 871 831 901 801 894 829 b 840 803 854 831 840 821 b 867 776 840 789 853 776 b 882 781 872 776 878 778 b 861 717 882 768 882 739 b 744 788 792 725 772 764 b 556 519 600 750 556 656 b 644 779 465 597 560 744 b 467 911 556 774 490 828 b 379 1042 451 964 463 1042 b 357 919 293 1043 303 919 b 383 946 372 919 383 932 b 357 974 383 961 372 974 b 332 956 346 974 336 965 b 376 1029 321 982 335 1026 b 442 953 422 1033 447 994 b 190 769 426 826 293 792 b 189 514 14 732 35 524 b 325 546 226 513 299 522 b 194 533 296 535 240 525 b 199 706 82 554 92 681 b 386 676 249 718 317 711 b 465 786 408 694 447 721 b 374 597 463 688 407 625 b 469 472 374 557 417 514 l 336 472 b 261 399 326 438 293 422 b 201 221 182 361 151 271 b 344 392 163 283 213 392 l 429 392 l 429 317 b 388 294 408 326 390 310 b 429 214 415 310 429 282 l 429 -110 b 329 -6 407 -65 371 -31 b 399 179 374 51 399 119 b 226 225 399 358 226 326 b 297 144 226 188 257 144 b 324 171 313 144 324 157 b 297 197 324 186 311 197 b 272 163 279 197 267 179 b 236 225 250 175 236 199 b 383 178 236 308 383 343 b 139 -82 383 69 293 -68 b 10 31 63 -87 10 -51 b 197 71 10 167 197 171 b 174 0 197 51 190 28 b 210 71 197 25 210 49 b -56 33 210 222 -56 219 b 142 -111 -56 -79 43 -124 b 561 -383 428 -76 369 -357 b 643 -326 606 -389 639 -357 b 579 -246 650 -289 626 -240 b 556 -272 567 -247 556 -258 b 583 -299 556 -286 568 -299 b 608 -268 599 -299 611 -285 b 632 -324 625 -279 636 -303 b 563 -372 626 -358 592 -378 b 636 -153 410 -347 513 -118 b 579 -132 629 -137 607 -124 l 579 214 b 621 294 579 282 593 310 b 579 317 618 310 600 326 l 579 392 b 696 269 592 392 696 306 l 696 8 b 678 -75 694 -39 696 -64 b 814 -250 775 -101 799 -171 b 849 0 828 -172 864 -74 b 814 -65 849 -37 838 -65 z m 556 -140 b 518 -165 542 -146 529 -154 l 518 392 l 556 392 l 556 -140 z "},"Y":{"ha":851,"x_min":0,"x_max":0,"o":"m 907 0 b 851 68 885 17 863 43 b 785 256 824 128 799 190 b 818 292 781 290 796 304 b 775 317 815 307 797 326 b 838 622 767 410 782 510 b 901 626 861 661 901 671 b 840 797 924 683 810 715 b 692 318 735 660 682 488 b 654 294 674 324 657 308 b 699 242 676 307 689 279 b 760 57 714 176 728 121 b 578 -26 692 36 617 1 l 578 214 b 621 294 578 282 593 310 b 578 317 618 310 600 326 l 578 546 b 676 717 578 653 631 715 b 664 694 669 711 664 703 b 690 668 664 679 676 668 b 718 694 706 668 718 679 b 711 713 718 701 715 707 b 556 546 681 756 556 731 l 556 0 l 518 35 l 518 546 b 644 779 518 657 543 725 b 467 911 556 774 490 828 b 379 1042 451 964 463 1042 b 357 919 293 1043 303 919 b 383 946 372 919 383 932 b 357 974 383 961 372 974 b 332 956 346 974 336 965 b 376 1029 321 982 335 1026 b 442 953 422 1033 446 994 b 190 769 426 826 293 792 b 189 514 14 732 35 524 b 325 546 225 513 299 522 b 194 533 296 535 240 525 b 199 706 82 554 92 681 b 386 676 249 718 317 711 b 465 786 408 694 447 721 b 340 561 472 654 351 656 b 429 521 371 596 429 581 l 429 71 l 431 0 b 628 -203 493 -35 579 -133 b 768 -6 572 -62 660 -19 b 622 -311 751 -160 621 -317 b 329 -6 582 -244 424 -56 b 399 179 374 51 399 119 b 226 225 399 358 226 326 b 297 144 226 188 257 144 b 324 171 313 144 324 157 b 297 197 324 186 314 197 b 272 163 281 197 267 179 b 236 225 250 175 236 199 b 383 178 236 308 383 343 b 139 -82 383 69 293 -68 b 10 31 63 -87 10 -51 b 196 71 10 167 196 171 b 174 0 196 51 190 28 b 210 71 197 25 210 49 b -56 33 210 222 -56 219 b 142 -111 -56 -79 43 -124 b 540 -469 329 -89 554 -349 b 658 -615 528 -583 617 -615 b 742 -546 704 -615 736 -576 b 678 -465 749 -508 724 -460 b 654 -492 664 -467 654 -478 b 681 -518 654 -506 667 -518 b 707 -487 697 -518 710 -504 b 731 -543 724 -499 735 -522 b 661 -604 725 -578 689 -607 b 735 -372 511 -594 610 -339 b 619 -383 715 -335 661 -346 b 907 0 678 -310 861 -14 z "},"Z":{"ha":974,"x_min":0,"x_max":0,"o":"m 993 697 b 875 736 993 764 917 761 b 740 536 838 714 792 661 l 715 472 l 681 472 b 854 779 715 561 778 732 b 676 911 767 774 701 828 b 589 1042 661 964 682 1042 b 568 919 503 1043 513 919 b 594 946 582 919 594 932 b 568 974 594 961 582 974 b 543 956 557 974 547 965 b 588 1029 532 982 546 1026 b 651 953 633 1033 657 994 b 400 769 636 826 503 792 b 399 514 225 732 244 524 b 535 546 436 513 510 522 b 325 619 478 525 325 507 b 597 676 325 704 457 746 b 675 786 619 694 658 721 b 550 561 682 654 563 656 b 586 472 582 596 615 546 l 332 472 b 257 399 322 438 289 422 b 197 221 178 361 147 271 b 340 392 158 283 208 392 l 556 392 l 526 317 b 483 294 506 326 486 310 b 488 215 529 319 486 215 l 374 -79 b 326 -7 364 -54 349 -28 b 397 179 372 49 397 119 b 225 225 397 358 225 326 b 296 144 225 188 257 144 b 322 171 311 144 322 157 b 296 197 322 186 311 197 b 271 163 278 197 265 179 b 235 225 250 175 235 199 b 382 178 235 308 382 343 b 138 -82 382 69 292 -68 b 8 31 63 -87 8 -51 b 196 71 8 167 196 171 b 174 0 196 51 190 28 b 208 71 196 25 208 49 b -56 33 208 222 -56 219 b 140 -111 -56 -79 42 -124 b 383 -374 392 -81 272 -317 b 514 -326 436 -400 504 -386 b 446 -246 519 -290 483 -233 b 426 -272 435 -250 426 -260 b 453 -299 426 -286 439 -299 b 479 -268 469 -299 482 -285 b 503 -324 496 -279 507 -303 b 432 -372 497 -358 463 -378 b 500 -179 311 -351 371 -187 l 796 -179 b 871 -97 806 -144 839 -124 b 932 81 950 -60 981 31 b 788 -92 969 18 919 -90 l 521 -92 l 540 -40 b 854 49 622 160 819 169 b 625 175 925 208 718 301 b 719 285 639 213 671 311 b 675 307 715 300 697 317 l 708 392 l 878 392 b 965 486 890 440 933 447 b 856 472 931 472 903 472 l 739 472 l 761 528 b 885 719 808 646 850 697 b 967 722 910 735 951 742 b 940 694 953 722 940 710 b 967 668 940 681 953 668 b 993 697 983 668 994 682 z m 496 -92 l 463 -92 l 650 392 l 685 392 l 496 -92 z "},"d":{"ha":388,"x_min":0,"x_max":0,"o":"m 360 294 b 317 317 357 313 329 328 b 189 694 314 542 292 592 b 144 972 96 788 115 853 b 14 804 103 871 97 804 b 157 615 24 735 111 667 b 13 546 117 579 44 547 b 43 457 36 532 42 499 l 43 317 b 0 294 22 326 3 310 b 42 214 28 310 46 282 b 25 175 40 194 36 182 b 196 0 122 149 181 79 b 338 175 214 75 240 100 b 318 214 325 185 319 197 b 360 294 313 283 332 310 z m 228 214 b 196 71 226 163 218 97 b 133 215 171 110 143 149 b 175 294 128 283 147 310 b 131 317 172 310 153 326 l 131 519 b 161 546 131 536 146 549 b 171 478 206 539 194 476 b 179 493 175 481 179 486 b 161 513 179 503 171 513 b 176 458 129 513 138 458 b 219 483 197 458 211 468 b 229 317 226 442 228 389 b 185 294 207 326 188 310 b 228 214 213 310 228 282 z "},"!":{"ha":204,"x_min":0,"x_max":0,"o":"m 90 78 b -11 0 36 71 29 11 b 68 -103 90 -17 32 -75 b 124 -3 38 -65 96 -14 b 90 78 88 13 35 47 z m 126 317 b 176 1042 131 558 149 794 b -29 944 157 974 43 969 b -39 836 -87 925 -90 843 b -10 861 -24 833 -10 846 b -35 886 -10 875 -22 886 b -57 872 -46 886 -53 881 b -31 904 -57 888 -44 901 b 115 925 6 914 76 854 b 6 810 107 838 17 872 b 53 317 63 856 56 451 b 8 294 31 326 13 310 b 17 175 57 321 54 199 b 125 71 69 161 107 113 b 125 219 125 121 125 169 b 169 294 126 283 143 310 b 126 317 167 310 147 326 z "},"\"":{"ha":139,"x_min":0,"x_max":0,"o":"m 122 1042 b 43 975 79 1036 67 997 b 51 1042 22 999 4 1015 b -49 964 -3 1035 -10 975 b 31 861 -21 958 35 922 b 65 942 67 896 72 922 b 101 861 86 925 104 897 b 122 1042 215 969 24 986 z "},"#":{"ha":726,"x_min":0,"x_max":0,"o":"m 556 456 b 464 428 536 435 503 429 l 456 428 l 488 544 b 726 533 528 544 635 543 b 601 622 632 561 586 565 b 508 594 581 601 549 596 l 501 594 l 538 729 b 614 972 549 771 578 878 b 483 822 558 869 540 822 b 489 738 501 808 499 776 l 451 594 l 333 594 l 369 729 b 446 972 381 771 411 878 b 317 822 392 869 374 822 b 322 738 335 808 332 776 l 283 594 b 44 606 243 594 136 596 b 171 517 140 578 185 574 b 263 544 190 538 224 543 l 271 544 l 239 428 b 0 439 199 428 92 429 b 125 350 94 411 140 407 b 218 378 146 371 178 376 l 225 378 l 189 242 b 114 0 178 201 149 94 b 243 150 168 103 186 150 b 238 235 225 164 228 196 l 275 378 l 393 378 l 357 242 b 281 0 346 201 315 94 b 410 150 335 103 353 150 b 404 235 392 164 394 196 l 443 378 b 682 367 483 378 590 376 b 556 456 586 394 542 399 z m 406 428 l 289 428 l 321 544 l 438 544 l 406 428 z "},"$":{"ha":393,"x_min":0,"x_max":0,"o":"m 365 294 b 322 317 363 310 343 326 l 322 629 l 269 629 b 203 649 250 629 225 636 b 319 808 250 696 324 738 b 242 835 322 876 243 878 b 260 815 242 825 250 817 b 279 835 271 815 279 824 b 263 854 279 844 272 853 b 306 808 260 856 307 867 b 210 783 304 769 253 760 l 210 972 l 193 972 l 193 794 b 149 896 168 815 149 849 b 31 728 129 824 122 728 b 60 638 53 713 58 679 l 60 603 b 144 603 74 606 110 608 b 140 574 142 593 140 583 b 193 511 140 542 156 506 l 193 83 b 136 258 165 126 136 172 l 136 285 b 158 294 136 301 147 317 b 104 349 160 322 131 336 b 21 449 64 367 18 386 b 44 317 1 388 33 372 b 0 294 22 326 4 310 b 47 233 25 308 47 285 b 31 175 47 203 44 185 b 193 29 115 153 169 96 l 193 -92 l 210 -92 l 210 29 b 342 175 228 83 258 111 b 324 214 331 185 325 197 b 365 294 324 282 338 310 z m 149 726 b 226 707 169 713 199 704 b 181 664 211 694 194 681 b 149 726 163 681 150 701 z m 193 551 b 188 539 190 549 188 543 b 193 524 188 529 193 528 b 165 576 179 521 165 547 b 168 597 165 583 167 590 b 193 589 176 596 186 593 l 193 551 z m 233 249 b 210 83 233 201 231 124 l 210 517 b 225 539 218 521 225 529 b 210 558 225 544 218 556 l 210 581 b 233 539 224 571 233 557 l 233 249 z "},"%":{"ha":424,"x_min":0,"x_max":0,"o":"m 86 599 b 179 715 97 649 115 665 b 165 763 167 725 165 740 l 165 918 b 176 974 167 947 169 963 b -15 832 124 921 -15 961 l -15 769 b -28 715 -17 739 -15 722 b 86 599 36 697 75 651 z m 43 832 b 46 864 43 843 44 854 b 69 878 60 857 69 863 b 57 883 65 871 57 875 b 107 871 54 911 107 932 l 107 763 b 86 646 107 729 104 668 b 43 769 65 676 43 708 l 43 832 z m 147 249 l 290 785 b 371 1042 303 828 333 942 b 233 882 313 932 294 883 b 240 793 253 868 250 835 l 96 257 b 15 0 85 214 53 100 b 153 158 74 108 92 158 b 147 249 133 174 138 207 z m 383 207 l 383 363 b 394 418 383 392 388 407 b 201 275 340 365 201 404 l 201 214 b 190 158 201 183 201 167 b 303 43 254 142 293 96 b 396 158 315 93 332 110 b 383 207 383 169 383 185 z m 325 207 b 303 90 325 172 322 113 b 260 214 283 121 260 151 l 260 275 b 264 308 260 288 261 299 b 288 321 278 301 288 307 b 274 328 282 314 275 319 b 325 315 272 356 325 376 l 325 207 z "},"&":{"ha":883,"x_min":0,"x_max":0,"o":"m 856 294 b 813 317 853 310 833 326 b 636 426 776 382 717 426 b 640 94 388 426 435 56 b 733 203 699 106 722 147 b 643 114 718 164 689 118 b 536 214 585 110 549 157 b 579 294 531 282 551 310 b 544 319 576 308 563 322 b 657 393 561 364 599 396 b 786 317 713 390 756 361 b 744 294 765 326 747 310 b 828 219 771 310 813 282 b 656 -132 863 76 811 -106 b 469 -54 586 -143 511 -111 b 528 69 497 -12 528 35 b 367 285 426 101 458 282 b 339 260 351 286 339 275 b 365 235 339 246 351 235 b 390 260 379 235 390 246 b 403 17 428 217 438 76 b 304 226 368 78 332 151 b 318 294 290 269 293 308 b 274 317 314 313 286 328 b 261 369 269 335 264 353 b 435 289 346 365 436 356 b 267 418 464 363 350 418 b 490 496 310 426 450 439 b 511 781 457 568 475 706 b 431 839 456 781 454 800 b 440 885 436 853 440 868 b 339 919 443 972 340 974 b 363 894 339 906 350 894 b 389 918 376 894 388 906 b 365 943 389 932 379 942 b 422 885 364 946 424 960 b 214 997 419 789 203 840 b 65 781 189 903 189 781 b 101 690 86 756 94 735 b 151 446 114 607 140 494 b 58 485 111 457 82 461 b 65 317 67 447 69 383 b 17 294 44 326 19 310 b 58 249 47 311 63 272 b -56 57 43 151 8 64 b 254 -347 7 35 214 -278 b 431 -111 278 -258 399 -153 b 614 -169 485 -146 544 -172 b 849 210 803 -164 878 42 b 856 294 843 244 824 313 z m 199 797 b 390 792 258 738 349 751 l 390 538 b 239 436 390 467 276 443 b 199 797 221 501 163 753 z m 201 -224 b 51 -8 142 -128 72 -37 b 147 269 121 99 142 210 b 86 397 150 367 86 336 b 174 368 90 376 126 371 b 278 93 200 272 235 178 b 176 -92 188 101 103 6 b 360 -44 181 3 265 36 b 201 -224 325 -94 218 -176 z "},"'":{"ha":68,"x_min":0,"x_max":0,"o":"m 51 1119 b -49 1042 -3 1113 -10 1053 b 31 939 -21 1036 36 1000 b 51 1119 144 1047 -47 1064 z "},"(":{"ha":197,"x_min":0,"x_max":0,"o":"m 146 35 b 104 175 122 76 114 128 b 75 715 64 363 49 524 b 153 1042 92 833 110 932 b 225 1201 172 1090 197 1147 b 79 1042 194 1157 136 1042 b 89 1007 86 1035 89 1022 b 40 715 86 925 50 804 b 65 175 17 526 32 361 b 107 0 78 113 90 61 b 147 -160 121 -49 135 -106 b 140 -39 143 -104 138 -65 b 176 0 140 -26 176 0 b 146 35 164 7 154 19 z "},")":{"ha":196,"x_min":0,"x_max":0,"o":"m 157 715 b 108 1007 146 804 111 925 b 118 1042 108 1022 111 1035 b -28 1201 60 1042 3 1157 b 44 1042 0 1147 25 1090 b 122 715 86 932 106 833 b 93 175 149 524 133 363 b 51 35 82 128 74 76 b 21 0 42 19 32 7 b 57 -39 21 0 56 -26 b 49 -160 60 -65 54 -104 b 90 0 61 -106 76 -49 b 131 175 107 61 119 113 b 157 715 165 361 179 526 z "},"*":{"ha":506,"x_min":0,"x_max":0,"o":"m 353 565 b 533 553 396 565 433 564 b 450 649 425 583 450 625 b 361 618 436 625 401 619 l 306 618 b 317 819 307 668 308 740 b 222 736 288 710 246 736 b 251 618 242 724 249 663 l 208 618 b 28 631 165 618 128 619 b 111 536 136 601 111 558 b 200 565 125 558 158 564 l 240 565 b 125 388 217 524 175 456 b 249 413 204 467 228 424 b 278 519 239 431 260 481 b 308 413 297 481 317 431 b 432 388 328 424 351 467 b 315 565 381 456 340 524 l 353 565 z "},"+":{"ha":399,"x_min":0,"x_max":0,"o":"m 254 361 b 426 350 294 361 333 360 b 343 444 318 379 343 422 b 254 415 329 422 294 417 b 265 588 254 456 256 494 b 171 504 236 479 193 504 b 200 415 193 490 199 456 b 28 426 160 415 121 417 b 111 332 136 397 111 354 b 200 361 125 354 160 361 b 189 189 200 322 199 282 b 283 272 218 297 261 272 b 254 361 261 288 256 321 z "},",":{"ha":89,"x_min":0,"x_max":0,"o":"m 100 78 b 0 0 46 71 39 11 b 79 -103 28 -6 83 -42 b 100 78 193 6 1 22 z "},"-":{"ha":399,"x_min":0,"x_max":0,"o":"m 343 444 b 254 415 329 422 294 417 l 210 415 b 28 426 165 415 128 415 b 111 332 136 397 111 354 b 200 361 126 354 160 361 l 246 361 b 426 350 289 361 326 361 b 343 444 318 379 343 422 z "},".":{"ha":106,"x_min":0,"x_max":0,"o":"m 133 -3 b 100 78 97 13 44 47 b 0 0 46 71 39 11 b 79 -103 100 -17 42 -75 b 133 -3 47 -65 107 -14 z "},"/":{"ha":300,"x_min":0,"x_max":0,"o":"m 275 785 b 356 1042 286 828 318 942 b 218 882 297 932 279 883 b 224 793 238 868 233 835 l 81 257 b 0 0 68 214 38 100 b 138 158 58 108 76 158 b 131 249 118 174 121 207 l 275 785 z "},":":{"ha":147,"x_min":0,"x_max":0,"o":"m 79 365 b 133 467 47 403 107 454 b 100 546 97 481 44 515 b 0 468 46 539 39 479 b 79 365 100 451 42 393 z m 100 351 b 0 274 46 344 39 285 b 79 171 100 257 42 199 b 133 272 47 208 107 260 b 100 351 97 286 44 321 z "},";":{"ha":147,"x_min":0,"x_max":0,"o":"m 79 365 b 133 467 47 403 107 454 b 100 546 99 481 44 515 b 0 468 46 539 39 479 b 79 365 100 451 42 393 z m 100 351 b 0 274 46 344 39 285 b 79 171 28 268 85 232 b 100 351 193 279 1 296 z "},"<":{"ha":535,"x_min":0,"x_max":0,"o":"m 449 229 b 310 258 413 211 365 229 l 251 292 b 61 417 201 321 157 347 b 251 543 157 486 201 514 l 310 576 b 449 604 365 606 413 624 b 486 792 432 635 367 671 b 258 639 364 701 315 672 l 201 606 b 63 578 146 576 99 558 b 0 417 103 507 81 439 b 63 257 75 397 103 328 b 201 229 99 276 146 258 l 258 196 b 486 43 315 163 364 133 b 449 229 367 164 432 200 z "},">":{"ha":500,"x_min":0,"x_max":0,"o":"m 51 229 b 14 43 68 200 133 164 b 242 196 136 133 185 163 l 299 229 b 438 257 354 258 401 276 b 500 417 397 328 425 397 b 438 578 419 439 397 507 b 299 606 401 558 354 576 l 242 639 b 14 792 185 672 136 701 b 51 604 133 671 68 635 b 190 576 88 624 135 606 l 249 543 b 439 417 299 514 343 486 b 249 292 343 347 299 321 l 190 258 b 51 229 135 229 88 211 z "},"=":{"ha":400,"x_min":0,"x_max":0,"o":"m 111 378 b 201 408 126 401 160 407 l 246 408 b 428 396 289 408 328 407 b 343 490 318 425 343 468 b 254 461 329 468 296 463 l 210 461 b 28 472 167 461 128 463 b 111 378 138 443 111 401 z m 201 328 b 111 358 160 329 126 335 b 28 264 111 335 138 293 b 210 275 128 274 167 275 l 254 275 b 343 246 296 274 329 268 b 428 340 343 268 318 311 b 246 328 328 329 289 328 l 201 328 z "},"?":{"ha":425,"x_min":0,"x_max":0,"o":"m 100 78 b 0 0 46 71 39 11 b 79 -103 100 -17 42 -75 b 133 -3 47 -65 107 -14 b 100 78 97 13 44 46 z m 310 1042 b 119 956 319 919 121 900 b 128 986 119 971 124 981 b 153 956 125 971 136 956 b 178 981 167 956 178 967 b 171 999 178 988 175 993 b 99 954 153 1021 97 1011 b 107 919 99 942 101 929 b 50 621 6 846 50 768 b 33 421 50 571 14 485 b 169 546 28 543 172 494 b 139 606 150 524 139 564 l 139 882 b 335 892 189 846 315 825 b 250 793 347 825 257 826 b 294 682 301 814 294 738 b 144 421 294 514 258 486 b 61 317 86 386 67 351 b 19 294 40 326 22 310 b 26 175 67 321 64 199 b 136 71 79 161 117 113 b 138 249 135 129 132 192 b 181 294 142 292 157 307 b 147 319 178 307 164 321 b 181 393 154 353 165 381 b 404 715 374 549 392 440 b 439 874 407 771 413 825 b 310 1042 356 874 339 932 z "},"@":{"ha":750,"x_min":0,"x_max":0,"o":"m 697 307 b 717 489 713 365 717 429 b 651 821 717 614 701 732 b 372 976 599 915 513 976 b 121 839 260 976 178 922 b 32 489 60 747 32 619 b 44 317 32 458 44 317 b 0 294 24 326 4 310 b 94 156 43 318 79 188 b 353 -11 144 60 225 -6 b 526 -153 367 -99 426 -169 b 518 115 711 -121 667 140 b 454 68 497 111 476 94 b 521 103 479 89 501 99 b 513 -89 618 119 647 -67 b 381 19 432 -103 388 -57 b 593 304 367 174 488 286 b 665 168 757 333 749 182 b 599 192 639 163 614 174 b 629 222 615 189 632 204 b 597 244 626 238 613 247 b 576 214 583 242 574 229 b 668 158 583 175 631 151 b 697 307 740 171 761 268 z m 372 649 b 404 546 403 663 404 581 l 404 363 b 372 185 404 310 400 218 b 353 214 365 194 358 204 b 356 294 324 263 328 310 b 311 317 353 310 333 326 b 307 372 308 333 307 351 l 307 661 b 313 711 307 679 308 696 b 349 731 333 700 347 710 b 340 749 335 713 317 749 b 488 715 372 749 443 667 b 372 649 472 651 388 689 z m 594 321 b 526 299 575 317 526 299 b 493 363 500 292 493 326 l 493 592 b 529 769 493 725 528 728 b 451 797 532 838 451 839 b 469 778 450 786 458 778 b 489 796 479 778 489 786 b 472 815 489 806 482 814 b 515 769 469 817 517 828 b 325 776 514 708 400 782 b 219 661 261 774 219 724 l 219 372 b 201 289 218 325 219 300 b 368 129 292 265 349 203 b 354 76 361 113 357 96 b 172 196 264 82 207 129 b 119 489 132 275 119 382 b 194 789 119 604 143 714 b 372 888 235 850 293 888 b 575 778 475 888 538 846 b 629 489 615 704 629 601 b 594 321 629 436 631 328 z "},"[":{"ha":218,"x_min":0,"x_max":0,"o":"m 140 -115 l 100 -115 b 96 -69 97 -101 96 -86 l 96 214 b 138 294 96 282 110 310 b 96 317 135 310 117 326 l 96 785 b 97 882 96 804 96 840 l 140 882 b 217 1083 308 882 297 1072 b 185 1064 203 1086 189 1079 b 204 1032 181 1050 189 1036 b 238 1060 221 1028 239 1042 b 143 926 292 988 222 926 l 99 926 b 107 1042 100 964 103 1004 b 13 882 78 932 72 883 b 42 793 35 868 40 835 l 42 317 b 0 294 21 326 3 310 b 42 214 28 310 42 282 l 42 -61 b 31 -318 42 -104 42 -218 b 143 -160 51 -237 49 -160 b 238 -293 222 -160 292 -221 b 204 -265 239 -275 221 -261 b 185 -297 189 -269 181 -283 b 217 -317 189 -311 203 -319 b 140 -115 297 -304 308 -115 z "},"]":{"ha":211,"x_min":0,"x_max":0,"o":"m 43 -115 b -33 -317 -125 -115 -114 -304 b -1 -297 -19 -319 -6 -311 b -21 -265 3 -283 -6 -269 b -54 -293 -37 -261 -56 -275 b 40 -160 -108 -221 -39 -160 b 153 -318 135 -160 132 -237 b 142 -61 142 -218 142 -104 l 142 214 b 183 294 142 282 156 310 b 142 317 181 310 163 326 l 142 793 b 171 882 143 835 149 868 b 76 1042 111 883 106 932 b 85 926 81 1004 83 964 l 40 926 b -54 1060 -39 926 -108 988 b -21 1032 -56 1042 -37 1028 b -1 1064 -6 1036 3 1050 b -33 1083 -6 1079 -19 1086 b 43 882 -114 1072 -125 882 l 86 882 b 88 785 88 840 88 804 l 88 317 b 46 294 67 326 49 310 b 88 214 74 310 88 282 l 88 -69 b 83 -115 88 -86 86 -101 l 43 -115 z "},"\\":{"ha":286,"x_min":0,"x_max":0,"o":"m 219 257 l 75 793 b 82 882 65 835 63 868 b -56 1042 21 883 3 932 b 25 785 -18 942 13 828 l 168 249 b 163 158 178 207 182 174 b 300 0 224 158 242 108 b 219 257 263 100 231 214 z "},"^":{"ha":446,"x_min":0,"x_max":0,"o":"m 260 942 b 129 771 219 911 188 826 b 58 447 26 671 -62 551 b 231 713 46 586 150 678 b 403 447 311 678 415 586 b 260 942 575 733 158 765 z "},"_":{"ha":869,"x_min":0,"x_max":0,"o":"m 814 18 b 724 -12 799 -6 765 -11 l 182 -12 b 0 0 138 -12 100 -11 b 83 -94 108 -29 83 -72 b 172 -65 97 -72 132 -67 l 715 -65 b 897 -78 758 -65 797 -67 b 814 18 788 -47 814 -6 z "},"`":{"ha":68,"x_min":0,"x_max":0,"o":"m -7 1119 b -49 1042 -40 1094 -10 1053 b 31 939 -21 1036 36 1000 b -7 1119 144 1047 -44 1056 z "},"{":{"ha":415,"x_min":0,"x_max":0,"o":"m 321 -115 l 233 -115 b 197 17 214 -75 206 -28 b 164 214 182 85 171 150 b 199 294 157 282 171 310 b 156 317 196 310 176 326 b 99 388 151 351 142 382 b 167 556 156 403 158 494 b 246 882 183 675 203 772 l 338 882 b 414 1083 504 882 494 1072 b 381 1064 399 1086 385 1079 b 400 1032 378 1050 386 1036 b 433 1060 418 1028 435 1042 b 339 926 489 988 418 926 l 264 926 b 318 1042 279 964 297 1004 b 153 882 288 997 211 883 b 163 847 161 875 163 863 b 114 556 161 765 125 646 b 0 388 104 475 104 401 b 99 317 47 381 82 356 b 54 294 76 326 57 310 b 111 224 81 310 104 283 b 140 17 117 156 126 88 b 182 -160 151 -47 165 -97 b 222 -318 194 -208 210 -265 b 214 -199 217 -264 211 -224 b 322 -160 217 -162 297 -160 b 417 -293 401 -160 471 -221 b 383 -265 418 -275 401 -261 b 364 -297 369 -269 360 -283 b 396 -317 368 -311 382 -319 b 321 -115 476 -304 488 -115 z "},"}":{"ha":408,"x_min":0,"x_max":0,"o":"m 60 -115 b -15 -317 -107 -115 -96 -304 b 17 -297 -1 -319 13 -311 b -3 -265 21 -283 11 -269 b -36 -293 -21 -261 -37 -275 b 58 -160 -90 -221 -21 -160 b 167 -199 83 -160 164 -162 b 158 -318 169 -224 164 -264 b 199 -160 171 -265 186 -208 b 240 17 215 -97 229 -47 b 269 224 254 88 264 156 b 326 294 276 283 300 310 b 282 317 324 310 304 326 b 381 388 299 356 333 381 b 267 556 276 401 276 475 b 218 847 256 646 219 765 b 228 882 218 863 219 875 b 63 1042 169 883 93 997 b 117 926 83 1004 101 964 l 42 926 b -53 1060 -37 926 -108 988 b -19 1032 -54 1042 -37 1028 b 0 1064 -6 1036 3 1050 b -33 1083 -4 1079 -18 1086 b 43 882 -114 1072 -124 882 l 135 882 b 214 556 178 772 197 675 b 282 388 222 494 225 403 b 225 317 239 382 229 351 b 182 294 204 326 185 310 b 217 214 210 310 224 282 b 183 17 210 150 199 85 b 147 -115 175 -28 167 -75 l 60 -115 z "},"|":{"ha":165,"x_min":0,"x_max":0,"o":"m 96 -69 l 96 214 b 138 294 96 282 110 310 b 96 317 135 310 117 326 l 96 785 b 107 1042 96 828 96 942 b 13 882 78 932 72 883 b 42 793 35 868 40 835 l 42 317 b 0 294 21 326 3 310 b 42 214 28 310 42 282 l 42 -61 b 31 -318 42 -104 42 -218 b 125 -160 60 -210 64 -160 b 96 -69 103 -144 96 -111 z "},"~":{"ha":532,"x_min":0,"x_max":0,"o":"m 494 422 b 293 414 457 447 374 432 b 56 396 208 390 115 361 b 75 419 67 399 75 408 b 51 444 75 433 64 444 b 28 419 38 444 28 433 b 93 314 28 371 108 368 b 293 322 131 289 214 304 b 532 340 379 346 472 375 b 513 317 521 338 513 328 b 536 292 513 303 522 292 b 560 317 550 292 560 303 b 494 422 560 365 479 368 z "},"":{"ha":464,"x_min":0,"x_max":0,"o":"m 343 836 b 361 815 342 825 350 817 b 381 835 371 815 381 824 b 363 854 381 844 372 853 b 407 808 361 856 408 867 b 211 896 404 733 201 774 b 81 728 181 786 164 728 b 111 638 103 713 110 679 l 111 494 b 0 504 83 496 49 499 b 83 410 110 475 83 432 b 111 429 90 419 99 425 l 111 382 b 83 403 99 386 90 393 b 0 307 83 379 110 338 b 111 318 49 313 83 315 l 111 258 b 93 175 110 211 111 186 b 264 0 190 149 249 79 b 404 175 282 75 307 100 b 385 249 385 192 385 213 b 414 417 385 286 436 363 b 253 200 425 289 267 275 b 294 190 268 221 294 213 b 264 71 292 144 283 94 b 199 258 233 117 199 165 l 199 319 l 200 319 b 276 290 242 318 263 313 b 360 385 276 313 251 356 b 199 372 265 374 238 372 l 199 439 b 360 428 238 439 265 438 b 276 522 251 457 276 500 b 200 493 263 500 242 493 l 199 493 l 199 739 b 356 728 236 703 324 700 b 265 651 340 694 265 693 b 288 646 274 663 282 658 b 286 531 304 610 300 568 b 406 626 319 574 363 601 b 421 808 350 718 419 738 b 343 836 422 875 344 878 z "},"":{"ha":399,"x_min":0,"x_max":0,"o":"m 268 294 b 226 317 265 310 247 326 l 226 629 b 399 617 267 629 306 628 b 315 713 290 647 315 689 b 226 682 301 689 267 683 l 226 785 b 238 1042 226 828 226 942 b 143 882 208 932 204 883 b 172 793 165 868 172 835 l 172 682 b 0 694 133 682 93 685 b 83 600 108 665 83 622 b 172 629 99 622 132 628 l 172 317 b 131 294 151 326 133 310 b 172 214 158 310 172 282 l 172 99 b 161 -160 172 54 172 -60 b 256 0 190 -50 196 0 b 226 89 233 15 228 49 l 226 214 b 268 294 226 282 240 310 z "},"":{"ha":369,"x_min":0,"x_max":0,"o":"m 275 656 b 293 635 274 644 282 635 b 313 653 304 635 313 643 b 296 672 313 664 306 672 b 339 628 294 674 340 686 b 200 614 338 581 258 579 l 200 794 l 185 794 l 185 625 b 143 715 158 646 140 676 b 13 546 114 606 97 547 b 43 457 36 532 42 499 l 43 317 b 0 294 22 326 3 310 b 43 239 24 308 42 286 b 25 175 42 204 40 185 b 185 40 106 154 160 101 l 185 -92 l 200 -92 l 200 17 b 338 175 219 79 249 106 b 317 249 318 192 317 213 b 346 417 317 286 368 363 b 200 232 356 308 244 282 l 200 474 b 219 465 208 481 215 476 b 218 349 236 429 232 388 b 338 446 251 393 296 421 b 354 628 282 536 351 556 b 275 656 356 694 278 696 z m 185 89 b 133 214 163 122 142 158 b 175 294 131 282 147 310 b 131 317 172 310 153 326 l 131 558 b 185 532 144 546 164 536 l 185 89 z m 226 190 b 200 78 224 149 217 103 l 200 211 b 226 190 214 214 226 206 z m 200 485 l 200 529 b 289 546 235 525 271 532 b 200 485 275 517 215 514 z "},"":{"ha":443,"x_min":0,"x_max":0,"o":"m 394 249 b 424 417 394 286 444 363 b 263 200 435 289 276 275 b 304 190 278 221 304 213 b 274 71 300 144 293 94 b 138 174 232 104 174 157 b 244 186 160 167 221 157 b 222 214 235 188 228 199 b 253 294 208 278 225 310 b 208 317 249 313 221 328 l 208 403 b 332 392 235 401 268 399 b 249 486 222 421 249 463 b 208 460 239 471 226 464 l 208 739 b 357 546 313 739 417 615 l 358 547 b 325 528 350 538 339 531 b 275 546 296 522 276 538 b 279 544 276 544 278 544 b 304 569 293 544 304 556 b 279 594 304 583 293 594 b 254 569 265 594 254 583 b 326 515 254 533 293 511 b 397 624 379 522 403 572 b 221 896 372 800 211 786 b 90 728 190 786 174 728 b 119 638 113 713 119 679 l 121 457 b -28 468 88 457 47 460 b 56 374 82 439 56 396 b 121 401 68 392 90 399 l 121 328 b 192 190 121 251 171 196 b 106 250 164 182 122 207 b 11 175 89 217 57 197 b 274 0 100 164 257 79 b 414 175 292 75 317 100 b 394 249 394 192 394 213 z "},"":{"ha":386,"x_min":0,"x_max":0,"o":"m 317 147 b 226 117 301 124 268 118 l 226 175 b 400 164 267 175 306 174 b 317 258 290 193 317 235 b 226 228 301 235 268 229 l 226 267 b 339 356 247 308 279 340 b 321 439 321 367 322 392 l 321 756 b 335 875 321 825 336 846 l 335 882 b 319 922 335 894 331 914 b 308 926 317 925 313 926 b 289 908 297 926 289 918 b 307 889 289 897 297 889 b 319 893 313 889 317 890 b 164 594 329 804 179 708 b 206 479 158 564 165 482 l 207 479 b 226 499 217 479 225 488 b 207 518 226 508 218 517 b 190 508 200 518 194 514 b 233 683 168 564 196 624 l 233 439 b 200 251 233 346 231 299 b 135 439 169 299 135 346 l 135 896 b 17 728 106 786 101 728 b 47 638 40 713 46 679 l 47 439 b 29 356 46 392 47 367 b 174 250 96 338 144 299 l 174 228 b 0 240 133 229 94 231 b 83 146 110 211 83 168 b 174 175 99 168 132 174 l 174 117 b 0 129 133 117 94 118 b 83 33 110 100 83 57 b 174 64 99 57 132 63 b 161 -160 172 10 171 -79 b 257 0 190 -50 196 0 b 228 64 239 11 231 35 b 400 51 268 64 307 63 b 317 147 290 81 317 124 z "},"":{"ha":583,"x_min":0,"x_max":0,"o":"m 535 163 b 510 289 453 244 497 269 b 415 308 485 276 451 289 l 375 332 b 244 417 340 351 311 369 b 375 503 311 464 340 483 l 415 525 b 510 544 451 546 485 558 b 535 672 497 565 453 590 b 447 610 497 644 469 625 b 488 792 426 639 374 678 b 260 639 365 701 317 672 l 201 606 b 63 578 147 576 99 558 b 0 417 103 507 82 439 b 63 257 76 397 103 328 b 201 229 99 276 147 258 l 260 196 b 488 43 317 163 365 133 b 447 225 374 157 426 196 b 535 163 469 210 497 190 z m 311 258 l 253 292 b 61 417 203 321 158 347 b 253 543 158 486 203 514 l 311 576 b 443 608 363 604 408 621 b 381 568 418 592 400 581 l 340 546 b 246 526 303 525 271 514 b 132 417 274 478 186 432 b 246 308 183 403 274 356 b 340 289 271 321 303 308 l 381 267 b 443 226 400 254 418 243 b 311 258 408 213 363 231 z "},"":{"ha":549,"x_min":0,"x_max":0,"o":"m 14 163 b 101 225 51 190 79 210 b 61 43 122 196 175 157 b 289 196 183 133 232 163 l 347 229 b 486 257 401 258 450 276 b 549 417 446 328 472 397 b 486 578 467 439 446 507 b 347 606 450 558 401 576 l 289 639 b 61 792 232 672 183 701 b 101 610 175 678 122 639 b 14 672 79 625 51 644 b 39 544 96 590 51 565 b 133 525 64 558 97 546 l 174 503 b 304 417 208 483 238 464 b 174 332 238 369 208 351 l 133 308 b 39 289 97 289 64 276 b 14 163 51 269 96 244 z m 238 258 b 106 226 186 231 140 213 b 168 267 131 243 149 254 l 208 289 b 303 308 246 308 278 321 b 417 417 275 356 365 403 b 303 526 363 432 275 478 b 208 546 278 514 246 525 l 168 568 b 106 608 149 581 131 592 b 238 576 140 621 186 604 l 296 543 b 488 417 346 514 390 486 b 296 292 390 347 346 321 z "},"":{"ha":338,"x_min":0,"x_max":0,"o":"m 318 346 b 235 389 292 340 264 360 b 365 503 263 417 292 443 b 239 510 267 446 256 494 b 197 426 244 483 225 456 b 83 557 168 454 142 483 b 75 431 139 458 90 447 b 158 389 101 436 129 417 b 28 275 131 360 101 333 b 154 267 126 331 138 282 b 197 350 149 293 168 321 b 311 219 225 322 251 293 b 318 346 254 318 303 329 z "},"":{"ha":910,"x_min":0,"x_max":0,"o":"m 757 674 b 454 799 679 751 572 799 b 153 674 338 799 231 751 b 28 372 76 596 28 490 b 153 69 28 254 76 147 b 454 -56 231 -7 338 -56 b 757 69 572 -56 679 -7 b 882 372 833 147 882 254 b 757 674 882 490 833 596 z m 814 294 b 828 214 842 310 854 282 b 740 86 807 165 778 122 b 454 -33 668 13 567 -33 b 168 86 343 -33 242 13 b 82 215 132 122 101 167 b 96 294 56 283 68 310 b 54 317 93 310 75 326 b 50 372 51 335 50 353 b 168 658 50 483 96 585 b 454 776 242 731 343 776 b 740 658 567 776 668 731 b 860 372 814 585 860 483 b 856 317 860 353 858 335 b 814 294 835 326 817 310 z m 568 219 b 522 192 553 219 522 211 b 536 178 522 185 528 178 b 550 192 543 178 550 186 b 544 203 550 197 547 200 b 640 129 593 221 640 176 b 579 67 640 99 617 67 b 460 147 539 67 492 88 l 460 271 b 481 311 460 306 467 319 b 460 322 479 319 471 328 l 460 440 b 475 503 460 467 465 486 b 518 519 482 514 501 531 b 603 476 550 496 568 485 b 504 278 572 436 475 336 b 592 250 525 285 565 233 b 618 471 489 267 586 429 b 650 560 638 497 650 525 b 633 586 650 572 646 586 b 618 572 625 586 618 581 b 632 558 618 564 625 558 b 639 561 633 558 638 558 b 633 528 639 549 636 538 b 544 564 597 531 581 536 b 447 440 526 560 447 532 l 447 172 b 424 322 433 210 424 258 l 424 439 b 489 560 424 517 457 533 b 317 694 399 554 418 694 b 233 610 263 694 233 654 b 317 526 233 564 271 526 b 331 540 325 526 331 533 b 317 554 331 547 325 554 b 304 535 307 554 301 544 b 242 611 271 539 242 571 b 317 688 242 651 272 688 b 389 561 372 688 399 624 b 333 447 379 504 333 476 b 379 428 349 465 379 458 l 379 371 b 265 301 329 428 231 381 b 382 258 281 354 363 339 b 308 311 367 290 340 315 b 293 253 276 308 268 269 b 338 265 307 243 338 246 b 324 279 338 274 332 279 b 310 265 317 279 310 274 b 321 253 310 260 314 254 b 296 256 313 250 303 250 b 308 306 275 269 281 304 b 376 157 369 311 407 214 b 311 138 361 129 338 119 b 338 208 265 168 306 231 b 357 186 344 204 351 197 b 340 213 353 199 349 208 b 296 117 290 246 233 157 b 386 151 333 93 369 115 b 396 194 393 164 396 179 b 568 40 431 83 510 40 b 657 129 626 40 657 88 b 568 219 657 189 606 219 z "},"":{"ha":908,"x_min":0,"x_max":0,"o":"m 756 674 b 454 799 678 751 572 799 b 153 674 336 799 229 751 b 28 372 75 596 28 490 b 153 69 28 254 75 147 b 454 -56 229 -7 336 -56 b 756 69 572 -56 678 -7 b 881 372 833 147 881 254 b 756 674 881 490 833 596 z m 813 294 b 826 215 840 310 853 282 b 740 86 806 167 776 122 b 454 -33 667 13 565 -33 b 168 86 342 -33 242 13 b 81 217 131 122 101 167 b 94 294 56 283 67 310 b 53 317 92 310 74 326 b 50 372 50 335 50 353 b 168 658 50 483 94 585 b 454 776 242 731 342 776 b 740 658 565 776 667 731 b 858 372 813 585 858 483 b 854 317 858 353 857 335 b 813 294 833 326 815 310 z m 633 403 l 633 493 b 683 639 633 601 676 590 b 539 546 660 592 578 585 b 507 461 515 522 507 493 l 507 110 b 488 97 499 106 493 101 l 488 461 b 551 581 488 518 500 553 b 461 647 507 578 474 606 b 417 715 453 675 460 714 b 406 653 372 715 376 653 b 418 665 413 653 418 658 b 406 679 418 674 413 679 b 392 671 399 679 394 676 b 415 708 386 685 394 707 b 449 669 439 710 451 690 b 319 575 440 604 372 586 b 319 444 229 556 240 450 b 389 461 338 443 375 449 b 321 454 374 456 346 450 b 324 543 264 465 269 529 b 419 528 350 549 385 546 b 460 583 432 536 451 550 b 396 468 464 517 403 517 b 442 449 413 486 442 479 l 442 386 b 325 322 394 451 289 403 b 442 283 342 383 439 389 l 442 125 b 390 178 431 147 413 165 b 426 272 414 207 426 243 b 338 296 426 364 338 349 b 374 256 338 278 354 256 b 388 269 382 256 388 261 b 374 282 388 276 382 282 b 361 264 365 282 358 274 b 343 296 350 271 343 283 b 418 272 343 339 418 357 b 293 139 418 217 372 146 b 226 197 254 136 226 154 b 322 218 226 267 322 268 b 311 181 322 207 319 196 b 329 217 322 194 329 207 b 194 197 329 294 194 294 b 294 124 194 140 244 118 b 510 -15 440 142 411 -1 b 551 14 532 -18 549 -1 b 519 56 556 33 543 58 b 507 42 513 54 507 49 b 521 28 507 35 513 28 b 533 43 529 28 535 36 b 546 15 542 38 547 26 b 510 -10 543 -3 525 -12 b 549 103 432 3 485 121 b 518 114 544 110 532 118 l 518 303 b 579 271 535 300 558 261 b 619 343 544 276 576 344 b 588 292 601 342 588 318 l 588 185 b 578 143 588 161 588 149 b 649 53 628 129 640 93 b 665 181 656 93 674 143 b 649 147 665 163 660 147 b 633 185 633 149 633 169 l 633 290 b 654 332 633 326 640 340 b 572 338 649 360 592 358 b 633 403 586 363 608 389 z m 588 493 l 588 388 b 518 317 567 368 529 340 l 518 461 b 597 564 518 513 549 549 b 588 493 593 553 588 542 z "},"":{"ha":389,"x_min":0,"x_max":0,"o":"m 361 294 b 317 317 357 310 339 326 l 317 399 l 317 485 l 317 650 l 264 650 b 215 664 256 650 236 654 b 315 829 249 710 318 767 b 236 856 317 897 238 899 b 254 836 236 846 244 838 b 274 856 265 836 274 844 b 257 875 275 865 267 874 b 300 829 256 876 301 888 b 247 792 300 803 276 790 b 143 917 204 794 143 869 b 25 749 124 844 118 749 b 56 658 47 733 54 700 l 56 493 l 56 458 b 125 449 63 460 92 457 b 176 367 124 404 136 367 b 207 393 196 367 207 378 b 185 411 208 403 196 414 b 169 394 178 410 169 404 b 175 379 169 386 172 382 b 144 444 151 382 144 410 b 229 394 188 433 229 415 l 229 317 b 186 294 208 326 189 310 b 229 215 214 310 228 282 b 196 71 228 165 222 111 b 131 258 153 135 131 179 l 131 285 b 153 294 132 301 142 317 b 99 349 154 322 125 336 b 15 449 60 367 14 386 b 39 318 -4 388 26 372 b 0 294 19 325 3 308 b 42 214 28 310 43 282 b 25 175 40 194 36 182 b 196 0 121 150 171 92 b 338 175 222 93 261 117 b 318 215 325 185 319 199 b 361 294 314 282 332 310 z m 231 721 b 194 674 218 707 207 690 b 143 747 168 690 143 714 b 231 721 172 726 203 715 z m 144 567 b 144 624 144 588 144 611 b 163 619 150 622 157 621 b 154 600 160 613 157 606 b 144 567 153 594 149 582 z m 229 490 b 153 521 203 494 179 504 b 172 589 158 549 167 575 b 183 613 176 597 179 604 b 229 560 210 601 229 585 l 229 490 z "},"":{"ha":78,"x_min":0,"x_max":0,"o":"m 69 1001 l 69 1097 b 76 1131 71 1115 72 1124 b -40 1043 44 1099 -40 1122 l -40 1006 b -49 972 -42 988 -40 976 b 21 901 -8 961 15 933 b 78 972 29 932 39 942 b 69 1001 71 979 69 988 z m 35 1001 b 21 929 35 981 32 943 b -6 1006 8 949 -6 968 l -6 1043 b -3 1064 -6 1051 -4 1058 b 11 1072 6 1060 11 1063 b 3 1075 8 1068 4 1071 b 35 1068 3 1093 35 1106 l 35 1001 z "},"":{"ha":153,"x_min":0,"x_max":0,"o":"m 115 1119 b 51 1022 119 1069 81 1036 b -11 1119 22 1036 -15 1069 b 26 939 -125 1011 64 1003 b 51 1007 53 960 38 990 b 76 939 65 990 51 960 b 115 1119 40 1003 229 1011 z "},"":{"ha":153,"x_min":0,"x_max":0,"o":"m 78 1119 b 53 1051 51 1100 67 1068 b 26 1119 39 1068 53 1100 b -11 939 64 1056 -125 1047 b 53 1036 -15 990 22 1024 b 115 939 82 1024 119 990 b 78 1119 229 1047 40 1056 z "},"":{"ha":204,"x_min":0,"x_max":0,"o":"m 204 1039 b 169 1119 168 1054 115 1089 b 76 1044 119 1113 110 1058 b 51 1119 42 1061 1 1092 b -49 1042 -1 1113 -8 1053 b 31 939 53 1025 -7 967 b 83 1039 0 976 57 1025 b 149 939 165 1019 114 965 b 204 1039 118 976 176 1028 z "},"":{"ha":175,"x_min":0,"x_max":0,"o":"m 158 71 b 104 -39 138 60 103 -24 b 151 -132 108 -67 132 -107 b 101 -193 147 -142 117 -172 b 46 -108 83 -169 46 -139 b 69 -60 46 -93 54 -68 b 88 -62 76 -57 83 -57 b 68 -56 86 -56 76 -53 b 1 -124 42 -65 35 -114 b 85 -250 0 -164 65 -206 b 203 -108 100 -224 178 -119 b 158 71 154 -93 135 26 z "},"":{"ha":232,"x_min":0,"x_max":0,"o":"m 192 1074 b -32 1058 140 1110 31 1022 b -19 1072 -25 1060 -19 1065 b -33 1088 -19 1081 -26 1088 b -49 1072 -42 1088 -49 1081 b -8 1010 -49 1043 0 1042 b 215 1025 43 974 153 1061 b 203 1011 208 1024 203 1018 b 217 996 203 1003 210 996 b 232 1011 225 996 232 1003 b 192 1074 232 1040 183 1042 z "},"":{"ha":1144,"x_min":0,"x_max":0,"o":"m 1082 114 b 993 61 1053 114 993 99 b 1019 35 993 46 1004 35 b 1046 61 1035 35 1046 50 b 1036 82 1046 72 1042 76 b 1222 -61 1132 118 1222 31 b 1103 -183 1222 -122 1176 -183 b 871 54 1025 -183 871 -85 l 871 214 b 913 294 871 282 885 310 b 871 317 910 310 892 326 l 871 383 l 1025 383 b 935 192 957 301 928 213 b 1061 129 967 199 999 108 b 1107 468 896 154 1071 393 b 1104 565 1124 500 1128 532 b 1090 472 1117 535 1108 503 l 919 472 b 1196 781 1025 608 1200 596 b 1163 831 1194 803 1188 831 b 1135 803 1147 829 1135 819 b 1161 776 1135 789 1146 776 b 1175 781 1167 776 1171 778 b 1164 717 1176 753 1175 733 b 1036 788 1132 694 1085 744 b 847 546 1000 778 847 724 l 847 0 b 832 -65 847 -37 847 -65 b 801 8 804 -64 801 -24 l 801 608 b 901 893 801 821 888 799 b 556 546 828 754 556 811 l 556 -140 b 518 -165 542 -146 528 -154 l 518 546 b 643 779 518 657 543 725 b 467 911 556 774 490 828 b 379 1042 451 964 463 1042 b 357 919 293 1043 303 919 b 383 946 372 919 383 932 b 357 974 383 961 372 974 b 332 956 346 974 336 965 b 376 1029 321 982 335 1026 b 442 953 422 1033 446 994 b 190 769 425 826 293 792 b 189 514 14 732 35 524 b 325 546 225 513 299 522 b 194 533 296 535 240 525 b 199 706 82 554 92 681 b 386 676 249 718 317 711 b 464 786 408 694 447 721 b 340 561 472 654 351 656 b 429 521 371 596 429 581 l 429 401 b 200 275 335 528 129 433 b 429 199 233 394 422 404 l 429 -110 b 328 -6 407 -65 371 -31 b 399 179 374 51 399 119 b 226 225 399 358 226 326 b 297 144 226 188 257 144 b 324 171 313 144 324 157 b 297 197 324 186 311 197 b 272 163 279 197 265 179 b 236 225 250 175 236 199 b 383 178 236 308 383 343 b 139 -82 383 69 292 -68 b 8 31 63 -87 8 -51 b 196 71 8 167 196 171 b 174 0 196 51 190 28 b 208 71 196 25 208 49 b -56 33 208 222 -56 219 b 142 -111 -56 -79 43 -124 b 560 -383 426 -76 368 -357 b 643 -326 606 -389 638 -357 b 579 -246 650 -289 625 -240 b 556 -272 567 -247 556 -258 b 582 -299 556 -286 568 -299 b 608 -268 599 -299 611 -285 b 632 -324 625 -279 636 -303 b 563 -372 626 -358 592 -378 b 636 -153 410 -347 511 -118 b 578 -132 629 -137 606 -124 l 578 214 b 621 294 578 282 593 310 b 578 317 618 310 599 326 l 578 392 l 714 392 l 714 317 b 671 294 693 326 674 310 b 714 214 699 310 714 282 l 714 8 b 696 -75 713 -39 714 -64 b 997 -221 793 -101 882 -186 b 1082 -236 1026 -231 1056 -236 b 1256 -61 1197 -236 1256 -143 b 1082 114 1256 56 1157 114 z m 714 608 l 714 472 l 578 472 l 578 546 b 733 746 578 694 690 733 b 714 608 724 725 714 704 z m 871 546 b 993 696 871 599 919 749 b 1083 631 1050 654 1050 642 b 871 442 988 572 933 543 z "},"":{"ha":1074,"x_min":0,"x_max":0,"o":"m 531 324 b 604 472 564 353 589 432 b 581 694 578 513 514 638 b 479 472 471 632 521 501 b 531 324 506 432 567 392 z m 1010 114 b 921 61 982 114 921 99 b 949 35 921 46 933 35 b 975 61 963 35 975 50 b 965 82 975 72 971 76 b 1150 -61 1060 118 1150 31 b 1032 -183 1150 -122 1106 -183 b 818 0 954 -183 864 -129 b 799 36 813 14 807 25 l 799 214 b 842 294 799 282 813 310 b 799 317 838 310 819 326 l 799 383 l 954 383 b 863 192 886 301 857 213 b 989 129 896 199 926 108 b 1036 468 825 154 999 393 b 1033 565 1053 500 1056 532 b 1019 472 1046 535 1038 503 l 849 472 b 1124 781 954 608 1129 596 b 1092 831 1124 803 1117 831 b 1063 803 1075 829 1063 819 b 1089 776 1063 789 1075 776 b 1104 781 1094 776 1100 778 b 1092 717 1106 753 1103 733 b 965 788 1061 694 1013 744 b 776 546 929 778 776 724 l 776 64 b 728 96 761 78 744 89 l 728 608 b 828 893 728 821 814 799 b 419 546 756 758 419 808 b 419 24 419 546 419 185 b 374 315 390 96 374 192 l 374 544 b 500 779 374 694 438 728 b 164 1042 322 768 361 1042 b 0 878 57 1042 0 963 b 164 715 0 788 72 715 b 190 742 179 715 190 726 b 164 768 190 756 179 768 b 139 731 144 768 132 749 b 17 881 75 739 17 803 b 163 1029 17 960 76 1029 b 303 781 272 1029 324 904 b 196 561 285 671 197 615 b 285 521 226 596 285 581 l 285 411 b 64 275 188 522 -6 429 b 292 189 93 379 254 347 b 146 294 261 253 208 301 b 118 179 85 289 68 211 b 204 206 144 161 204 167 b 176 232 204 219 192 232 b 150 206 163 232 150 219 b 171 179 150 193 158 182 b 121 185 154 174 136 175 b 146 283 81 211 93 279 b 279 -8 265 293 339 103 b 151 -44 251 -60 204 -79 b 206 94 63 14 140 136 b 242 50 218 86 231 72 b 210 103 235 75 224 93 b 122 -86 113 167 1 -6 b 300 -19 196 -133 265 -89 b 319 65 313 6 318 35 b 653 -236 386 -150 539 -236 b 806 -149 728 -236 778 -197 b 1010 -236 871 -210 947 -236 b 1185 -61 1125 -236 1185 -143 b 1010 114 1185 56 1085 114 z m 799 546 b 921 696 799 599 847 749 b 1013 631 978 654 979 642 b 799 442 915 572 863 543 l 799 546 z m 675 -183 b 442 -26 597 -183 504 -143 b 442 214 442 18 442 113 b 485 294 442 235 442 318 b 442 317 481 310 463 326 b 442 546 442 440 442 546 b 660 763 442 722 617 750 b 639 608 650 742 639 704 l 639 317 b 597 294 618 326 600 310 b 639 214 625 310 639 282 l 639 113 b 564 61 608 110 564 94 b 592 35 564 46 576 35 b 618 61 606 35 618 50 b 608 82 618 72 614 76 b 793 -61 703 118 793 31 b 675 -183 793 -122 749 -183 z m 604 175 b 531 296 589 215 558 261 b 479 175 551 228 506 215 b 554 32 521 146 489 58 b 604 175 504 81 578 135 z "},"":{"ha":554,"x_min":0,"x_max":0,"o":"m 461 654 b 479 635 460 644 468 635 b 499 653 489 635 499 643 b 481 672 499 664 492 672 b 525 628 479 674 526 686 b 349 656 524 568 383 586 b 347 657 349 657 347 657 l 347 658 b 275 654 329 694 276 689 b 293 635 275 644 283 635 b 313 653 304 635 313 643 b 296 672 313 664 306 672 b 339 628 293 674 340 686 b 143 715 338 553 133 593 b 13 546 114 606 97 547 b 25 392 65 513 25 460 b 153 532 60 485 132 469 b 135 554 133 511 135 536 b 289 546 174 521 257 521 b 249 514 282 531 265 521 b 43 351 160 474 43 436 l 43 317 b 0 294 22 326 3 310 b 42 214 28 310 42 282 b 25 175 40 194 36 182 b 196 0 122 149 181 79 b 290 139 211 61 231 89 b 382 0 340 104 371 54 b 522 175 400 75 426 100 b 503 249 504 192 503 213 b 532 417 503 286 554 363 b 371 200 543 289 385 275 b 413 190 386 221 413 213 b 382 71 410 144 401 94 b 342 139 368 92 353 114 b 396 164 360 132 394 140 b 378 183 396 175 388 183 b 358 165 367 183 358 175 b 364 150 357 158 360 153 b 335 201 351 144 335 172 b 506 435 335 282 424 383 l 524 446 b 539 628 468 536 538 558 b 461 654 542 696 461 696 z m 229 317 b 186 294 207 326 189 310 b 228 214 214 310 228 282 b 196 71 226 163 219 99 b 135 210 171 108 144 147 b 175 294 131 233 133 318 b 131 317 172 310 153 326 l 131 351 b 136 401 131 369 133 386 b 172 421 157 390 171 400 b 151 431 164 410 153 417 b 229 411 149 474 229 504 z m 383 471 b 406 465 393 482 400 478 b 415 429 411 454 414 442 b 317 250 413 372 339 310 l 317 483 b 326 550 318 514 321 535 b 474 546 367 521 444 522 b 383 471 458 513 383 513 z "},"":{"ha":554,"x_min":0,"x_max":0,"o":"m 461 654 b 479 635 461 644 469 635 b 499 653 490 635 499 643 b 482 672 499 664 492 672 b 525 628 479 674 526 686 b 349 656 524 568 383 586 b 347 657 349 657 349 657 l 347 658 b 275 654 329 694 276 689 b 293 635 275 644 283 635 b 313 653 304 635 313 643 b 296 672 314 664 306 672 b 339 628 294 674 340 686 b 143 715 338 553 133 593 b 14 546 114 606 97 547 b 43 457 36 532 42 499 l 43 317 b 0 294 22 326 3 310 b 42 214 28 310 43 282 b 25 175 40 194 36 182 b 196 0 122 149 181 79 b 292 139 211 61 232 89 b 382 0 340 104 371 54 b 524 175 400 75 426 100 b 503 249 504 192 503 213 b 532 417 503 286 554 363 b 371 200 543 289 385 275 b 413 190 386 221 413 213 b 382 71 410 144 401 94 b 342 139 368 92 353 114 b 396 164 360 132 394 140 b 378 183 396 175 388 183 b 358 165 367 183 358 175 b 365 150 358 158 361 153 b 335 201 351 144 335 172 b 506 435 335 282 424 383 l 524 446 b 539 628 468 536 538 558 b 461 654 542 696 463 696 z m 197 471 b 229 422 221 497 229 435 l 229 317 b 186 294 208 326 189 310 b 228 214 214 310 229 282 b 196 71 226 163 219 97 b 135 214 171 110 143 149 b 175 294 133 235 132 318 b 132 317 172 310 153 326 l 132 558 b 289 546 168 522 257 519 b 197 471 274 513 197 513 z m 383 471 b 406 465 393 482 400 478 b 415 429 411 454 414 442 b 317 250 413 372 339 310 l 317 483 b 326 550 317 517 321 536 b 475 546 367 521 444 522 b 383 471 460 513 383 513 z "},"":{"ha":828,"x_min":0,"x_max":0,"o":"m 694 -6 b 729 -76 694 -26 707 -50 b 707 -4 713 -47 707 -25 b 840 -14 707 94 840 90 b 646 -89 840 -104 721 -153 b 578 -121 619 -100 597 -111 l 578 247 l 590 260 b 728 379 621 290 649 317 b 601 388 629 324 617 371 b 578 326 601 369 593 347 l 578 546 b 628 692 578 601 594 649 b 692 700 646 706 669 715 b 783 631 714 683 747 647 b 628 472 699 557 611 524 b 753 410 660 478 685 389 b 900 746 590 436 832 625 b 878 831 929 797 913 831 b 851 803 864 831 851 818 b 878 776 851 789 864 776 b 897 785 886 776 892 779 b 860 717 886 760 874 738 b 744 788 790 726 772 764 b 554 546 707 778 554 735 l 554 299 b 517 261 542 286 529 274 l 517 546 b 643 779 517 657 543 725 b 465 911 554 774 490 828 b 378 1042 450 964 463 1042 b 357 919 292 1043 301 919 b 383 946 371 919 383 932 b 357 974 383 961 371 974 b 332 956 344 974 335 965 b 376 1029 319 982 335 1026 b 440 953 422 1033 446 994 b 189 769 425 826 292 792 b 188 514 14 732 33 524 b 324 546 225 513 299 522 b 193 533 294 535 239 525 b 197 706 82 554 92 681 b 385 676 247 718 315 711 b 464 786 407 694 446 721 b 339 561 471 654 350 656 b 429 521 369 596 429 581 l 429 401 b 199 275 335 528 128 433 b 429 199 232 394 422 404 l 429 -110 b 328 -6 406 -65 369 -31 b 397 179 374 51 397 119 b 225 225 397 358 225 326 b 296 144 225 188 256 144 b 322 171 311 144 322 157 b 296 197 322 186 311 197 b 271 163 278 197 265 179 b 235 225 250 175 235 199 b 382 178 235 308 382 343 b 138 -82 382 69 292 -68 b 8 31 61 -87 8 -51 b 196 71 8 167 196 171 b 174 0 196 51 190 28 b 208 71 196 25 208 49 b -56 33 208 222 -56 219 b 140 -111 -56 -79 42 -124 b 560 -383 426 -76 368 -357 b 643 -326 606 -389 638 -357 b 579 -246 649 -289 625 -240 b 556 -272 565 -247 556 -258 b 582 -299 556 -286 567 -299 b 608 -268 597 -299 610 -285 b 632 -324 624 -279 635 -303 b 561 -372 626 -358 592 -378 b 492 -250 490 -361 475 -304 b 765 -250 538 -136 743 -197 b 925 -43 765 -174 925 -161 b 694 -6 925 144 694 146 z m 554 -135 b 517 -165 542 -143 528 -154 l 517 143 b 554 224 517 169 529 196 l 554 -135 z "},"":{"ha":215,"x_min":0,"x_max":0,"o":"m 161 185 b 135 214 146 186 139 199 b 174 294 129 281 146 310 b 131 317 171 310 153 326 l 131 429 b 257 539 158 456 188 482 b 131 546 160 482 147 531 l 131 715 b 143 972 131 758 132 872 b 13 804 114 863 97 804 b 43 714 36 789 42 756 l 43 417 b -79 311 17 390 -14 364 b 33 319 -8 351 18 338 b 3 294 17 319 4 307 b 43 240 26 308 42 288 b 25 175 42 219 43 188 b 161 0 122 149 146 79 b 196 250 176 78 211 176 b 161 185 196 213 185 185 z "},"":{"ha":369,"x_min":0,"x_max":0,"o":"m 275 656 b 294 635 275 644 283 635 b 314 653 304 635 313 643 b 296 672 314 664 306 672 b 339 628 294 674 342 686 b 143 715 338 553 133 593 b 14 546 114 606 97 547 b 43 457 36 532 42 499 l 43 317 b 0 294 22 326 3 310 b 42 214 28 310 43 282 b 25 175 40 194 36 182 b 192 22 114 151 169 92 b 171 -39 179 -4 169 -31 b 218 -132 175 -67 199 -107 b 168 -193 214 -142 183 -172 b 113 -108 150 -169 113 -139 b 136 -60 111 -93 121 -68 b 153 -62 143 -57 150 -57 b 135 -56 153 -56 143 -53 b 67 -124 108 -65 100 -114 b 151 -250 67 -164 131 -206 b 269 -108 167 -224 244 -119 b 225 71 221 -93 201 26 b 338 175 246 103 278 129 b 317 249 318 192 317 213 b 347 417 317 286 368 363 b 186 200 358 289 200 275 b 228 190 201 221 226 213 b 196 71 224 144 215 94 b 135 214 164 119 142 154 b 175 294 128 282 147 310 b 132 317 172 310 153 326 l 132 558 b 289 546 169 522 257 519 b 199 471 274 513 199 513 b 221 465 207 482 215 478 b 218 349 238 429 232 388 b 338 446 253 393 296 421 b 354 628 283 536 351 556 b 275 656 356 694 278 696 z "},"":{"ha":743,"x_min":0,"x_max":0,"o":"m 653 114 b 564 61 624 114 564 99 b 590 35 564 46 575 35 b 617 61 604 35 617 50 b 607 82 617 72 613 76 b 793 -61 703 118 793 31 b 674 -183 793 -122 747 -183 b 442 -26 596 -183 503 -143 l 442 214 b 483 294 442 282 456 310 b 442 317 481 310 463 326 l 442 546 b 471 668 442 597 453 636 b 554 700 483 689 522 724 b 722 617 617 656 654 632 b 529 228 661 539 471 343 b 697 175 568 242 649 142 b 750 607 499 208 689 524 b 813 781 788 656 814 711 b 781 831 813 803 806 831 b 751 803 764 831 751 819 b 778 776 751 789 763 776 b 792 781 781 776 789 778 b 779 717 792 758 788 736 b 607 788 710 721 678 733 b 418 546 571 778 418 724 l 418 24 b 372 315 390 96 372 192 l 372 544 b 499 779 372 694 436 728 b 163 1042 322 768 361 1042 b 0 878 57 1042 0 963 b 163 715 0 788 72 715 b 190 742 178 715 190 726 b 163 768 190 756 178 768 b 139 731 144 768 131 749 b 15 881 74 739 15 803 b 161 1029 15 960 75 1029 b 303 781 271 1029 322 904 b 194 561 285 671 196 615 b 285 521 225 596 285 581 l 285 411 b 63 275 188 522 -7 429 b 290 189 92 379 253 347 b 144 294 260 253 208 301 b 117 179 85 289 67 211 b 203 206 144 161 203 167 b 176 232 203 219 190 232 b 150 206 161 232 150 219 b 169 179 150 193 158 182 b 121 185 154 174 136 175 b 144 283 81 211 92 279 b 278 -8 265 293 339 103 b 150 -44 250 -60 204 -79 b 204 94 63 14 139 136 b 239 51 217 86 228 74 b 210 103 232 76 222 93 b 122 -86 111 167 0 -6 b 299 -19 194 -133 265 -89 b 318 65 311 6 318 35 b 653 -236 385 -150 538 -236 b 685 -233 664 -236 675 -235 b 656 -307 660 -257 651 -287 b 701 -400 661 -335 683 -375 b 653 -461 699 -410 667 -440 b 596 -376 633 -437 597 -407 b 619 -328 596 -361 604 -336 b 638 -331 628 -324 633 -325 b 619 -324 636 -324 626 -321 b 551 -392 593 -333 585 -382 b 636 -518 551 -432 615 -474 b 754 -376 651 -492 729 -387 b 746 -210 708 -362 681 -264 b 760 -200 751 -207 756 -204 b 826 -61 804 -167 826 -111 b 653 114 826 56 728 114 z "},"":{"ha":949,"x_min":0,"x_max":0,"o":"m 901 -29 b 822 4 875 -11 840 0 b 904 214 907 56 919 129 b 921 294 893 285 904 314 b 878 317 918 310 899 326 b 856 378 878 317 858 372 b 804 674 818 485 793 563 b 901 893 819 817 889 810 b 556 546 829 758 556 808 l 556 544 l 556 317 l 526 317 b 517 317 524 317 519 317 l 517 546 b 643 779 517 657 543 725 b 467 911 556 774 490 828 b 379 1042 451 964 463 1042 b 357 919 292 1043 301 919 b 383 946 372 919 383 932 b 357 974 383 961 372 974 b 332 956 346 974 336 965 b 376 1029 321 982 335 1026 b 442 953 422 1033 446 994 b 190 769 425 826 293 792 b 189 514 14 732 35 524 b 325 546 225 513 299 522 b 194 533 294 535 240 525 b 199 706 82 554 92 681 b 386 676 249 718 317 711 b 464 786 408 694 447 721 b 339 561 472 654 351 656 b 429 521 371 596 429 581 l 429 401 b 200 275 335 528 129 433 b 429 199 233 394 422 404 l 429 -110 b 328 -6 407 -65 371 -31 b 399 179 374 51 399 119 b 226 225 399 358 226 326 b 297 144 226 188 257 144 b 324 171 311 144 324 157 b 297 197 324 186 311 197 b 271 163 278 197 265 179 b 236 225 250 175 236 199 b 383 178 236 308 383 343 b 139 -82 383 69 292 -68 b 8 31 63 -87 8 -51 b 196 71 8 167 196 171 b 174 0 196 51 190 28 b 208 71 196 25 208 49 b -56 33 208 222 -56 219 b 142 -111 -56 -79 43 -124 b 560 -383 426 -76 368 -357 b 643 -326 606 -389 638 -357 b 579 -246 650 -289 625 -240 b 556 -272 565 -247 556 -258 b 582 -299 556 -286 568 -299 b 608 -268 599 -299 611 -285 b 632 -324 625 -279 636 -303 b 563 -372 626 -358 592 -378 b 488 -307 517 -365 493 -339 b 496 -240 488 -283 490 -261 b 636 -153 517 -185 574 -136 b 544 -144 618 -118 571 -131 b 813 -31 599 -69 693 -10 b 824 -240 936 -51 915 -240 b 765 -106 735 -240 713 -146 b 826 -286 688 -124 674 -287 b 901 -29 958 -285 1014 -104 z m 556 -46 b 517 -83 542 -57 529 -69 l 517 264 l 556 264 z m 739 61 b 578 -26 690 47 632 17 l 578 264 b 743 251 615 264 656 261 b 660 347 635 281 660 324 b 578 317 646 325 615 319 l 578 546 b 733 746 578 694 690 733 b 774 349 682 628 735 460 b 785 317 776 338 781 328 b 742 294 763 326 744 310 b 813 215 769 310 801 272 b 739 61 825 146 814 89 z "},"":{"ha":461,"x_min":0,"x_max":0,"o":"m 433 294 b 390 317 431 310 413 326 b 325 625 389 486 375 557 b 400 617 346 624 369 621 b 317 713 290 647 317 689 b 271 686 307 699 292 690 b 218 972 169 789 188 843 b 89 804 178 871 172 804 b 165 682 94 761 129 721 b 0 694 128 683 88 685 b 83 600 110 665 83 622 b 174 629 99 622 132 628 l 218 629 b 232 615 222 625 228 619 b 88 546 190 579 119 547 b 118 457 110 532 117 499 l 118 317 b 74 294 96 326 76 310 b 117 214 101 310 118 282 b 100 175 114 194 111 182 b 271 0 196 149 254 79 b 411 175 289 75 314 100 b 393 214 399 185 394 197 b 433 294 386 282 406 310 z m 303 217 b 271 71 300 164 293 99 b 208 214 239 119 217 154 b 249 294 201 282 221 310 b 206 317 246 310 226 326 l 206 519 b 235 546 206 536 219 549 b 244 478 281 539 269 476 b 254 493 250 481 254 486 b 235 513 254 503 246 513 b 251 458 203 513 213 458 b 294 483 272 458 286 468 b 303 317 300 442 303 389 b 260 294 282 326 264 310 b 303 217 288 310 304 282 z "},"":{"ha":786,"x_min":0,"x_max":0,"o":"m 867 638 b 1006 856 889 676 947 774 b 844 765 926 775 897 735 b 825 672 857 740 844 708 l 728 503 l 728 608 b 828 893 728 821 814 799 b 419 546 756 758 419 808 b 419 24 419 546 419 185 b 374 315 390 96 374 192 l 374 544 b 500 779 374 694 438 728 b 164 1042 322 768 361 1042 b 0 878 58 1042 0 963 b 164 715 0 788 72 715 b 190 742 179 715 190 726 b 164 768 190 756 179 768 b 139 731 144 768 132 749 b 17 881 75 739 17 803 b 163 1029 17 960 76 1029 b 303 781 272 1029 324 904 b 196 561 285 671 197 615 b 285 521 226 596 285 581 l 285 411 b 64 275 188 522 -6 429 b 292 189 93 379 254 347 b 146 294 261 253 208 301 b 118 179 86 289 68 211 b 204 206 144 161 204 167 b 176 232 204 219 192 232 b 150 206 163 232 150 219 b 171 179 150 193 158 182 b 122 185 154 174 136 175 b 146 283 82 211 93 279 b 279 -8 265 293 339 103 b 151 -44 251 -60 204 -79 b 206 94 63 14 140 136 b 242 50 218 86 231 72 b 210 103 235 75 225 93 b 122 -86 113 167 1 -6 b 300 -19 196 -133 267 -89 b 319 65 313 6 318 35 b 390 -82 338 7 361 -42 b 260 -285 364 -126 313 -212 b 421 -194 339 -204 368 -164 b 428 -128 413 -176 417 -153 b 653 -236 497 -203 583 -236 b 828 -61 769 -236 828 -143 b 728 96 828 18 781 71 l 728 214 b 768 294 728 282 740 310 b 728 317 765 310 749 325 l 728 397 z m 442 214 b 485 294 442 282 457 310 b 442 317 482 310 463 326 l 442 546 b 660 763 442 722 617 750 b 640 608 650 742 640 704 l 640 350 l 442 8 z m 794 -61 b 675 -183 794 -122 749 -183 b 463 -61 606 -183 524 -151 l 640 244 l 640 113 b 565 61 608 110 565 94 b 592 35 565 46 576 35 b 618 61 606 35 618 50 b 608 82 618 72 614 76 b 794 -61 704 118 794 31 z "},"":{"ha":389,"x_min":0,"x_max":0,"o":"m 404 546 b 543 764 426 583 483 682 b 382 672 464 683 435 643 b 363 581 394 649 382 617 l 319 504 b 356 628 324 581 353 567 b 276 654 357 696 278 696 b 294 635 276 644 285 635 b 314 653 306 635 314 643 b 297 672 314 664 307 672 b 340 628 296 674 342 686 b 144 715 339 553 135 593 b 14 546 115 606 99 547 b 44 457 38 532 43 499 l 44 317 b 1 294 24 326 4 310 b 43 214 29 310 44 282 b 26 175 42 194 38 182 b 107 138 57 167 85 154 l 104 133 b -35 -83 83 96 25 -3 b 128 7 46 -4 75 36 b 146 99 115 31 126 63 l 147 101 b 197 0 174 72 190 38 b 339 175 215 75 242 100 b 319 214 326 185 321 197 b 360 294 313 282 332 310 b 318 317 357 310 339 326 l 318 397 z m 197 71 b 163 128 186 89 174 107 l 231 244 b 197 71 231 192 225 104 z m 199 471 b 231 422 222 497 229 435 l 231 350 l 139 193 b 135 217 138 201 136 210 b 176 294 129 283 149 310 b 132 317 174 310 154 326 l 132 558 b 290 546 169 522 257 519 b 199 471 275 513 199 513 z "},"":{"ha":481,"x_min":0,"x_max":0,"o":"m 404 317 b 315 646 406 386 407 646 b 257 625 294 646 275 638 b 360 681 285 668 319 694 b 411 596 388 665 410 640 b 401 778 429 642 401 674 b 501 1063 401 990 488 969 b 289 963 465 996 368 992 b 61 804 168 919 144 804 b 92 714 83 789 90 756 l 92 317 b 47 294 69 326 50 310 b 81 286 61 303 72 300 b 121 -31 -92 275 -103 -33 b 424 175 263 -29 325 99 b 404 214 411 185 407 197 b 446 294 400 282 418 310 b 404 317 443 310 425 326 z m 315 317 b 272 294 294 326 275 310 b 313 214 300 310 318 282 b 106 13 297 111 217 -1 b 133 240 -21 28 -7 265 b 190 115 190 231 218 167 b 167 131 186 124 178 131 b 142 106 153 131 142 119 b 174 82 142 89 157 78 b 182 261 226 92 263 207 b 222 294 188 294 203 306 b 179 317 219 310 200 326 b 193 461 179 371 181 406 b 275 546 208 507 235 546 b 315 317 318 546 315 361 z m 179 754 b 333 915 179 856 256 913 b 314 800 317 875 315 842 b 179 536 313 732 200 644 z "},"":{"ha":68,"x_min":0,"x_max":0,"o":"m 26 1119 b -11 939 64 1056 -125 1047 b 68 1042 -17 1000 40 1036 b 26 1119 29 1053 60 1094 z "},"":{"ha":575,"x_min":0,"x_max":0,"o":"m 518 444 b 429 415 504 422 471 417 l 210 415 b 28 426 167 415 128 415 b 111 332 138 397 111 354 b 201 361 126 354 160 361 l 421 361 b 603 350 464 361 501 361 b 518 444 493 379 518 422 z "},"":{"ha":754,"x_min":0,"x_max":0,"o":"m 699 444 b 610 415 685 422 651 417 l 208 415 b 28 426 165 415 128 415 b 111 332 136 397 111 354 b 200 361 125 354 158 361 l 601 361 b 782 350 644 361 682 361 b 699 444 674 379 699 422 z "},"":{"ha":133,"x_min":0,"x_max":0,"o":"m 161 379 b 128 460 125 394 72 428 b 28 382 74 453 67 393 b 107 279 128 365 69 307 b 161 379 75 317 135 367 z "},"":{"ha":192,"x_min":0,"x_max":0,"o":"m 219 388 b 171 503 168 410 92 457 b 28 390 94 492 85 407 b 142 244 172 367 88 283 b 219 388 97 299 181 371 z "},"":{"ha":68,"x_min":0,"x_max":0,"o":"m -11 1117 b -32 935 -125 1008 67 992 b 68 1014 21 943 29 1003 b -11 1117 39 1019 -17 1056 z "},"":{"ha":146,"x_min":0,"x_max":0,"o":"m 67 1117 b 36 1028 25 1076 25 1049 b -11 1117 10 1044 -15 1075 b -32 935 -125 1008 67 992 b 51 1006 13 942 25 985 b 46 935 72 981 94 963 b 146 1014 100 943 107 1003 b 67 1117 118 1019 61 1056 z "},"":{"ha":146,"x_min":0,"x_max":0,"o":"m 67 933 b 146 1036 61 994 118 1031 b 46 1115 107 1047 100 1107 b 51 1044 94 1088 72 1069 b -32 1115 25 1065 13 1108 b -11 933 67 1058 -125 1042 b 36 1022 -15 975 10 1006 b 67 933 25 1001 25 974 z "},"":{"ha":68,"x_min":0,"x_max":0,"o":"m 31 933 b 51 1115 144 1042 -47 1058 b -49 1036 -1 1107 -10 1047 b 31 933 -19 1031 36 994 z "},"":{"ha":89,"x_min":0,"x_max":0,"o":"m 100 78 b 0 0 46 71 39 11 b 79 -103 28 -6 83 -42 b 100 78 193 6 1 22 z "},"":{"ha":168,"x_min":0,"x_max":0,"o":"m 179 78 b 94 8 133 72 121 28 b 100 78 74 32 51 50 b 0 0 46 71 39 11 b 79 -103 28 -6 83 -42 b 110 -14 121 -62 121 -35 b 158 -103 135 -31 161 -61 b 179 78 272 6 81 22 z "},"":{"ha":317,"x_min":0,"x_max":0,"o":"m 344 -3 b 311 78 308 13 256 47 b 222 4 263 71 251 22 b 206 78 189 22 158 51 b 117 4 157 71 146 22 b 100 78 83 22 53 51 b 0 0 46 71 39 11 b 79 -103 100 -17 42 -75 b 128 -4 49 -67 99 -19 b 185 -103 196 -26 150 -76 b 233 -4 154 -67 204 -19 b 290 -103 301 -26 256 -76 b 344 -3 258 -65 318 -14 z "},"":{"ha":250,"x_min":0,"x_max":0,"o":"m 113 861 b 213 939 167 868 174 928 b 133 1042 113 956 171 1014 b 79 942 165 1004 106 953 b 113 861 115 926 168 893 z m 242 103 b 211 78 226 106 211 93 b 236 53 211 64 225 53 b 260 67 249 53 256 58 b 233 35 258 51 247 39 b 88 14 197 25 126 85 b 197 129 96 101 186 67 b 157 215 176 113 165 151 b 200 294 153 282 172 310 b 150 317 196 314 163 328 b 150 661 144 457 150 628 b 186 764 151 708 168 753 b 76 868 133 778 96 826 b 64 317 79 681 75 499 b 14 294 42 326 17 310 b 56 214 42 310 61 282 b 26 -103 49 110 39 4 b 232 -6 44 -35 160 -31 b 242 103 289 14 293 96 z "},"":{"ha":425,"x_min":0,"x_max":0,"o":"m 336 861 b 436 939 390 868 397 928 b 357 1042 336 956 394 1014 b 303 942 389 1004 329 953 b 336 861 338 926 392 893 z m 386 317 b 403 518 386 382 422 450 b 267 393 408 396 263 444 b 297 319 294 426 297 333 b 256 294 278 324 258 308 b 297 214 283 310 297 282 l 297 57 b 100 47 247 93 121 114 b 186 146 89 114 178 113 b 142 222 140 126 142 193 b 183 294 142 246 144 317 b 144 319 182 308 163 322 b 292 519 153 433 193 463 b 386 728 413 589 364 663 b 410 764 392 746 400 758 b 300 868 357 778 318 826 b 301 721 301 819 301 769 b 256 546 299 660 288 571 b 38 317 89 411 51 475 b -11 294 17 326 -8 310 b 32 215 32 318 33 243 b -3 65 29 163 22 111 b 126 -103 81 65 97 7 b 317 -17 117 19 314 39 b 308 -47 317 -32 313 -42 b 283 -17 311 -32 299 -17 b 258 -42 269 -17 258 -28 b 265 -60 258 -49 260 -54 b 338 -15 283 -82 339 -72 b 329 19 336 -3 333 10 b 392 214 404 74 399 131 b 433 294 390 238 396 315 b 386 317 431 310 407 326 z "},"":{"ha":238,"x_min":0,"x_max":0,"o":"m 204 689 b 185 671 194 689 186 681 b 204 651 185 660 193 651 b 217 656 208 651 214 653 b 189 585 225 629 226 585 b 143 715 144 585 140 667 b 14 546 114 606 97 547 b 43 457 36 532 42 499 l 43 315 b 0 294 22 326 3 310 b 42 214 28 310 42 283 b 25 175 40 194 36 182 b 163 0 122 149 146 79 b 196 250 176 78 213 176 b 163 185 196 213 185 185 b 135 214 147 186 139 199 b 178 294 125 282 150 310 b 132 317 175 310 153 326 l 132 536 b 208 561 151 521 185 535 b 194 319 181 488 119 388 b 224 553 146 393 196 492 b 204 689 233 576 257 690 z "},"":{"ha":974,"x_min":0,"x_max":0,"o":"m 993 697 b 875 736 993 764 917 761 b 740 536 838 714 792 661 l 715 472 l 681 472 b 854 779 715 561 778 732 b 676 911 767 774 701 828 b 589 1042 661 964 682 1042 b 568 919 503 1043 513 919 b 594 946 582 919 594 932 b 568 974 594 961 582 974 b 543 956 557 974 547 965 b 588 1029 532 982 546 1026 b 651 953 633 1033 657 994 b 400 769 636 826 503 792 b 399 514 225 732 244 524 b 535 546 436 513 510 522 b 325 619 478 525 325 507 b 597 676 325 704 457 746 b 675 786 619 694 658 721 b 550 561 682 654 563 656 b 586 472 582 596 615 546 l 332 472 b 257 399 322 438 289 422 b 197 221 178 361 147 271 b 340 392 158 283 208 392 l 556 392 l 526 317 b 483 294 506 326 486 310 b 488 215 529 319 486 215 l 374 -79 b 326 -7 364 -54 349 -28 b 397 179 372 49 397 119 b 225 225 397 358 225 326 b 296 144 225 188 257 144 b 322 171 311 144 322 157 b 296 197 322 186 311 197 b 271 163 278 197 265 179 b 235 225 250 175 235 199 b 382 178 235 308 382 343 b 138 -82 382 69 292 -68 b 8 31 63 -87 8 -51 b 196 71 8 167 196 171 b 174 0 196 51 190 28 b 208 71 196 25 208 49 b -56 33 208 222 -56 219 b 140 -111 -56 -79 42 -124 b 383 -374 392 -81 272 -317 b 514 -326 436 -400 504 -386 b 446 -246 519 -290 483 -233 b 426 -272 435 -250 426 -260 b 453 -299 426 -286 439 -299 b 479 -268 469 -299 482 -285 b 503 -324 496 -279 507 -303 b 432 -372 497 -358 463 -378 b 500 -179 311 -351 371 -187 l 796 -179 b 871 -97 806 -144 839 -124 b 932 81 950 -60 981 31 b 788 -92 969 18 919 -90 l 521 -92 l 540 -40 b 854 49 622 160 819 169 b 625 175 925 208 718 301 b 719 285 639 213 671 311 b 675 307 715 300 697 317 l 708 392 l 878 392 b 965 486 890 440 933 447 b 856 472 931 472 903 472 l 739 472 l 761 528 b 885 719 808 646 850 697 b 967 722 910 735 951 742 b 940 694 953 722 940 710 b 967 668 940 681 953 668 b 993 697 983 668 994 682 z m 496 -92 l 463 -92 l 650 392 l 685 392 l 496 -92 z m 813 1153 b 749 1056 817 1103 778 1069 b 686 1153 719 1069 682 1103 b 724 972 572 1044 761 1036 b 749 1040 750 993 735 1024 b 774 972 763 1024 749 993 b 813 1153 738 1036 926 1044 z "},"":{"ha":376,"x_min":0,"x_max":0,"o":"m 306 246 b 349 294 307 290 325 308 b 303 317 344 310 325 326 l 304 390 b 324 444 304 422 313 438 b 157 254 218 444 206 265 b 215 300 186 251 207 285 b 189 186 215 233 215 193 b 118 156 164 183 136 174 b 129 276 106 199 94 225 l 324 574 b 340 628 335 590 340 608 b 261 654 342 696 263 696 b 281 635 261 644 269 635 b 300 653 290 635 299 643 b 282 672 300 664 292 672 b 326 628 281 674 328 686 b 129 715 324 553 121 593 b 0 546 100 606 83 547 b 29 457 22 532 28 499 l 29 381 b 8 325 29 349 21 333 b 176 517 115 325 128 506 b 118 469 147 518 126 485 l 118 560 b 264 533 149 529 213 518 l 83 264 b 0 175 68 240 29 185 b 129 0 83 175 100 108 b 132 31 131 11 132 21 b 326 88 156 128 324 156 b 282 42 326 46 301 35 b 300 61 292 43 300 51 b 281 79 299 72 290 81 b 261 60 269 79 261 69 b 340 88 264 18 342 19 b 306 246 339 140 313 171 z m 275 976 b 211 879 279 926 240 893 b 149 976 182 893 144 926 b 186 796 35 868 224 860 b 211 864 213 817 197 847 b 236 796 225 847 211 817 b 275 976 200 860 389 868 z "},"":{"ha":388,"x_min":0,"x_max":0,"o":"m 361 294 b 317 317 357 310 339 326 l 317 483 b 335 568 318 526 324 550 b 354 628 343 585 353 607 b 275 656 356 694 278 696 b 293 635 274 644 283 635 b 313 653 304 635 313 643 b 296 672 314 664 306 672 b 339 628 294 675 340 686 b 254 593 339 594 292 571 b 199 715 219 621 196 678 b 132 536 169 656 147 597 l 132 694 b 331 1010 132 975 271 1006 b 60 786 229 1024 92 925 b -22 929 50 839 4 907 b 43 694 38 849 43 753 l 43 317 b 0 294 22 326 3 310 b 42 214 28 310 46 285 b 25 175 40 194 36 182 b 196 0 122 149 181 79 b 338 175 215 75 240 100 b 318 214 325 185 321 197 b 361 294 317 236 315 319 z m 197 471 b 229 411 217 493 229 453 l 229 317 b 186 294 208 326 189 310 b 228 214 231 319 229 236 b 196 71 226 163 219 97 b 135 214 171 110 143 149 b 176 294 132 283 149 310 b 132 315 172 314 146 328 l 132 367 b 172 571 132 443 154 522 b 289 546 189 522 253 517 b 197 471 274 513 197 513 z "},"":{"ha":388,"x_min":0,"x_max":0,"o":"m 361 294 b 317 317 357 310 339 326 l 317 483 b 335 568 318 526 324 550 b 354 628 343 585 353 607 b 275 656 356 694 278 696 b 293 635 275 644 283 635 b 313 654 304 635 313 643 b 296 672 314 664 306 672 b 339 628 294 675 342 686 b 254 593 339 594 292 571 b 199 715 221 621 196 678 b 132 536 169 656 147 597 l 132 694 b 331 1010 132 975 271 1006 b -56 804 196 1026 103 846 b 43 694 31 813 43 753 l 43 317 b 0 294 22 326 3 310 b 42 214 28 310 46 285 b 25 175 40 194 36 182 b 196 0 122 149 181 79 b 338 175 215 75 240 100 b 318 214 325 186 321 199 b 361 294 314 282 333 310 z m 197 471 b 229 411 217 493 229 453 l 229 317 b 186 294 208 326 189 310 b 228 214 231 319 229 236 b 196 71 226 163 219 97 b 135 214 171 110 143 149 b 176 294 132 283 149 310 b 132 315 172 314 146 328 l 132 367 b 172 571 132 443 154 522 b 289 546 189 522 253 517 b 197 471 274 513 197 513 z "},"":{"ha":388,"x_min":0,"x_max":0,"o":"m 328 1010 b -161 786 171 1010 67 786 b -210 968 -328 786 -304 968 b -156 915 -162 968 -151 939 b -176 928 -160 922 -168 928 b -201 903 -190 928 -201 917 b -175 878 -201 888 -190 876 b -210 982 -122 879 -121 982 b -162 769 -329 982 -339 769 b 7 779 -110 769 -26 789 b 43 694 46 768 43 738 l 43 317 b 0 294 22 326 3 310 b 42 214 28 310 46 285 b 25 175 40 194 36 182 b 196 0 122 149 181 79 b 338 175 215 75 240 100 b 318 215 325 185 319 200 b 361 294 314 283 333 310 b 317 317 358 310 339 326 l 317 483 b 335 568 318 526 324 550 b 354 628 343 585 353 607 b 275 656 356 694 278 696 b 294 635 275 644 283 635 b 314 654 304 635 313 643 b 296 672 314 664 306 672 b 339 628 294 675 342 686 b 256 593 339 594 292 571 b 199 715 221 621 196 678 b 132 536 169 656 147 597 l 131 694 b 331 993 131 893 231 993 b 396 803 467 993 479 819 b 351 815 382 800 361 804 b 376 840 365 815 376 826 b 351 865 376 854 365 865 b 326 840 338 865 325 854 b 397 790 325 806 367 786 b 328 1010 507 806 496 1010 z m 132 367 b 172 571 132 443 154 522 b 289 546 189 522 253 517 b 199 471 274 513 199 513 b 229 411 217 493 229 453 l 229 317 b 186 294 208 326 189 310 b 229 214 214 310 232 283 b 196 71 226 176 222 101 b 135 214 171 110 143 149 b 176 294 132 283 149 310 b 132 315 172 314 146 328 z "},"":{"ha":388,"x_min":0,"x_max":0,"o":"m 360 294 b 317 315 357 313 329 328 b 188 694 314 542 292 592 b 129 1033 97 786 33 924 b 104 692 47 971 28 813 b -56 735 60 722 -22 738 b 157 615 43 719 115 657 b 13 546 117 581 44 547 b 43 457 36 532 42 499 l 43 317 b 0 294 21 326 3 310 b 42 214 28 310 46 285 b 25 175 40 194 36 182 b 196 0 122 149 181 79 b 338 175 214 75 240 100 b 317 229 319 190 318 208 b 360 294 315 286 335 310 z m 228 226 b 196 71 228 183 222 101 b 133 214 171 110 143 149 b 176 294 131 283 149 310 b 131 315 172 314 144 328 l 131 519 b 161 546 131 536 146 549 b 171 478 206 539 194 476 b 179 493 175 481 179 486 b 161 513 179 503 171 513 b 176 458 129 513 138 458 b 219 483 197 458 211 468 b 228 317 226 442 228 389 b 186 294 207 326 189 310 b 228 226 213 310 229 286 z "},"":{"ha":388,"x_min":0,"x_max":0,"o":"m 361 294 b 317 315 357 313 329 328 b 213 669 314 522 296 582 b 131 1033 115 767 24 910 b 4 614 24 950 86 757 b 150 608 58 681 108 649 b 14 546 108 576 43 547 b 43 457 36 532 42 499 l 43 317 b 0 294 22 326 3 310 b 42 214 28 310 46 285 b 25 175 40 194 36 182 b 196 0 122 149 181 79 b 338 175 215 75 240 100 b 318 228 321 189 318 208 b 361 294 317 286 335 310 z m 229 225 b 196 71 228 182 222 101 b 135 214 171 110 143 149 b 176 294 132 283 149 310 b 132 315 172 314 146 328 l 132 519 b 161 546 132 536 146 549 b 171 478 206 539 194 476 b 179 493 176 481 179 486 b 161 513 181 503 172 513 b 178 458 129 513 139 458 b 219 483 197 458 213 468 b 229 317 226 442 228 389 b 186 294 208 326 189 310 b 229 225 213 310 229 286 z "},"":{"ha":388,"x_min":0,"x_max":0,"o":"m 319 840 b 293 865 319 854 307 865 b 268 840 281 865 268 854 b 339 790 267 806 310 786 b 269 1010 449 806 438 1010 b 14 804 122 1010 96 829 b 157 615 25 735 111 667 b 14 546 117 581 46 547 b 43 457 36 532 42 499 l 43 317 b 0 294 22 326 3 310 b 42 214 28 310 46 285 b 25 175 40 194 36 182 b 196 0 122 149 181 79 b 338 175 215 75 240 100 b 318 225 321 189 318 206 b 361 294 315 285 335 310 b 317 315 357 313 329 328 b 189 694 314 542 292 592 b 274 993 83 799 119 993 b 339 803 410 993 422 819 b 293 815 324 800 304 804 b 319 840 307 815 319 826 z m 171 478 b 179 493 176 481 179 486 b 161 513 181 503 172 513 b 178 458 129 513 139 458 b 219 483 199 458 213 468 b 229 317 226 442 228 389 b 186 294 208 326 189 310 b 229 222 213 310 231 285 b 196 71 228 181 222 101 b 135 214 171 110 143 149 b 176 294 132 283 149 310 b 132 315 172 314 146 328 l 132 519 b 161 546 132 536 146 549 b 171 478 206 539 196 476 z "},"":{"ha":401,"x_min":0,"x_max":0,"o":"m 382 250 b 349 185 382 213 371 185 b 321 214 333 186 325 199 b 361 294 310 283 333 310 b 317 317 357 313 329 328 l 317 483 b 333 568 318 526 324 550 b 354 628 343 585 353 608 b 275 654 356 696 276 696 b 293 635 275 644 283 635 b 313 654 304 635 313 643 b 296 672 313 664 306 672 b 339 628 293 675 340 686 b 254 593 338 594 292 571 b 199 694 226 615 204 660 l 189 694 b 131 536 164 642 144 590 l 131 694 b 331 1010 131 975 271 1006 b 60 786 228 1024 92 925 b -22 929 50 839 4 907 b 43 694 36 849 43 753 l 43 317 b 0 294 22 326 3 310 b 42 214 28 310 46 285 b 25 175 40 194 36 182 b 161 0 122 149 146 79 b 196 250 176 78 211 176 b 161 185 196 213 185 185 b 135 215 146 186 139 199 b 175 294 124 283 147 310 b 131 317 172 310 153 326 l 131 367 b 172 571 131 443 153 522 b 289 546 188 522 253 517 b 197 471 274 513 197 513 b 229 411 217 493 229 453 l 229 317 b 186 294 207 326 189 310 b 228 214 214 310 231 283 b 211 175 226 194 222 182 b 349 0 308 149 332 79 b 382 250 363 78 399 176 z "},"":{"ha":401,"x_min":0,"x_max":0,"o":"m 383 250 b 349 185 383 213 372 185 b 322 214 333 186 326 199 b 363 294 311 283 335 310 b 318 317 358 313 331 328 l 318 483 b 335 568 319 526 324 550 b 354 628 344 585 354 608 b 276 654 357 696 278 696 b 294 635 276 644 285 635 b 314 654 306 635 314 643 b 297 672 314 664 307 672 b 340 628 294 675 342 686 b 256 593 339 594 293 571 b 200 694 226 615 206 660 l 190 694 b 132 536 165 642 146 590 l 132 694 b 332 1010 132 975 272 1006 b -54 804 196 1026 104 846 b 44 694 31 813 44 753 l 44 317 b 0 294 22 326 4 310 b 43 214 29 310 47 285 b 26 175 42 194 38 182 b 163 0 124 149 147 79 b 197 250 176 78 213 176 b 163 185 197 213 186 185 b 136 215 147 186 140 199 b 176 294 125 283 149 310 b 132 317 172 310 154 326 l 132 367 b 174 571 132 443 154 522 b 290 546 189 522 254 517 b 199 471 275 513 199 513 b 231 411 218 493 231 453 l 231 317 b 188 294 208 326 190 310 b 229 214 215 310 232 283 b 213 175 228 194 224 182 b 349 0 310 149 333 79 b 383 250 363 78 399 176 z "},"":{"ha":401,"x_min":0,"x_max":0,"o":"m 328 1010 b -160 786 171 1010 68 786 b -210 968 -328 786 -303 968 b -154 915 -162 968 -150 939 b -176 928 -158 922 -167 928 b -201 903 -190 928 -201 917 b -175 878 -201 888 -189 876 b -208 982 -121 879 -121 982 b -161 769 -328 982 -339 769 b 7 779 -108 769 -25 789 b 44 694 47 768 44 738 l 44 317 b 0 294 22 326 4 310 b 43 214 29 310 47 285 b 26 175 42 194 38 182 b 163 0 124 149 147 79 b 197 250 176 78 213 176 b 163 185 197 213 186 185 b 136 215 147 186 140 199 b 176 294 125 283 149 310 b 132 317 172 310 154 326 l 132 367 b 174 571 132 443 154 522 b 290 546 189 522 254 517 b 199 471 275 513 199 513 b 231 411 218 493 231 453 l 231 317 b 188 294 208 326 190 310 b 229 214 215 310 232 283 b 213 175 228 194 224 182 b 349 0 310 149 333 79 b 383 250 364 78 399 176 b 349 185 383 213 372 185 b 322 214 333 186 326 199 b 363 294 311 283 335 310 b 318 317 358 313 331 328 l 318 483 b 335 568 319 526 325 550 b 354 628 344 585 354 608 b 276 654 357 696 278 696 b 294 635 276 644 285 635 b 314 654 306 635 314 643 b 297 672 314 664 307 672 b 340 628 294 675 342 686 b 256 593 339 594 293 571 b 200 694 228 615 206 660 l 190 694 b 132 536 165 642 146 590 l 132 694 b 332 993 132 814 182 993 b 396 803 468 993 481 819 b 351 815 382 800 363 804 b 376 840 365 815 376 826 b 351 865 376 854 365 865 b 326 840 338 865 326 854 b 397 790 325 806 367 786 b 328 1010 507 806 496 1010 z "},"":{"ha":401,"x_min":0,"x_max":0,"o":"m 329 71 b 318 207 322 101 319 164 b 361 294 318 233 318 319 b 318 317 358 313 329 328 l 318 483 b 335 568 318 526 324 550 b 354 628 343 585 354 608 b 275 654 356 696 276 696 b 294 635 275 644 283 635 b 314 654 304 635 313 643 b 296 672 314 664 306 672 b 340 628 294 675 342 686 b 256 593 339 594 292 571 b 199 715 221 621 196 678 b 132 536 171 656 147 597 l 132 715 b 143 972 132 758 133 872 b 14 804 114 863 97 804 b 43 714 36 789 43 756 l 43 317 b 0 294 22 326 3 310 b 42 214 28 310 46 285 b 25 175 40 194 38 182 b 163 0 122 149 147 79 b 197 250 176 78 213 176 b 163 185 197 213 185 185 b 135 215 147 186 139 199 b 175 294 125 283 147 310 b 132 317 172 310 153 326 l 132 367 b 174 571 132 443 154 522 b 289 546 189 522 253 517 b 199 471 274 513 199 513 b 229 411 217 493 229 453 l 229 317 b 188 294 208 326 190 310 b 229 206 231 319 229 233 l 229 115 b 129 -207 229 33 233 -179 b 365 25 233 -207 271 -39 b 329 71 344 33 335 50 z "},"":{"ha":401,"x_min":0,"x_max":0,"o":"m 707 4 b 329 -76 504 4 353 -174 b 318 115 319 -35 318 85 l 318 214 b 361 294 318 283 333 310 b 318 317 357 313 329 328 l 317 483 b 335 568 318 526 324 550 b 354 628 343 585 353 608 b 275 654 356 696 276 696 b 293 635 275 644 283 635 b 313 654 304 635 313 643 b 296 672 314 664 306 672 b 339 628 294 675 342 686 b 256 593 339 594 292 571 b 199 715 221 621 196 678 b 132 536 169 656 147 597 l 132 715 b 143 972 132 758 132 872 b 14 804 114 863 97 804 b 43 714 36 789 42 756 l 43 317 b 0 294 22 326 3 310 b 42 214 28 310 46 285 b 25 175 40 194 36 182 b 163 0 122 149 146 79 b 196 250 176 78 213 176 b 163 185 196 213 185 185 b 135 215 147 186 139 199 b 175 294 125 283 147 310 b 132 317 172 310 153 326 l 132 367 b 172 571 132 443 154 522 b 289 546 189 522 253 517 b 199 471 274 513 199 513 b 229 411 217 493 229 453 l 229 317 b 188 294 208 326 190 310 b 229 224 214 310 228 286 l 229 115 l 229 -37 b 42 -246 229 -128 179 -246 b -10 93 -183 -246 -192 85 b 74 44 29 94 65 69 b 65 46 71 46 68 46 b 40 21 51 46 40 35 b 65 -4 40 7 51 -4 b -8 114 114 -4 94 113 b 42 -293 -235 115 -235 -293 b 708 -14 256 -293 482 -14 b 771 -296 978 -14 919 -296 b 678 -190 692 -296 643 -239 b 701 -206 682 -199 690 -206 b 726 -181 715 -206 726 -194 b 699 -156 726 -165 714 -154 b 774 -347 619 -158 619 -351 b 707 4 982 -343 999 4 z "},"":{"ha":401,"x_min":0,"x_max":0,"o":"m 707 4 b 329 -76 504 4 353 -174 b 317 115 319 -35 318 85 l 318 214 b 361 294 318 283 333 310 b 317 317 357 313 329 328 l 317 483 b 333 568 318 526 324 550 b 354 628 343 585 353 608 b 275 654 356 696 276 696 b 293 635 275 644 283 635 b 313 654 304 635 313 643 b 296 672 314 664 306 672 b 339 628 294 675 340 686 b 254 593 339 594 292 571 b 199 694 226 615 204 660 l 189 694 b 131 536 164 642 144 590 l 131 694 b 331 993 131 893 231 993 b 396 803 467 993 479 819 b 350 815 382 800 361 804 b 376 840 364 815 376 826 b 350 865 376 854 364 865 b 325 840 338 865 325 854 b 396 790 324 806 367 786 b 326 1010 506 806 494 1010 b -161 786 171 1010 67 786 b -210 968 -328 786 -304 968 b -156 915 -164 968 -151 939 b -178 928 -160 922 -168 928 b -201 903 -190 928 -201 917 b -176 878 -201 888 -190 876 b -210 982 -122 879 -122 982 b -162 769 -329 982 -340 769 b 6 779 -110 769 -26 789 b 43 694 46 768 43 738 l 43 317 b 0 294 22 326 3 310 b 42 214 28 310 46 285 b 25 175 40 194 36 182 b 163 0 122 149 146 79 b 196 250 176 78 213 176 b 163 185 196 213 185 185 b 135 215 146 186 139 199 b 175 294 125 283 147 310 b 131 317 172 310 153 326 l 131 367 b 172 571 131 443 154 522 b 289 546 189 522 253 517 b 197 471 274 513 197 513 b 229 411 217 493 229 453 l 229 317 b 186 294 208 326 190 310 b 229 224 214 310 228 286 l 229 -37 b 42 -246 229 -128 179 -246 b -10 93 -183 -246 -193 85 b 74 44 29 94 65 69 b 65 46 71 46 68 46 b 40 21 51 46 40 35 b 65 -4 40 7 51 -4 b -8 114 114 -4 94 113 b 42 -293 -236 115 -235 -293 b 708 -14 256 -293 481 -14 b 771 -296 978 -14 919 -296 b 678 -190 690 -296 643 -239 b 701 -206 682 -199 690 -206 b 725 -181 714 -206 725 -194 b 699 -156 725 -165 714 -154 b 774 -347 619 -158 619 -351 b 707 4 981 -343 999 4 z "},"":{"ha":401,"x_min":0,"x_max":0,"o":"m 382 250 b 347 185 382 213 369 185 b 319 215 332 186 324 199 b 361 294 310 283 332 310 b 317 317 357 313 329 328 l 317 432 b 322 485 317 454 318 471 b 182 425 285 447 224 467 b 353 628 217 493 350 522 b 275 654 356 696 276 696 b 293 635 274 644 282 635 b 313 654 303 635 313 643 b 296 672 313 664 306 672 b 339 628 293 675 340 686 b 251 613 338 589 281 588 b 197 732 218 640 194 696 b 131 536 178 668 149 607 l 131 694 b 331 1010 131 975 271 1006 b 60 786 228 1024 90 925 b -24 929 50 839 3 907 b 43 694 36 849 43 753 l 43 317 b -1 294 21 326 1 310 b 42 214 26 310 46 285 b 25 175 40 194 36 182 b 161 0 122 149 146 79 b 196 250 175 78 211 176 b 161 185 196 213 183 185 b 131 258 133 186 131 226 l 131 367 b 176 581 131 449 157 533 b 163 425 224 492 208 521 b 194 292 140 378 139 321 b 174 339 175 311 171 326 b 290 410 186 392 279 357 b 228 332 290 363 228 361 l 228 258 b 210 175 228 211 228 186 b 347 0 307 149 332 79 b 382 250 361 78 397 176 z "},"":{"ha":401,"x_min":0,"x_max":0,"o":"m 381 250 b 347 185 381 213 369 185 b 319 215 331 186 324 199 b 360 294 310 283 332 310 b 317 317 357 313 328 328 l 317 432 b 321 485 317 454 318 471 b 182 425 283 447 224 467 b 353 628 217 493 350 522 b 274 654 354 696 275 696 b 293 635 274 644 282 635 b 313 654 303 635 311 643 b 294 672 313 664 304 672 b 339 628 293 675 340 686 b 251 613 338 589 279 588 b 197 732 218 640 194 696 b 131 536 176 668 149 607 l 131 694 b 329 1010 131 975 271 1006 b -57 804 194 1026 101 846 b 42 694 29 813 42 753 l 42 317 b -1 294 21 326 1 310 b 40 214 26 310 44 285 b 24 175 39 194 36 182 b 161 0 121 149 146 79 b 196 250 175 78 211 176 b 161 185 196 213 183 185 b 131 258 133 186 131 226 l 131 367 b 176 581 131 449 156 533 b 163 425 224 492 208 521 b 194 292 139 378 139 321 b 174 339 175 311 169 326 b 290 410 186 392 279 357 b 228 332 290 363 228 361 l 228 258 b 210 175 228 211 228 186 b 347 0 307 149 331 79 b 381 250 361 78 397 176 z "},"":{"ha":401,"x_min":0,"x_max":0,"o":"m 326 1010 b -162 786 169 1010 67 786 b -211 968 -329 786 -304 968 b -156 915 -164 968 -153 939 b -178 928 -161 922 -168 928 b -203 903 -192 928 -203 917 b -176 878 -203 888 -190 876 b -211 982 -122 879 -122 982 b -164 769 -331 982 -340 769 b 6 779 -110 769 -26 789 b 43 694 46 768 43 738 l 43 317 b -1 294 21 326 1 310 b 42 214 26 310 46 285 b 25 175 40 194 36 182 b 161 0 122 149 146 79 b 196 250 175 78 211 176 b 161 185 196 213 183 185 b 131 258 133 186 131 226 l 131 367 b 176 581 131 449 157 533 b 163 425 224 492 208 521 b 194 292 140 378 139 321 b 174 339 175 311 171 326 b 290 410 186 392 279 357 b 228 332 290 363 228 361 l 228 258 b 210 175 228 211 228 186 b 347 0 307 149 332 79 b 382 250 361 78 397 176 b 347 185 382 213 369 185 b 319 215 332 186 324 199 b 361 294 310 283 332 310 b 317 317 357 313 329 328 l 317 432 b 322 485 317 454 318 471 b 182 425 285 447 224 467 b 353 628 217 493 350 522 b 275 654 356 696 275 696 b 293 635 274 644 282 635 b 313 654 303 635 313 643 b 296 672 313 664 306 672 b 339 628 293 675 340 686 b 251 613 338 589 281 588 b 197 732 218 640 194 696 b 131 536 178 668 149 607 l 131 694 b 329 993 131 814 181 993 b 394 803 465 993 479 819 b 350 815 381 800 360 804 b 375 840 364 815 375 826 b 350 865 375 854 364 865 b 325 840 336 865 325 854 b 396 790 324 806 365 786 b 326 1010 506 806 494 1010 z "},"":{"ha":401,"x_min":0,"x_max":0,"o":"m 329 71 b 318 215 319 111 318 165 b 361 294 318 283 333 310 b 318 317 358 310 339 326 l 318 432 b 324 485 318 454 319 471 b 183 425 286 447 225 467 b 354 628 218 493 351 522 b 276 654 357 696 276 696 b 294 635 275 644 283 635 b 314 654 304 635 314 643 b 296 672 314 664 307 672 b 340 628 294 675 342 686 b 253 613 339 589 282 588 b 199 732 219 640 196 696 b 132 536 179 668 150 607 l 132 715 b 144 972 132 758 133 872 b 14 804 115 863 97 804 b 44 714 38 789 43 756 l 44 317 b 0 294 22 326 3 310 b 43 214 28 310 47 285 b 26 175 42 194 38 182 b 163 0 124 149 147 79 b 197 250 176 78 213 176 b 163 185 197 213 185 185 b 132 258 135 186 132 226 l 132 367 b 178 581 132 449 158 533 b 164 425 225 492 210 521 b 196 292 142 378 140 321 b 175 339 176 311 172 326 b 292 410 188 392 281 357 b 229 332 292 363 229 361 l 229 258 b 229 115 229 211 229 163 b 129 -207 229 33 232 -179 b 365 25 233 -207 271 -39 b 329 71 344 33 333 50 z "},"":{"ha":401,"x_min":0,"x_max":0,"o":"m 707 4 b 329 -76 504 4 353 -174 b 318 115 319 -35 318 85 l 317 225 b 360 294 318 286 333 310 b 317 317 357 310 339 326 l 317 432 b 322 485 318 454 319 471 b 183 425 285 447 225 467 b 354 628 218 493 351 522 b 275 654 356 696 276 696 b 294 635 275 644 283 635 b 314 654 304 635 313 643 b 296 672 314 664 306 672 b 339 628 294 675 342 686 b 253 613 339 589 281 588 b 199 732 219 640 196 696 b 132 536 178 668 149 607 l 132 715 b 143 972 132 758 132 872 b 14 804 114 863 97 804 b 43 714 36 789 42 756 l 43 317 b 0 294 22 326 3 310 b 42 214 28 310 46 285 b 25 175 40 194 36 182 b 163 0 122 149 147 79 b 196 250 176 78 213 176 b 163 185 196 213 185 185 b 132 258 135 186 132 226 l 132 367 b 176 581 132 449 157 533 b 164 425 224 492 210 521 b 196 292 140 378 140 321 b 174 339 176 311 171 326 b 292 410 188 392 279 357 b 229 332 292 363 229 361 l 229 258 b 229 115 229 253 229 119 l 229 -37 b 42 -246 229 -128 179 -246 b -10 93 -183 -246 -193 85 b 74 44 29 94 65 69 b 65 46 71 46 68 46 b 40 21 51 46 40 35 b 65 -4 40 7 51 -4 b -8 114 114 -4 94 113 b 42 -293 -236 115 -235 -293 b 708 -14 256 -293 481 -14 b 771 -296 978 -14 919 -296 b 678 -190 690 -296 643 -239 b 701 -206 682 -199 690 -206 b 725 -181 714 -206 725 -194 b 699 -156 725 -165 714 -154 b 774 -347 619 -158 619 -351 b 707 4 981 -343 999 4 z "},"":{"ha":401,"x_min":0,"x_max":0,"o":"m 708 4 b 331 -76 506 4 354 -174 b 318 115 319 -35 318 85 l 318 225 b 361 294 319 286 335 310 b 318 317 358 310 339 326 l 318 432 b 324 485 319 454 321 471 b 183 425 286 447 226 467 b 356 628 219 493 351 522 b 276 654 357 696 278 696 b 294 635 276 644 285 635 b 314 654 306 635 314 643 b 297 672 314 664 307 672 b 340 628 294 675 342 686 b 253 613 339 589 282 588 b 200 732 219 640 197 696 b 132 536 179 668 150 607 l 132 694 b 332 993 132 893 231 993 b 396 803 468 993 481 819 b 351 815 382 800 363 804 b 376 840 365 815 376 826 b 351 865 376 854 365 865 b 326 840 338 865 326 854 b 397 790 325 806 368 786 b 328 1010 507 806 496 1010 b -160 786 171 1010 68 786 b -208 968 -328 786 -303 968 b -154 915 -162 968 -150 939 b -176 928 -158 922 -167 928 b -201 903 -190 928 -201 917 b -175 878 -201 888 -189 876 b -208 982 -121 879 -121 982 b -161 769 -328 982 -339 769 b 7 779 -108 769 -25 789 b 44 694 50 767 44 731 l 44 317 b 1 294 24 326 4 310 b 43 214 29 310 47 285 b 26 175 42 194 38 182 b 163 0 124 149 147 79 b 197 250 178 78 213 176 b 163 185 197 213 186 185 b 132 258 135 186 132 226 l 132 367 b 178 581 132 449 158 533 b 165 425 225 492 210 521 b 196 292 142 378 142 321 b 175 339 178 311 172 326 b 293 410 189 392 281 357 b 231 332 293 363 231 361 l 231 -37 b 42 -246 231 -128 179 -246 b -8 93 -182 -246 -192 85 b 75 44 31 94 67 69 b 67 46 72 46 69 46 b 42 21 53 46 42 35 b 67 -4 42 7 53 -4 b -7 114 115 -4 96 113 b 42 -293 -235 115 -235 -293 b 710 -14 256 -293 482 -14 b 772 -296 978 -14 921 -296 b 679 -190 692 -296 644 -239 b 701 -206 682 -199 692 -206 b 726 -181 715 -206 726 -194 b 700 -156 726 -165 714 -154 b 775 -347 619 -158 619 -351 b 708 4 982 -343 999 4 z "},"":{"ha":215,"x_min":0,"x_max":0,"o":"m 331 1010 b 60 786 229 1024 92 925 b -22 929 50 839 4 907 b 43 694 38 849 43 753 l 43 317 b 0 294 22 326 3 310 b 42 214 28 310 46 285 b 25 175 40 194 36 182 b 163 0 122 149 146 79 b 196 250 176 78 213 176 b 163 185 196 213 185 185 b 135 215 147 186 139 199 b 175 294 125 283 147 310 b 132 317 172 310 153 326 l 132 694 b 331 1010 132 975 271 1006 z "},"":{"ha":215,"x_min":0,"x_max":0,"o":"m 332 1010 b -56 804 196 1026 103 846 b 44 694 31 813 44 753 l 44 317 b 0 294 22 326 3 310 b 43 214 28 310 46 285 b 26 175 42 194 38 182 b 163 0 124 149 147 79 b 197 250 176 78 213 176 b 163 185 197 213 185 185 b 136 215 147 186 139 199 b 175 294 125 283 147 310 b 132 317 172 310 153 326 l 132 694 b 332 1010 132 975 272 1006 z "},"":{"ha":215,"x_min":0,"x_max":0,"o":"m 329 1010 b -160 786 172 1010 68 786 b -208 968 -326 786 -303 968 b -154 915 -161 968 -150 939 b -176 928 -158 922 -167 928 b -200 903 -189 928 -200 917 b -174 878 -200 888 -189 876 b -208 982 -121 879 -119 982 b -161 769 -328 982 -339 769 b 7 779 -108 769 -25 789 b 44 694 50 767 44 731 l 44 317 b 1 294 22 326 4 310 b 43 214 29 310 47 285 b 26 175 42 194 38 182 b 163 0 124 149 147 79 b 197 250 176 78 213 176 b 163 185 197 213 186 185 b 136 215 147 186 140 199 b 176 294 125 283 149 310 b 132 317 174 310 154 326 l 132 694 b 332 993 132 893 232 993 b 397 803 468 993 481 819 b 353 815 383 800 363 804 b 378 840 367 815 378 826 b 353 865 378 854 367 865 b 326 840 339 865 326 854 b 399 790 325 806 368 786 b 329 1010 508 806 496 1010 z "},"":{"ha":215,"x_min":0,"x_max":0,"o":"m 143 71 b 132 214 133 111 132 165 b 175 294 132 283 147 310 b 132 317 172 310 153 326 l 132 715 b 143 972 132 758 133 872 b 14 804 114 863 97 804 b 43 714 36 789 43 756 l 43 317 b 1 294 22 326 4 310 b 43 214 29 310 43 283 l 43 115 b -57 -207 43 33 47 -179 b 179 25 47 -207 85 -39 b 143 71 158 33 147 50 z "},"":{"ha":215,"x_min":0,"x_max":0,"o":"m 522 4 b 143 -76 318 4 167 -174 b 132 115 133 -35 132 85 b 132 224 132 118 132 182 b 175 294 133 286 147 310 b 132 317 171 310 153 326 l 132 715 b 143 972 132 758 132 872 b 14 804 114 863 97 804 b 43 714 36 789 42 756 l 43 317 b 1 294 22 326 4 310 b 43 217 29 310 43 285 b 43 115 43 175 43 118 l 43 -37 b -144 -246 43 -128 -7 -246 b -194 93 -369 -246 -378 85 b -112 44 -157 94 -121 69 b -121 46 -115 46 -118 46 b -146 21 -135 46 -146 35 b -121 -4 -146 7 -135 -4 b -193 114 -72 -4 -92 113 b -144 -293 -421 115 -421 -293 b 524 -14 69 -293 296 -14 b 585 -296 792 -14 735 -296 b 492 -190 506 -296 457 -239 b 515 -206 496 -199 504 -206 b 540 -181 529 -206 540 -194 b 513 -156 540 -165 528 -154 b 589 -347 433 -158 433 -351 b 522 4 796 -343 813 4 z "},"":{"ha":215,"x_min":0,"x_max":0,"o":"m 521 4 b 143 -76 318 4 167 -174 b 131 115 132 -35 131 85 l 131 224 b 174 294 132 286 147 310 b 131 317 171 310 151 326 l 131 694 b 331 993 131 893 229 993 b 394 803 467 993 479 819 b 350 815 381 800 361 804 b 375 840 364 815 375 826 b 350 865 375 854 364 865 b 325 840 336 865 325 854 b 396 790 324 806 365 786 b 326 1010 506 806 494 1010 b -161 786 169 1010 67 786 b -210 968 -329 786 -304 968 b -156 915 -164 968 -151 939 b -178 928 -160 922 -168 928 b -203 903 -192 928 -203 917 b -176 878 -203 888 -190 876 b -210 982 -122 879 -122 982 b -162 769 -329 982 -340 769 b 6 779 -110 769 -26 789 b 43 694 46 768 43 738 l 43 317 b 0 294 22 326 3 310 b 43 217 28 310 42 285 b 42 115 43 175 43 118 l 43 -37 b -146 -246 43 -128 -8 -246 b -196 93 -369 -246 -379 85 b -112 44 -157 94 -121 69 b -122 46 -115 46 -118 46 b -146 21 -135 46 -146 35 b -122 -4 -146 7 -135 -4 b -194 114 -72 -4 -92 113 b -146 -293 -422 115 -422 -293 b 522 -14 68 -293 294 -14 b 585 -296 790 -14 733 -296 b 492 -190 504 -296 457 -239 b 514 -206 494 -199 504 -206 b 539 -181 528 -206 539 -194 b 513 -156 539 -165 526 -154 b 588 -347 432 -158 432 -351 b 521 4 794 -343 811 4 z "},"":{"ha":388,"x_min":0,"x_max":0,"o":"m 360 294 b 317 317 357 310 338 326 l 317 483 b 353 628 317 582 351 563 b 275 654 356 696 276 696 b 293 635 275 644 282 635 b 313 654 304 635 313 643 b 296 672 313 664 306 672 b 339 628 293 675 340 686 b 143 715 336 553 133 593 b 13 546 114 606 97 547 b 43 457 36 532 42 499 l 43 317 b 0 294 22 326 3 310 b 43 214 28 310 43 283 l 43 115 l 43 -14 b -57 -336 43 -94 46 -308 b 179 -103 47 -336 85 -168 b 143 -57 158 -96 147 -78 b 132 115 131 -11 132 65 l 132 118 b 196 0 165 85 188 44 b 338 175 214 75 240 100 b 318 214 325 185 319 197 b 360 294 313 282 332 310 z m 197 471 b 228 422 219 497 228 435 l 228 317 b 188 294 208 326 190 310 b 228 225 214 310 229 286 b 196 71 228 182 221 101 b 133 214 171 110 142 149 b 175 294 131 283 146 310 b 131 317 171 310 153 326 l 131 558 b 289 546 168 522 256 519 b 197 471 274 513 197 513 z "},"":{"ha":388,"x_min":0,"x_max":0,"o":"m 360 294 b 317 317 357 310 338 326 l 317 483 b 353 628 317 582 351 563 b 275 654 354 696 275 696 b 293 635 274 644 282 635 b 313 654 303 635 313 643 b 294 672 313 664 306 672 b 339 628 293 675 340 686 b 143 715 336 553 133 593 b 13 546 114 606 96 547 b 43 457 36 532 42 499 l 43 317 b 0 294 22 326 3 310 b 43 214 28 310 43 283 l 43 0 b 36 -68 42 -32 42 -54 b -118 -33 -12 -44 -67 -33 b -243 -250 -336 -33 -365 -250 b -167 -139 -181 -250 -140 -187 b -203 -128 -174 -125 -190 -121 b -212 -164 -215 -135 -221 -151 b -169 -169 -204 -181 -182 -183 b -243 -237 -171 -208 -207 -237 b -119 -50 -343 -237 -312 -50 b 108 -168 -37 -50 51 -85 b 33 -347 169 -261 125 -347 b 19 -176 -90 -347 -151 -172 b 24 -414 -169 -135 -168 -410 b 168 -225 138 -415 193 -322 b 196 -8 185 -154 208 -71 b 161 -74 196 -46 183 -74 b 131 0 133 -72 131 -32 l 131 118 b 196 0 165 85 188 44 b 336 175 214 75 239 100 b 318 214 325 185 319 197 b 360 294 313 282 332 310 z m 197 471 b 228 422 219 497 228 435 l 228 317 b 186 294 207 326 190 310 b 228 224 214 310 229 286 b 196 71 226 181 221 101 b 133 214 169 110 142 149 b 174 294 131 283 146 310 b 131 317 171 310 151 326 l 131 558 b 288 546 168 522 256 519 b 197 471 272 513 197 513 z "},"":{"ha":383,"x_min":0,"x_max":0,"o":"m 319 -14 l 319 115 l 319 225 b 363 294 319 253 322 317 b 319 317 358 310 340 326 l 318 483 b 356 628 318 582 354 563 b 276 654 357 696 278 696 b 296 635 276 644 285 635 b 315 654 306 635 314 643 b 297 672 315 664 307 672 b 342 628 296 675 343 686 b 144 715 339 553 135 593 b 15 546 115 606 99 547 b 44 457 38 532 43 499 l 44 317 b 1 294 24 326 4 310 b 43 214 29 310 49 282 b 26 175 42 194 38 182 b 197 0 124 149 182 79 b 231 76 206 32 215 54 b 219 -57 229 33 228 -28 b 183 -103 215 -78 204 -96 b 419 -336 278 -168 315 -336 b 319 -14 317 -308 319 -94 z m 200 471 b 231 422 222 497 231 435 l 231 317 b 188 294 210 326 190 310 b 231 226 214 310 231 286 b 197 71 231 182 224 101 b 136 214 172 110 144 149 b 176 294 131 283 149 310 b 133 317 174 310 154 326 l 133 558 b 290 546 171 522 258 519 b 200 471 275 513 200 513 z "},"":{"ha":238,"x_min":0,"x_max":0,"o":"m 265 746 b 246 728 256 746 247 738 b 265 708 246 717 254 708 b 278 713 269 708 274 710 b 236 608 282 679 263 644 l 132 608 l 132 694 b 332 1010 132 975 272 1006 b 61 786 229 1024 93 925 b -21 929 51 839 6 907 b 44 694 38 849 44 753 l 44 608 l -18 519 l 44 519 l 44 317 b 1 294 24 326 4 310 b 43 214 29 310 47 285 b 26 175 42 194 38 182 b 163 0 124 149 147 79 b 197 250 178 78 213 176 b 163 185 197 213 186 185 b 132 258 135 186 132 226 l 132 324 b 164 299 139 310 150 299 b 183 318 175 299 183 307 b 165 338 183 328 175 336 b 149 328 158 338 151 333 b 293 701 99 451 293 593 b 265 746 293 717 285 746 z m 132 456 l 132 519 l 169 519 b 132 456 154 499 142 478 z "},"":{"ha":238,"x_min":0,"x_max":0,"o":"m 265 746 b 246 728 256 746 247 738 b 265 708 246 717 254 708 b 278 713 269 708 274 710 b 236 608 282 679 263 644 l 132 608 l 132 694 b 332 1010 132 975 272 1006 b -54 804 196 1026 104 846 b 44 694 31 813 44 753 l 44 608 l -18 519 l 44 519 l 44 317 b 1 294 22 326 4 310 b 43 214 29 310 47 285 b 26 175 42 194 38 182 b 163 0 124 149 147 79 b 197 250 176 78 213 176 b 163 185 197 213 186 185 b 132 258 135 186 132 226 l 132 324 b 164 299 139 310 150 299 b 183 318 175 299 183 307 b 165 338 183 328 175 336 b 149 328 158 338 151 333 b 293 701 99 451 293 593 b 265 746 292 717 285 746 z m 132 456 l 132 519 l 169 519 b 132 456 154 499 142 478 z "},"":{"ha":238,"x_min":0,"x_max":0,"o":"m 328 1010 b -161 786 171 1010 67 786 b -210 968 -328 786 -304 968 b -156 915 -162 968 -151 939 b -176 928 -160 922 -168 928 b -201 903 -190 928 -201 917 b -175 878 -201 888 -190 876 b -210 982 -122 879 -121 982 b -162 769 -329 982 -340 769 b 6 779 -110 769 -26 789 b 43 694 46 768 43 738 l 43 608 l -19 519 l 43 519 l 43 317 b 0 294 22 326 3 310 b 42 214 28 310 46 285 b 25 175 40 194 36 182 b 163 0 122 149 146 79 b 196 250 176 78 213 176 b 163 185 196 213 185 185 b 132 258 135 186 132 226 l 132 324 b 163 299 139 310 149 299 b 182 318 174 299 182 307 b 164 338 182 328 174 336 b 147 328 157 338 150 333 b 292 701 97 451 293 593 b 265 746 292 717 285 746 b 246 728 254 746 246 738 b 264 708 244 717 253 708 b 276 713 268 708 274 710 b 235 608 281 679 261 644 l 132 608 l 132 694 b 331 993 132 893 231 993 b 396 803 467 993 479 819 b 351 815 382 800 361 804 b 376 840 365 815 376 826 b 351 865 376 854 365 865 b 325 840 338 865 325 854 b 397 790 324 806 367 786 b 328 1010 507 806 494 1010 z m 168 519 b 132 456 153 499 140 478 l 132 519 z "},"":{"ha":238,"x_min":0,"x_max":0,"o":"m 165 299 b 183 318 175 299 183 307 b 165 338 185 328 176 336 b 149 328 158 338 153 333 b 293 701 99 451 294 593 b 267 746 293 717 286 746 b 247 728 256 746 247 738 b 265 708 247 717 256 708 b 278 713 271 708 275 710 b 236 608 282 679 263 644 l 133 608 l 133 832 b 144 972 138 858 138 897 b 15 804 115 863 99 804 b 44 714 38 789 44 756 l 44 608 l -18 519 l 44 519 l 44 317 b 1 294 24 326 4 310 b 46 214 29 310 46 285 l 46 115 b -54 -207 46 33 49 -179 b 181 25 49 -207 88 -39 b 144 71 160 33 150 50 b 133 258 132 121 133 204 l 133 324 b 165 299 140 310 150 299 z m 133 519 l 169 519 b 133 456 156 499 142 478 z "},"":{"ha":238,"x_min":0,"x_max":0,"o":"m 524 4 b 144 -76 319 4 168 -174 b 133 115 135 -35 133 85 l 132 324 b 164 299 139 310 150 299 b 183 318 174 299 183 307 b 165 338 183 328 175 336 b 147 328 157 338 151 333 b 292 701 99 451 293 593 b 265 746 292 717 285 746 b 246 728 256 746 246 738 b 265 708 246 717 254 708 b 278 713 269 708 274 710 b 235 608 281 679 261 644 l 132 608 l 132 832 b 144 972 136 858 138 897 b 14 804 115 863 99 804 b 44 714 38 789 43 756 l 44 608 l -19 519 l 44 519 l 44 317 b 0 294 22 326 4 310 b 44 214 29 310 44 285 l 44 115 l 44 -37 b -143 -246 44 -128 -6 -246 b -193 93 -368 -246 -376 85 b -111 44 -156 94 -119 69 b -119 46 -114 46 -117 46 b -144 21 -133 46 -144 35 b -119 -4 -144 7 -133 -4 b -192 114 -71 -4 -90 113 b -143 -293 -419 115 -419 -293 b 525 -14 71 -293 297 -14 b 586 -296 793 -14 736 -296 b 493 -190 507 -296 458 -239 b 517 -206 497 -199 506 -206 b 542 -181 531 -206 542 -194 b 514 -156 542 -165 529 -154 b 590 -347 435 -158 435 -351 b 524 4 797 -343 814 4 z m 132 519 l 169 519 b 132 456 154 499 142 478 z "},"":{"ha":238,"x_min":0,"x_max":0,"o":"m 522 4 b 144 -76 319 4 168 -174 b 132 115 133 -35 132 85 l 132 324 b 164 299 139 310 149 299 b 182 318 174 299 182 307 b 164 338 183 328 175 336 b 147 328 157 338 150 333 b 292 701 97 451 293 593 b 265 746 292 717 285 746 b 246 728 254 746 246 738 b 264 708 246 717 253 708 b 276 713 269 708 274 710 b 235 608 281 679 261 644 l 132 608 l 132 694 b 331 993 132 893 231 993 b 396 803 467 993 481 819 b 351 815 382 800 361 804 b 376 840 365 815 376 826 b 351 865 376 854 365 865 b 326 840 338 865 326 854 b 397 790 325 806 367 786 b 328 1010 507 806 496 1010 b -161 786 171 1010 68 786 b -210 968 -328 786 -303 968 b -156 915 -162 968 -151 939 b -176 928 -160 922 -167 928 b -201 903 -190 928 -201 917 b -175 878 -201 888 -189 876 b -210 982 -121 879 -121 982 b -162 769 -329 982 -339 769 b 7 779 -108 769 -26 789 b 44 694 47 768 44 738 l 43 608 l -19 519 l 43 519 l 43 317 b 0 294 22 326 3 310 b 43 214 28 310 43 285 l 43 115 l 44 -37 b -144 -246 44 -128 -7 -246 b -194 93 -368 -246 -378 85 b -111 44 -156 94 -119 69 b -119 46 -114 46 -117 46 b -144 21 -133 46 -144 35 b -119 -4 -144 7 -133 -4 b -193 114 -71 -4 -90 113 b -144 -293 -421 115 -421 -293 b 524 -14 69 -293 296 -14 b 586 -296 792 -14 735 -296 b 493 -190 506 -296 458 -239 b 515 -206 496 -199 506 -206 b 540 -181 529 -206 540 -194 b 514 -156 540 -165 528 -154 b 589 -347 433 -158 433 -351 b 522 4 796 -343 813 4 z m 132 519 l 168 519 b 132 456 154 499 140 478 z "},"":{"ha":865,"x_min":0,"x_max":0,"o":"m 832 -65 b 800 8 803 -64 800 -24 l 800 214 b 843 294 800 282 815 310 b 800 317 840 310 822 326 l 800 608 b 901 893 800 821 886 799 b 554 546 826 754 554 811 l 554 -140 b 517 -165 540 -146 528 -154 l 517 546 b 643 779 517 657 543 725 b 465 911 554 774 490 828 b 378 1042 450 964 463 1042 b 357 919 292 1043 301 919 b 383 946 371 919 383 932 b 357 974 383 961 371 974 b 332 956 344 974 335 967 b 376 1029 319 982 335 1026 b 440 953 422 1033 446 994 b 189 769 425 826 292 792 b 188 514 14 732 33 525 b 324 546 225 513 299 522 b 193 533 294 535 239 525 b 197 706 82 554 92 681 b 385 676 249 718 315 711 b 464 786 408 694 446 721 b 339 561 471 654 350 656 b 429 521 369 596 429 581 l 429 401 b 200 275 335 528 128 435 b 429 199 232 394 422 404 l 429 -110 b 328 -6 406 -65 369 -31 b 397 179 374 51 397 119 b 225 225 397 358 225 326 b 296 144 225 188 257 144 b 322 171 311 144 322 157 b 296 197 322 186 311 197 b 271 163 278 197 265 179 b 235 225 250 175 235 199 b 382 178 235 308 382 343 b 138 -82 382 69 292 -68 b 8 31 63 -87 8 -51 b 196 71 8 167 196 171 b 174 0 196 51 190 28 b 208 71 196 25 208 49 b -56 33 208 222 -56 219 b 140 -111 -56 -79 42 -124 b 560 -383 426 -76 368 -357 b 643 -326 606 -389 638 -357 b 579 -246 649 -289 625 -240 b 556 -272 565 -247 556 -258 b 582 -299 556 -286 567 -299 b 608 -268 597 -299 610 -285 b 632 -324 625 -279 635 -303 b 561 -372 626 -358 592 -378 b 636 -153 410 -347 511 -118 b 578 -132 628 -137 606 -124 l 578 214 b 619 294 578 282 592 310 b 578 317 617 310 599 326 l 578 392 l 713 392 l 713 317 b 671 294 692 326 674 310 b 713 214 699 310 713 282 l 713 8 b 694 -75 713 -39 713 -64 b 832 -250 792 -101 815 -171 b 865 0 846 -172 882 -74 b 832 -65 865 -37 854 -65 z m 713 608 l 713 472 l 578 472 l 578 546 b 732 746 578 694 690 733 b 713 608 724 725 713 704 z m 450 1222 b 408 1144 417 1197 447 1156 b 488 1042 436 1139 493 1103 b 450 1222 601 1150 413 1158 z "},"":{"ha":865,"x_min":0,"x_max":0,"o":"m 832 -65 b 800 8 803 -64 800 -24 l 800 214 b 843 294 800 282 815 310 b 800 317 840 310 822 326 l 800 608 b 901 893 800 821 886 799 b 554 546 826 754 554 811 l 554 -140 b 517 -165 540 -146 528 -154 l 517 546 b 643 779 517 657 543 725 b 465 911 554 774 490 828 b 378 1042 450 964 463 1042 b 357 919 292 1043 301 919 b 383 946 371 919 383 932 b 357 974 383 961 371 974 b 332 956 344 974 335 967 b 376 1029 319 982 335 1026 b 440 953 422 1033 446 994 b 189 769 425 826 292 792 b 188 514 14 732 33 525 b 324 546 225 513 299 522 b 193 533 294 535 239 525 b 197 706 82 554 92 681 b 385 676 249 718 315 711 b 464 786 408 694 446 721 b 339 561 471 654 350 656 b 429 521 369 596 429 581 l 429 401 b 200 275 335 528 128 435 b 429 199 232 394 422 404 l 429 -110 b 328 -6 406 -65 369 -31 b 397 179 374 51 397 119 b 225 225 397 358 225 326 b 296 144 225 188 257 144 b 322 171 311 144 322 157 b 296 197 322 186 311 197 b 271 163 278 197 265 179 b 235 225 250 175 235 199 b 382 178 235 308 382 343 b 138 -82 382 69 292 -68 b 8 31 63 -87 8 -51 b 196 71 8 167 196 171 b 174 0 196 51 190 28 b 208 71 196 25 208 49 b -56 33 208 222 -56 219 b 140 -111 -56 -79 42 -124 b 560 -383 426 -76 368 -357 b 643 -326 606 -389 638 -357 b 579 -246 649 -289 625 -240 b 556 -272 565 -247 556 -258 b 582 -299 556 -286 567 -299 b 608 -268 597 -299 610 -285 b 632 -324 625 -279 635 -303 b 561 -372 626 -358 592 -378 b 636 -153 410 -347 511 -118 b 578 -132 628 -137 606 -124 l 578 214 b 619 294 578 282 592 310 b 578 317 617 310 599 326 l 578 392 l 713 392 l 713 317 b 671 294 692 326 674 310 b 713 214 699 310 713 282 l 713 8 b 694 -75 713 -39 713 -64 b 832 -250 792 -101 815 -171 b 865 0 846 -172 882 -74 b 832 -65 865 -37 854 -65 z m 713 608 l 713 472 l 578 472 l 578 546 b 732 746 578 694 690 733 b 713 608 724 725 713 704 z m 513 1221 b 475 1040 550 1157 361 1149 b 554 1143 469 1101 526 1138 b 513 1221 515 1154 546 1196 z "},"":{"ha":865,"x_min":0,"x_max":0,"o":"m 832 -65 b 800 8 803 -64 800 -24 l 800 214 b 843 294 800 282 815 310 b 800 317 840 310 822 326 l 800 608 b 901 893 800 821 886 799 b 554 546 826 754 554 811 l 554 -140 b 517 -165 540 -146 528 -154 l 517 546 b 643 779 517 657 543 725 b 465 911 554 774 490 828 b 378 1042 450 964 463 1042 b 357 919 292 1043 301 919 b 383 946 371 919 383 932 b 357 974 383 961 371 974 b 332 956 344 974 335 967 b 376 1029 319 982 335 1026 b 440 953 422 1033 446 994 b 189 769 425 826 292 792 b 188 514 14 732 33 525 b 324 546 225 513 299 522 b 193 533 294 535 239 525 b 197 706 82 554 92 681 b 385 676 249 718 315 711 b 464 786 408 694 446 721 b 339 561 471 654 350 656 b 429 521 369 596 429 581 l 429 401 b 200 275 335 528 128 435 b 429 199 232 394 422 404 l 429 -110 b 328 -6 406 -65 369 -31 b 397 179 374 51 397 119 b 225 225 397 358 225 326 b 296 144 225 188 257 144 b 322 171 311 144 322 157 b 296 197 322 186 311 197 b 271 163 278 197 265 179 b 235 225 250 175 235 199 b 382 178 235 308 382 343 b 138 -82 382 69 292 -68 b 8 31 63 -87 8 -51 b 196 71 8 167 196 171 b 174 0 196 51 190 28 b 208 71 196 25 208 49 b -56 33 208 222 -56 219 b 140 -111 -56 -79 42 -124 b 560 -383 426 -76 368 -357 b 643 -326 606 -389 638 -357 b 579 -246 649 -289 625 -240 b 556 -272 565 -247 556 -258 b 582 -299 556 -286 567 -299 b 608 -268 597 -299 610 -285 b 632 -324 625 -279 635 -303 b 561 -372 626 -358 592 -378 b 636 -153 410 -347 511 -118 b 578 -132 628 -137 606 -124 l 578 214 b 619 294 578 282 592 310 b 578 317 617 310 599 326 l 578 392 l 713 392 l 713 317 b 671 294 692 326 674 310 b 713 214 699 310 713 282 l 713 8 b 694 -75 713 -39 713 -64 b 832 -250 792 -101 815 -171 b 865 0 846 -172 882 -74 b 832 -65 865 -37 854 -65 z m 713 608 l 713 472 l 578 472 l 578 546 b 732 746 578 694 690 733 b 713 608 724 725 713 704 z m 414 1222 b 389 1154 388 1203 403 1171 b 363 1222 375 1171 389 1203 b 325 1042 400 1158 211 1150 b 389 1139 321 1093 358 1126 b 451 1042 418 1126 456 1093 b 414 1222 565 1150 376 1158 z "},"":{"ha":865,"x_min":0,"x_max":0,"o":"m 832 -65 b 800 8 803 -64 800 -24 l 800 214 b 843 294 800 282 815 310 b 800 317 840 310 822 326 l 800 608 b 901 893 800 821 886 799 b 554 546 826 754 554 811 l 554 -140 b 517 -165 540 -146 528 -154 l 517 546 b 643 779 517 657 543 725 b 465 911 554 774 490 828 b 378 1042 450 964 463 1042 b 357 919 292 1043 301 919 b 383 946 371 919 383 932 b 357 974 383 961 371 974 b 332 956 344 974 335 967 b 376 1029 319 982 335 1026 b 440 953 422 1033 446 994 b 189 769 425 826 292 792 b 188 514 14 732 33 525 b 324 546 225 513 299 522 b 193 533 294 535 239 525 b 197 706 82 554 92 681 b 385 676 249 718 315 711 b 464 786 408 694 446 721 b 339 561 471 654 350 656 b 429 521 369 596 429 581 l 429 401 b 200 275 335 528 128 435 b 429 199 232 394 422 404 l 429 -110 b 328 -6 406 -65 369 -31 b 397 179 374 51 397 119 b 225 225 397 358 225 326 b 296 144 225 188 257 144 b 322 171 311 144 322 157 b 296 197 322 186 311 197 b 271 163 278 197 265 179 b 235 225 250 175 235 199 b 382 178 235 308 382 343 b 138 -82 382 69 292 -68 b 8 31 63 -87 8 -51 b 196 71 8 167 196 171 b 174 0 196 51 190 28 b 208 71 196 25 208 49 b -56 33 208 222 -56 219 b 140 -111 -56 -79 42 -124 b 560 -383 426 -76 368 -357 b 643 -326 606 -389 638 -357 b 579 -246 649 -289 625 -240 b 556 -272 565 -247 556 -258 b 582 -299 556 -286 567 -299 b 608 -268 597 -299 610 -285 b 632 -324 625 -279 635 -303 b 561 -372 626 -358 592 -378 b 636 -153 410 -347 511 -118 b 578 -132 628 -137 606 -124 l 578 214 b 619 294 578 282 592 310 b 578 317 617 310 599 326 l 578 392 l 713 392 l 713 317 b 671 294 692 326 674 310 b 713 214 699 310 713 282 l 713 8 b 694 -75 713 -39 713 -64 b 832 -250 792 -101 815 -171 b 865 0 846 -172 882 -74 b 832 -65 865 -37 854 -65 z m 713 608 l 713 472 l 578 472 l 578 546 b 732 746 578 694 690 733 b 713 608 724 725 713 704 z m 482 1140 b 258 1125 431 1176 321 1089 b 271 1139 265 1126 271 1132 b 257 1154 271 1147 264 1154 b 242 1139 249 1154 242 1147 b 282 1076 242 1110 290 1108 b 506 1092 333 1040 443 1128 b 493 1078 499 1090 493 1085 b 507 1063 493 1069 500 1063 b 522 1078 515 1063 522 1069 b 482 1140 522 1107 474 1108 z "},"":{"ha":865,"x_min":0,"x_max":0,"o":"m 832 -65 b 800 8 803 -64 800 -24 l 800 214 b 843 294 800 282 815 310 b 800 317 840 310 822 326 l 800 608 b 901 893 800 821 886 799 b 554 546 826 754 554 811 l 554 -140 b 517 -165 540 -146 528 -154 l 517 546 b 643 779 517 657 543 725 b 465 911 554 774 490 828 b 378 1042 450 964 463 1042 b 357 919 292 1043 301 919 b 383 946 371 919 383 932 b 357 974 383 961 371 974 b 332 956 344 974 335 967 b 376 1029 319 982 335 1026 b 440 953 422 1033 446 994 b 189 769 425 826 292 792 b 188 514 14 732 33 525 b 324 546 225 513 299 522 b 193 533 294 535 239 525 b 197 706 82 554 92 681 b 385 676 249 718 315 711 b 464 786 408 694 446 721 b 339 561 471 654 350 656 b 429 521 369 596 429 581 l 429 401 b 200 275 335 528 128 435 b 429 199 232 394 422 404 l 429 -110 b 328 -6 406 -65 369 -31 b 397 179 374 51 397 119 b 225 225 397 358 225 326 b 296 144 225 188 257 144 b 322 171 311 144 322 157 b 296 197 322 186 311 197 b 271 163 278 197 265 179 b 235 225 250 175 235 199 b 382 178 235 308 382 343 b 138 -82 382 69 292 -68 b 8 31 63 -87 8 -51 b 196 71 8 167 196 171 b 174 0 196 51 190 28 b 208 71 196 25 208 49 b -56 33 208 222 -56 219 b 140 -111 -56 -79 42 -124 b 560 -383 426 -76 368 -357 b 643 -326 606 -389 638 -357 b 579 -246 649 -289 625 -240 b 556 -272 565 -247 556 -258 b 582 -299 556 -286 567 -299 b 608 -268 597 -299 610 -285 b 632 -324 625 -279 635 -303 b 561 -372 626 -358 592 -378 b 636 -153 410 -347 511 -118 b 578 -132 628 -137 606 -124 l 578 214 b 619 294 578 282 592 310 b 578 317 617 310 599 326 l 578 392 l 713 392 l 713 317 b 671 294 692 326 674 310 b 713 214 699 310 713 282 l 713 8 b 694 -75 713 -39 713 -64 b 832 -250 792 -101 815 -171 b 865 0 846 -172 882 -74 b 832 -65 865 -37 854 -65 z m 713 608 l 713 472 l 578 472 l 578 546 b 732 746 578 694 690 733 b 713 608 724 725 713 704 z m 499 1142 b 464 1222 463 1157 410 1192 b 371 1147 414 1215 404 1161 b 346 1222 336 1164 296 1194 b 246 1144 293 1215 286 1156 b 325 1042 347 1128 288 1069 b 378 1142 294 1079 351 1128 b 443 1042 460 1122 408 1068 b 499 1142 413 1079 471 1131 z "},"":{"ha":865,"x_min":0,"x_max":0,"o":"m 832 -65 b 800 8 803 -64 800 -24 l 800 214 b 843 294 800 282 815 310 b 800 317 840 310 822 326 l 800 608 b 901 893 800 821 886 799 b 554 546 826 754 554 811 l 554 -140 b 517 -165 540 -146 528 -154 l 517 546 b 643 779 517 657 543 725 b 465 911 554 774 490 828 b 378 1042 450 964 463 1042 b 357 919 292 1043 301 919 b 383 946 371 919 383 932 b 357 974 383 961 371 974 b 332 956 344 974 335 967 b 376 1029 319 982 335 1026 b 440 953 422 1033 446 994 b 189 769 425 826 292 792 b 188 514 14 732 33 525 b 324 546 225 513 299 522 b 193 533 294 535 239 525 b 197 706 82 554 92 681 b 385 676 249 718 315 711 b 464 786 408 694 446 721 b 339 561 471 654 350 656 b 429 521 369 596 429 581 l 429 401 b 200 275 335 528 128 435 b 429 199 232 394 422 404 l 429 -110 b 328 -6 406 -65 369 -31 b 397 179 374 51 397 119 b 225 225 397 358 225 326 b 296 144 225 188 257 144 b 322 171 311 144 322 157 b 296 197 322 186 311 197 b 271 163 278 197 265 179 b 235 225 250 175 235 199 b 382 178 235 308 382 343 b 138 -82 382 69 292 -68 b 8 31 63 -87 8 -51 b 196 71 8 167 196 171 b 174 0 196 51 190 28 b 208 71 196 25 208 49 b -56 33 208 222 -56 219 b 140 -111 -56 -79 42 -124 b 560 -383 426 -76 368 -357 b 643 -326 606 -389 638 -357 b 579 -246 649 -289 625 -240 b 556 -272 565 -247 556 -258 b 582 -299 556 -286 567 -299 b 608 -268 597 -299 610 -285 b 632 -324 625 -279 635 -303 b 561 -372 626 -358 592 -378 b 636 -153 410 -347 511 -118 b 578 -132 628 -137 606 -124 l 578 214 b 619 294 578 282 592 310 b 578 317 617 310 599 326 l 578 392 l 713 392 l 713 317 b 671 294 692 326 674 310 b 713 214 699 310 713 282 l 713 8 b 694 -75 713 -39 713 -64 b 832 -250 792 -101 815 -171 b 865 0 846 -172 882 -74 b 832 -65 865 -37 854 -65 z m 713 608 l 713 472 l 578 472 l 578 546 b 732 746 578 694 690 733 b 713 608 724 725 713 704 z m 540 1108 l 540 1204 b 547 1238 542 1222 543 1231 b 431 1150 515 1206 431 1229 l 431 1113 b 422 1079 429 1094 431 1083 b 492 1008 463 1068 486 1040 b 549 1079 500 1039 510 1049 b 540 1108 542 1086 540 1094 z m 506 1108 b 492 1036 506 1088 503 1050 b 465 1113 479 1056 465 1075 l 465 1150 b 468 1171 465 1158 467 1165 b 482 1179 476 1167 482 1169 b 474 1182 479 1175 475 1178 b 506 1175 474 1200 506 1213 l 506 1108 z "},"":{"ha":715,"x_min":0,"x_max":0,"o":"m 653 114 b 564 61 624 114 564 99 b 590 35 564 46 575 35 b 617 61 604 35 617 50 b 607 82 617 72 613 76 b 793 -61 703 118 793 31 b 674 -183 793 -122 747 -183 b 440 -26 596 -183 503 -143 l 440 214 b 483 294 440 282 456 310 b 440 317 481 310 461 326 l 440 383 l 596 383 b 506 192 528 301 499 213 b 631 129 538 199 568 108 b 678 468 467 154 640 393 b 675 565 694 500 699 532 b 661 472 688 535 679 503 l 490 472 b 767 781 596 608 771 596 b 733 831 765 803 758 831 b 706 803 718 831 706 819 b 732 776 706 789 717 776 b 746 781 738 776 742 778 b 735 717 747 753 746 733 b 607 788 703 694 656 744 b 418 546 571 778 418 724 l 418 24 b 372 315 390 96 372 192 l 372 544 b 499 779 372 694 436 728 b 163 1042 322 768 361 1042 b 0 878 57 1042 0 963 b 163 715 0 788 72 715 b 189 742 178 715 189 726 b 163 768 189 756 178 768 b 139 731 143 768 131 749 b 15 881 74 739 15 803 b 161 1029 15 960 75 1029 b 303 781 271 1029 322 904 b 194 561 283 671 196 615 b 283 521 225 596 283 581 l 283 411 b 63 275 186 522 -7 429 b 290 190 92 379 253 347 b 144 294 260 253 207 301 b 117 179 85 289 67 211 b 203 206 143 161 203 167 b 176 232 203 219 190 232 b 149 206 161 232 149 219 b 169 179 149 193 158 182 b 121 185 154 174 136 175 b 144 283 81 211 92 279 b 278 -8 265 293 338 103 b 150 -44 250 -60 204 -79 b 204 94 61 14 139 136 b 240 50 217 86 229 72 b 210 103 233 75 224 93 b 122 -85 111 167 0 -6 b 299 -19 194 -133 265 -89 b 318 65 311 6 317 35 b 653 -236 385 -150 538 -236 b 826 -61 768 -236 826 -143 b 653 114 826 56 728 114 z m 440 546 b 563 696 440 599 490 749 b 654 631 621 654 621 642 b 440 442 557 572 504 543 l 440 546 z m 353 1153 b 311 1075 319 1128 350 1086 b 390 972 339 1069 396 1033 b 353 1153 504 1081 315 1089 z "},"":{"ha":715,"x_min":0,"x_max":0,"o":"m 653 114 b 564 61 624 114 564 99 b 590 35 564 46 575 35 b 617 61 604 35 617 50 b 607 82 617 72 613 76 b 793 -61 703 118 793 31 b 674 -183 793 -122 747 -183 b 440 -26 596 -183 503 -143 l 440 214 b 483 294 440 282 456 310 b 440 317 481 310 461 326 l 440 383 l 596 383 b 506 192 528 301 499 213 b 631 129 538 199 568 108 b 678 468 467 154 640 393 b 675 565 694 500 699 532 b 661 472 688 535 679 503 l 490 472 b 767 781 596 608 771 596 b 733 831 765 803 758 831 b 706 803 718 831 706 819 b 732 776 706 789 717 776 b 746 781 738 776 742 778 b 735 717 747 753 746 733 b 607 788 703 694 656 744 b 418 546 571 778 418 724 l 418 24 b 372 315 390 96 372 192 l 372 544 b 499 779 372 694 436 728 b 163 1042 322 768 361 1042 b 0 878 57 1042 0 963 b 163 715 0 788 72 715 b 189 742 178 715 189 726 b 163 768 189 756 178 768 b 139 731 143 768 131 749 b 15 881 74 739 15 803 b 161 1029 15 960 75 1029 b 303 781 271 1029 322 904 b 194 561 283 671 196 615 b 283 521 225 596 283 581 l 283 411 b 63 275 186 522 -7 429 b 290 190 92 379 253 347 b 144 294 260 253 207 301 b 117 179 85 289 67 211 b 203 206 143 161 203 167 b 176 232 203 219 190 232 b 149 206 161 232 149 219 b 169 179 149 193 158 182 b 121 185 154 174 136 175 b 144 283 81 211 92 279 b 278 -8 265 293 338 103 b 150 -44 250 -60 204 -79 b 204 94 61 14 139 136 b 240 50 217 86 229 72 b 210 103 233 75 224 93 b 122 -85 111 167 0 -6 b 299 -19 194 -133 265 -89 b 318 65 311 6 317 35 b 653 -236 385 -150 538 -236 b 826 -61 768 -236 826 -143 b 653 114 826 56 728 114 z m 440 546 b 563 696 440 599 490 749 b 654 631 621 654 621 642 b 440 442 557 572 504 543 l 440 546 z m 429 1154 b 392 974 467 1090 278 1082 b 471 1076 386 1035 443 1071 b 429 1154 432 1088 463 1129 z "},"":{"ha":715,"x_min":0,"x_max":0,"o":"m 653 114 b 564 61 624 114 564 99 b 590 35 564 46 575 35 b 617 61 604 35 617 50 b 607 82 617 72 613 76 b 793 -61 703 118 793 31 b 674 -183 793 -122 747 -183 b 440 -26 596 -183 503 -143 l 440 214 b 483 294 440 282 456 310 b 440 317 481 310 461 326 l 440 383 l 596 383 b 506 192 528 301 499 213 b 631 129 538 199 568 108 b 678 468 467 154 640 393 b 675 565 694 500 699 532 b 661 472 688 535 679 503 l 490 472 b 767 781 596 608 771 596 b 733 831 765 803 758 831 b 706 803 718 831 706 819 b 732 776 706 789 717 776 b 746 781 738 776 742 778 b 735 717 747 753 746 733 b 607 788 703 694 656 744 b 418 546 571 778 418 724 l 418 24 b 372 315 390 96 372 192 l 372 544 b 499 779 372 694 436 728 b 163 1042 322 768 361 1042 b 0 878 57 1042 0 963 b 163 715 0 788 72 715 b 189 742 178 715 189 726 b 163 768 189 756 178 768 b 139 731 143 768 131 749 b 15 881 74 739 15 803 b 161 1029 15 960 75 1029 b 303 781 271 1029 322 904 b 194 561 283 671 196 615 b 283 521 225 596 283 581 l 283 411 b 63 275 186 522 -7 429 b 290 190 92 379 253 347 b 144 294 260 253 207 301 b 117 179 85 289 67 211 b 203 206 143 161 203 167 b 176 232 203 219 190 232 b 149 206 161 232 149 219 b 169 179 149 193 158 182 b 121 185 154 174 136 175 b 144 283 81 211 92 279 b 278 -8 265 293 338 103 b 150 -44 250 -60 204 -79 b 204 94 61 14 139 136 b 240 50 217 86 229 72 b 210 103 233 75 224 93 b 122 -85 111 167 0 -6 b 299 -19 194 -133 265 -89 b 318 65 311 6 317 35 b 653 -236 385 -150 538 -236 b 826 -61 768 -236 826 -143 b 653 114 826 56 728 114 z m 440 546 b 563 696 440 599 490 749 b 654 631 621 654 621 642 b 440 442 557 572 504 543 l 440 546 z m 485 1158 b 460 1090 458 1139 474 1107 b 433 1158 446 1107 460 1139 b 396 978 471 1094 282 1086 b 460 1075 392 1029 429 1063 b 522 978 489 1063 526 1029 b 485 1158 636 1086 447 1094 z "},"":{"ha":715,"x_min":0,"x_max":0,"o":"m 653 114 b 564 61 624 114 564 99 b 590 35 564 46 575 35 b 617 61 604 35 617 50 b 607 82 617 72 613 76 b 793 -61 703 118 793 31 b 674 -183 793 -122 747 -183 b 440 -26 596 -183 503 -143 l 440 214 b 483 294 440 282 456 310 b 440 317 481 310 461 326 l 440 383 l 596 383 b 506 192 528 301 499 213 b 631 129 538 199 568 108 b 678 468 467 154 640 393 b 675 565 694 500 699 532 b 661 472 688 535 679 503 l 490 472 b 767 781 596 608 771 596 b 733 831 765 803 758 831 b 706 803 718 831 706 819 b 732 776 706 789 717 776 b 746 781 738 776 742 778 b 735 717 747 753 746 733 b 607 788 703 694 656 744 b 418 546 571 778 418 724 l 418 24 b 372 315 390 96 372 192 l 372 544 b 499 779 372 694 436 728 b 163 1042 322 768 361 1042 b 0 878 57 1042 0 963 b 163 715 0 788 72 715 b 189 742 178 715 189 726 b 163 768 189 756 178 768 b 139 731 143 768 131 749 b 15 881 74 739 15 803 b 161 1029 15 960 75 1029 b 303 781 271 1029 322 904 b 194 561 283 671 196 615 b 283 521 225 596 283 581 l 283 411 b 63 275 186 522 -7 429 b 290 190 92 379 253 347 b 144 294 260 253 207 301 b 117 179 85 289 67 211 b 203 206 143 161 203 167 b 176 232 203 219 190 232 b 149 206 161 232 149 219 b 169 179 149 193 158 182 b 121 185 154 174 136 175 b 144 283 81 211 92 279 b 278 -8 265 293 338 103 b 150 -44 250 -60 204 -79 b 204 94 61 14 139 136 b 240 50 217 86 229 72 b 210 103 233 75 224 93 b 122 -85 111 167 0 -6 b 299 -19 194 -133 265 -89 b 318 65 311 6 317 35 b 653 -236 385 -150 538 -236 b 826 -61 768 -236 826 -143 b 653 114 826 56 728 114 z m 440 546 b 563 696 440 599 490 749 b 654 631 621 654 621 642 b 440 442 557 572 504 543 l 440 546 z m 575 1074 b 540 1154 539 1089 486 1124 b 447 1079 490 1147 481 1093 b 422 1154 413 1096 372 1126 b 322 1076 369 1147 363 1088 b 401 974 424 1060 364 1001 b 454 1074 371 1011 428 1060 b 519 974 536 1054 485 1000 b 575 1074 489 1011 547 1063 z "},"":{"ha":661,"x_min":0,"x_max":0,"o":"m 711 713 b 556 546 681 756 556 731 l 556 -140 b 518 -165 542 -146 528 -154 l 518 546 b 643 779 518 657 543 725 b 467 911 556 774 490 828 b 379 1042 451 964 463 1042 b 357 919 293 1043 303 919 b 383 946 372 919 383 932 b 357 974 383 961 372 974 b 332 956 346 974 336 967 b 376 1029 321 982 335 1026 b 442 953 422 1033 446 994 b 190 769 426 826 293 792 b 189 514 14 732 35 525 b 325 546 225 513 299 522 b 194 533 296 535 240 525 b 199 706 82 554 92 681 b 386 676 249 718 317 711 b 464 786 408 694 447 721 b 340 561 472 654 351 656 b 429 521 371 596 429 581 l 429 401 b 200 275 335 528 129 435 b 429 199 233 394 422 404 l 429 -110 b 328 -6 407 -65 371 -31 b 399 179 374 51 399 119 b 226 225 399 358 226 326 b 297 144 226 188 257 144 b 324 171 313 144 324 157 b 297 197 324 186 311 197 b 272 163 279 197 265 179 b 236 225 250 175 236 199 b 383 178 236 308 383 343 b 139 -82 383 69 292 -68 b 8 31 63 -87 8 -51 b 196 71 8 167 196 171 b 174 0 196 51 190 28 b 210 71 196 25 210 49 b -56 33 210 222 -56 219 b 142 -111 -56 -79 43 -124 b 560 -383 426 -76 368 -357 b 643 -326 606 -389 638 -357 b 579 -246 650 -289 625 -240 b 556 -272 567 -247 556 -258 b 582 -299 556 -286 568 -299 b 608 -268 599 -299 611 -285 b 632 -324 625 -279 636 -303 b 563 -372 626 -358 592 -378 b 636 -153 410 -347 511 -118 b 578 -132 629 -137 606 -124 l 578 214 b 621 294 578 282 593 310 b 578 317 618 310 599 326 l 578 546 b 675 717 578 653 631 717 b 664 694 668 711 664 704 b 690 668 664 679 676 668 b 717 694 706 668 717 679 b 711 713 717 701 715 707 z m 464 1153 b 422 1075 431 1128 461 1086 b 501 972 450 1069 507 1033 b 464 1153 615 1081 426 1089 z "},"":{"ha":661,"x_min":0,"x_max":0,"o":"m 711 713 b 556 546 681 756 556 731 l 556 -140 b 518 -165 542 -146 528 -154 l 518 546 b 643 779 518 657 543 725 b 467 911 556 774 490 828 b 379 1042 451 964 463 1042 b 357 919 293 1043 303 919 b 383 946 372 919 383 932 b 357 974 383 961 372 974 b 332 956 346 974 336 967 b 376 1029 321 982 335 1026 b 442 953 422 1033 446 994 b 190 769 426 826 293 792 b 189 514 14 732 35 525 b 325 546 225 513 299 522 b 194 533 296 535 240 525 b 199 706 82 554 92 681 b 386 676 249 718 317 711 b 464 786 408 694 447 721 b 340 561 472 654 351 656 b 429 521 371 596 429 581 l 429 401 b 200 275 335 528 129 435 b 429 199 233 394 422 404 l 429 -110 b 328 -6 407 -65 371 -31 b 399 179 374 51 399 119 b 226 225 399 358 226 326 b 297 144 226 188 257 144 b 324 171 313 144 324 157 b 297 197 324 186 311 197 b 272 163 279 197 265 179 b 236 225 250 175 236 199 b 383 178 236 308 383 343 b 139 -82 383 69 292 -68 b 8 31 63 -87 8 -51 b 196 71 8 167 196 171 b 174 0 196 51 190 28 b 210 71 196 25 210 49 b -56 33 210 222 -56 219 b 142 -111 -56 -79 43 -124 b 560 -383 426 -76 368 -357 b 643 -326 606 -389 638 -357 b 579 -246 650 -289 625 -240 b 556 -272 567 -247 556 -258 b 582 -299 556 -286 568 -299 b 608 -268 599 -299 611 -285 b 632 -324 625 -279 636 -303 b 563 -372 626 -358 592 -378 b 636 -153 410 -347 511 -118 b 578 -132 629 -137 606 -124 l 578 214 b 621 294 578 282 593 310 b 578 317 618 310 599 326 l 578 546 b 675 717 578 653 631 717 b 664 694 668 711 664 704 b 690 668 664 679 676 668 b 717 694 706 668 717 679 b 711 713 717 701 715 707 z m 572 1156 b 535 975 610 1092 421 1083 b 614 1078 529 1036 586 1072 b 572 1156 575 1089 606 1131 z "},"":{"ha":661,"x_min":0,"x_max":0,"o":"m 711 713 b 556 546 681 756 556 731 l 556 -140 b 518 -165 542 -146 528 -154 l 518 546 b 643 779 518 657 543 725 b 467 911 556 774 490 828 b 379 1042 451 964 463 1042 b 357 919 293 1043 303 919 b 383 946 372 919 383 932 b 357 974 383 961 372 974 b 332 956 346 974 336 967 b 376 1029 321 982 335 1026 b 442 953 422 1033 446 994 b 190 769 426 826 293 792 b 189 514 14 732 35 525 b 325 546 225 513 299 522 b 194 533 296 535 240 525 b 199 706 82 554 92 681 b 386 676 249 718 317 711 b 464 786 408 694 447 721 b 340 561 472 654 351 656 b 429 521 371 596 429 581 l 429 401 b 200 275 335 528 129 435 b 429 199 233 394 422 404 l 429 -110 b 328 -6 407 -65 371 -31 b 399 179 374 51 399 119 b 226 225 399 358 226 326 b 297 144 226 188 257 144 b 324 171 313 144 324 157 b 297 197 324 186 311 197 b 272 163 279 197 265 179 b 236 225 250 175 236 199 b 383 178 236 308 383 343 b 139 -82 383 69 292 -68 b 8 31 63 -87 8 -51 b 196 71 8 167 196 171 b 174 0 196 51 190 28 b 210 71 196 25 210 49 b -56 33 210 222 -56 219 b 142 -111 -56 -79 43 -124 b 560 -383 426 -76 368 -357 b 643 -326 606 -389 638 -357 b 579 -246 650 -289 625 -240 b 556 -272 567 -247 556 -258 b 582 -299 556 -286 568 -299 b 608 -268 599 -299 611 -285 b 632 -324 625 -279 636 -303 b 563 -372 626 -358 592 -378 b 636 -153 410 -347 511 -118 b 578 -132 629 -137 606 -124 l 578 214 b 621 294 578 282 593 310 b 578 317 618 310 599 326 l 578 546 b 675 717 578 653 631 717 b 664 694 668 711 664 704 b 690 668 664 679 676 668 b 717 694 706 668 717 679 b 711 713 717 701 715 707 z m 417 1221 b 392 1153 390 1201 406 1169 b 365 1221 378 1169 392 1201 b 328 1040 403 1157 214 1149 b 392 1138 324 1092 361 1125 b 454 1040 421 1125 458 1092 b 417 1221 568 1149 379 1157 z "},"":{"ha":661,"x_min":0,"x_max":0,"o":"m 711 713 b 556 546 681 756 556 731 l 556 -140 b 518 -165 542 -146 528 -154 l 518 546 b 643 779 518 657 543 725 b 467 911 556 774 490 828 b 379 1042 451 964 463 1042 b 357 919 293 1043 303 919 b 383 946 372 919 383 932 b 357 974 383 961 372 974 b 332 956 346 974 336 967 b 376 1029 321 982 335 1026 b 442 953 422 1033 446 994 b 190 769 426 826 293 792 b 189 514 14 732 35 525 b 325 546 225 513 299 522 b 194 533 296 535 240 525 b 199 706 82 554 92 681 b 386 676 249 718 317 711 b 464 786 408 694 447 721 b 340 561 472 654 351 656 b 429 521 371 596 429 581 l 429 401 b 200 275 335 528 129 435 b 429 199 233 394 422 404 l 429 -110 b 328 -6 407 -65 371 -31 b 399 179 374 51 399 119 b 226 225 399 358 226 326 b 297 144 226 188 257 144 b 324 171 313 144 324 157 b 297 197 324 186 311 197 b 272 163 279 197 265 179 b 236 225 250 175 236 199 b 383 178 236 308 383 343 b 139 -82 383 69 292 -68 b 8 31 63 -87 8 -51 b 196 71 8 167 196 171 b 174 0 196 51 190 28 b 210 71 196 25 210 49 b -56 33 210 222 -56 219 b 142 -111 -56 -79 43 -124 b 560 -383 426 -76 368 -357 b 643 -326 606 -389 638 -357 b 579 -246 650 -289 625 -240 b 556 -272 567 -247 556 -258 b 582 -299 556 -286 568 -299 b 608 -268 599 -299 611 -285 b 632 -324 625 -279 636 -303 b 563 -372 626 -358 592 -378 b 636 -153 410 -347 511 -118 b 578 -132 629 -137 606 -124 l 578 214 b 621 294 578 282 593 310 b 578 317 618 310 599 326 l 578 546 b 675 717 578 653 631 717 b 664 694 668 711 664 704 b 690 668 664 679 676 668 b 717 694 706 668 717 679 b 711 713 717 701 715 707 z m 497 1140 b 463 1221 461 1156 408 1190 b 369 1146 413 1214 403 1160 b 344 1221 335 1163 294 1193 b 244 1143 292 1214 285 1154 b 324 1040 346 1126 286 1068 b 376 1140 293 1078 350 1126 b 442 1040 458 1121 407 1067 b 497 1140 411 1078 469 1129 z "},"":{"ha":867,"x_min":0,"x_max":0,"o":"m 832 -65 b 801 8 804 -64 801 -24 l 801 214 b 844 294 801 282 815 310 b 801 317 840 310 822 326 l 801 608 b 901 893 801 821 888 799 b 556 546 829 758 556 808 l 556 -140 b 518 -165 542 -146 529 -154 l 518 546 b 644 779 518 657 543 725 b 467 911 556 774 490 828 b 379 1042 451 964 463 1042 b 357 919 293 1043 303 919 b 383 946 372 919 383 932 b 357 974 383 961 372 974 b 332 956 346 974 336 967 b 376 1029 321 982 335 1026 b 442 953 422 1033 446 994 b 190 769 426 826 293 792 b 189 514 14 732 35 525 b 325 546 225 513 299 522 b 194 533 296 535 240 525 b 199 706 82 554 92 681 b 386 676 249 718 317 711 b 465 786 408 694 447 721 b 340 561 472 654 351 656 b 429 521 371 596 429 581 l 429 401 b 200 275 335 528 129 435 b 429 199 233 394 422 404 l 429 -110 b 329 -6 407 -65 371 -31 b 399 179 374 51 399 119 b 226 225 399 358 226 326 b 297 144 226 188 257 144 b 324 171 313 144 324 157 b 297 197 324 186 311 197 b 272 163 279 197 265 179 b 236 225 250 175 236 199 b 383 178 236 308 383 343 b 139 -82 383 69 293 -68 b 8 31 63 -87 8 -51 b 196 71 8 167 196 171 b 174 0 196 51 190 28 b 210 71 197 25 210 49 b -56 33 210 222 -56 219 b 142 -111 -56 -79 43 -124 b 561 -383 426 -76 368 -357 b 643 -326 606 -389 638 -357 b 579 -246 650 -289 625 -240 b 556 -272 567 -247 556 -258 b 582 -299 556 -286 568 -299 b 608 -268 599 -299 611 -285 b 632 -324 625 -279 636 -303 b 563 -372 626 -358 592 -378 b 636 -153 410 -347 511 -118 b 578 -132 629 -137 606 -124 l 578 214 b 621 294 578 282 593 310 b 578 317 618 310 600 326 l 578 546 b 733 746 578 654 636 715 b 714 608 725 725 714 704 l 714 317 b 671 294 693 326 674 310 b 714 214 699 310 714 282 l 714 8 b 696 -75 713 -39 714 -64 b 832 -250 793 -101 817 -171 b 867 0 846 -172 882 -74 b 832 -65 867 -37 854 -65 z m 493 1142 b 269 1126 442 1178 332 1090 b 282 1140 276 1128 282 1133 b 268 1156 282 1149 275 1156 b 253 1140 260 1156 253 1149 b 293 1078 253 1111 301 1110 b 517 1093 344 1042 454 1129 b 504 1079 510 1092 504 1086 b 518 1064 504 1071 511 1064 b 533 1079 526 1064 533 1071 b 493 1142 533 1108 485 1110 z "}}}
